<mxfile host="65bd71144e">
    <diagram id="78alj8P4fDVn6c4MQjeC" name="Page-1">
        <mxGraphModel dx="549" dy="371" grid="1" gridSize="10" guides="1" tooltips="1" connect="1" arrows="1" fold="1" page="1" pageScale="1" pageWidth="850" pageHeight="1100" math="0" shadow="0">
            <root>
                <mxCell id="0"/>
                <mxCell id="1" parent="0"/>
                <mxCell id="2" value="" style="shape=image;verticalLabelPosition=bottom;labelBackgroundColor=default;verticalAlign=top;aspect=fixed;imageAspect=0;image=data:image/png,iVBORw0KGgoAAAANSUhEUgAAA+YAAAC9CAYAAAA+wWeOAAAgAElEQVR4nOy9+Zcdx5Um9kVmvrUWFFAACC4Cd4mkqJ1Sa1oaj6TusY89fXrmtI+Pf7L/IPuM/dv8YHs8p8duWa2l1aOF2iiS4gYuAAkQ+1JYCoUCat/rrZnpuDciMiNfvcJaFKqA++Ek6i2ZkZH5Mr+8+1WpBgQCgUAgEAgEAoFAIBDcFwT3ewICgUAgEAgEAoFAIBA8zBDFXCAQCAQCgUAgEAgEgvsIUcwFAoFAIBAIBAKBQCC4jxDFXCAQCAQCgUAgEAgEgvsIUcwFAoFAIBAIBAKBQCC4jxDFXCAQCAQCgUAgEAgEgvsIUcwFAoFAIBAIBAKBQCC4jxDFXCAQCAQCgUAgEAgEgvsIUcwFAoFAIBAIBAKBQCC4jxDFXCAQCAQCgUAgEAgEgvsIUcwFAoFAIBAIBAKBQCC4jxDFXCAQCAQCgUAgEAgEgvsIUcwFAoFAIBAIBAKBQCC4jxDFXCAQCAQCgUAgEAgEgvsIUcwFAoFAIBAIBAKBQCC4jxDFXCAQCAQCgUAgEAgEgvsIUcwFAoFAIBAIBAKBQCC4jxDFXCAQCAQCgUAgEAgEgvsIUcwFAoFAIBAIBAKBQCC4jxDFXCAQCAQCgUAgEAgEgvsIUcwFAoFAIBAIBAKBQCC4j4ju9wQEAoFAIBAIBPeC1Pur7CIQCAR3iNR7vdNoxNHfDoYo5gKBQCAQCATbEk5KVri1xJwW1k/7rOFjh8uvAoHgs0Av1ewkFEjt9rT07caTopgLBAKBQCAQbEuoPq83EyUVxFsuEAjuGTtSOe834cT+3Tm8KIq5QCAQCAQCwbZBj6fntkNLd4bgKRAIdgC2I534AUQbvkhQTOVx1gX3WYCicfMeD/AzCvmX4m8CgWBnw4/e/HPuUyAQCG4Hmi/SOEUSJ3fAHXdCMhvXFYoSCAQPLDYQ3GYe8cAuod5GeaU41G2TZN/V0s9O9BSPuUAg2HmwbNjtxmg2G0j1+2q1iiiKoD7riKXeGksCgUBwE3S7XSwvL6PT6WLXrl2aqyp3xh3O8UOypCa7NNUKviY6pQVOxZ/B8J6FKOUCgeBOkSYpFhYWEQQKtVoNFeKp7YxeolNB/iH/UcyN9DfjR89h3o1ThJHqy8WpN3aBW61C3o901RbJg6KYCwSCHYwUSZLwQkT5mSvlG3cvyrlAILglgiBEFKWbC2/9QjT9KEyrnKf0QgugJBdS4KZKjeKvggBhGCDYKulQIBA8XCB+IXkKARsAd658E2Raci8dtteBVhuaK4H6kPmyV7/nQ0/z1zTGBuVcL4H9bNPo+ruEKOYCgWDnwQqpoRZ2q9UaP0TCKLw/8xAIBIKbINRSYL1eZ093KSrdfGUWhknyC7L3nQ4p36Tca6GNnO1WIqT/Q/rPjqk8QVGoSSAQ3AmIV+oDA5pHFEqlaAeSCDFfDGfJTDRvXptoYWU5xhNP1DG8Gzh7uo3xq5cwuncE3/7uI9lWPpSNck9s3ThlVyKHPIueyhhIs/p47r+0v/f9TiE55gKBYGeCOFBLpeVKCZVqGUH4Z6KznpCo1FsEAoGgFyTwGp6qIIiCjcJb2vumyCbTN4CTx1cwNrbGCroZ1HhtWlr4nJxsYXVVi6Sx8JBAILhLaE6p1auo1ir3x9FxL2BOje1i0GwAnx4bx2u/P4ax8/oDzZ3nz83j3bfP4NNPrnHIkQsMKDaaNIbQdtv8dXzt0zYp7WvrKVot85qD6NMEWwFRzAUCwQ5Gjxh6uy0+7lKbdpsQ/SapWW65skAgEBBuiw82EsfpU1fxzz9/C2+8/jE67dyDQ0LhlSst/OSnb+DT4wtYXSvWHb7neYrVUSB4uLDd73e1yVJAwPp5s0n8OIMTJ8YxM2u+6XTLrFCvrCaIu8VccoI7/Ll5Mnh2MDen5bzYRC0tLoI5tqO3W1kFTp5awNWJlPeT5VFuwbkTxVwgEGwTZCpvn8V7WhQeHM5Cugm79iPJDQlFt1i/B7S3DoWX6mnFfqiTm+ad7u9mi0AgeHBwOxqzIxNv3VYzwPJihJXlAKnz8qTGmzM728Ebb5zE2XNrWG+Y9fvRhxEbXahnuul6qS2K5AyPd1RIXiAQ7Gxs+3bfvpzoC0vOWx2Yt4HND0cdKhg0shoXZi8hiOooVwZdfbjCIbvXf3rzNH74D3/Ee+/eAAUPXLwI/OOPTuHttxaxppXzlRXgP/7fr+G1P57H1LSb2tacOFHMBQLBNsGdaqm9BG2heta5U6myj6RKBE/iLEU1dfSLy1eAH//kCN47dI0Jmnfb+0Dz39+tZCsSsUCw43FLZust+Ob+2s+TuIKkOwCVDCKwRYdCG8qepHU0mnW0O7uynMibzcMRU79Ov24uQWhz2ANTJOmmBetS/83tHL1AIBDcDYzMl7I01s95w1U3zJqxpc+gpl/UM25LUNJ/I1bQ056R/b/LKyXMLwRYXa0xry4vA6dOzuHKlXX2nhOWlgewtj6UpxdtEUQxFwgEOxSOhJ1o6SnomVLcW4wjNYWV+gma/cKiSK9PzAe0J6qWmWgSnrqe4t23T+LC+Smsr+frolcw7ieH3lYolkAgeDhBrp5Szh3sITe8FQRlhC7fUXnrK2prlBeV641Ez1+bFms8bLp5kA8p/uSZbzWA9VWg08KGwCUzCdwGdwnRCQSCrYPaVIiyUlpq+DEgo2JQRUovbI6P4rihvBp7ojb63glxUtZLiG6q9GIcMstrTayut7iWR0jCoAr1+uGWmxulKrtAINhxyImQ2NanVcWfqQ3VOnq9NoFxBxUHy166zRIbLso5RSvA4KAJ7WysKkxNNrG8CM759JHo9wsLplDy0LDeU9Qzvc1wu/nxAoHgwYYLiUyNgmzblmuFOcLKEtgYGFXtatzKp6z/y5X59CZc07J5lex1t/Wd+nnEux3g6tWW5rgODh4cxOheI+i6eZkNb3UcN/lOdHSBQHBH6Bd07n9nkRqZjcW8sKIlxNCLMjcaOotkquhL8QMck7SEGCXeNrHrItDvU62s28LvaWoU862GeMwFAsEOQF5Yg4TKBnly1qhqpmcl9Yi6KA/2KuVekY6et25tR9a0LyrscXU8wS9/8QlOnQTWVs0mRNztTsrWU88mgNkZ4PU/nsWxo9fQahan338+np1WhFWB4CGDvf97733NK61VU1m4G9f191XEaRUnTwF/+MMUzp5BHgCkAtPix+nzad89sEB59Sowec0ULAr61Cty0yCO/fjwGfzut+/p9dtcAOn2jqVnMOE0gUCwZQiQl7jskx6jhbf1pkk3XGvQ27qm0iAzYiaaKKlPe6LCDZ5y8opTUbfldZItI6t4++uwFZQdNtQL3aUG9YbBb8URCgQCwY4AtwdqkeJ7Cb/65Sc4fWrZo+eAibM/OVoKzhhWFd72RmlmNtnAeKdOnbqKX//qPa2gmwqdQWD2Rytk+7MTuXEdeOtPp/DxkYtcxRMokn/+Sb8idxBBViB4aED3fKzZIOFwdV+hXlwAfvjD0zhyhCoBl1Gu7tbEM4yLlxO8/e55XBhbzUI2DXLNOVUbRVaK/JnQ/PWf/q/f4Cf/+BrG9ThsYIxNu5/eDhNtzbPT0yua8xawtNRFcNN6Gf6HvXmfEE4TCARbiM3JqKGV8o8/7uB/+V9/iw8+1NzZiICojMQUaveU8qigULc7wNgF4Cc/Ps8OmGZDaTmvYgyXyvFsatOKeEj+sDCDLeI5CWUXCAQ7ALm3nATGUydvYGl5FiMjT2RrpD2sqLxvsk9UsZmQUpvnWbotSWAl6+naWsRFP7IQqNQaAhxx2w1IAG40qmi2KsabDickpz1zMsq5ymYbIHO9S1i7QPCAwymvRBLGM+OyayiM/MY08NZbp7Rw+CIaLaokPKAFygFoFRmtziC6Sa0Qgs7KPTzveGIMiJkIm5ooo7mZLtJYc1nL5prbquuhLdeROmVf/427JT2XMhef2xxpz+tek4DzcAkEAsG9w3mq/VxzF7RIqYZrWhmfvN7i1mapqiMoVXNzofOYI/eGkyLc7FIkUQPvvXcSu3c9r3mxjCiq5sp7amS41Ituynw83vutUM5FMRcIBNsEvYzWJzGbhUVgdVVhdUVpJb1aWLN361zptYpvWhzLc573nYXza1MoVKwJPdZfxsoWDCGrq4oy0ZrFT/td7sH3xzUjJ6yMk5LuVxIVLVwgeHhQrCRMbNC1ZdlIP6ZWjKsNrZzPrGGZHOP6w5jyG4OIX6dUwCIwyq4TGH0/dZwaT/jKPLC0BG7388RjRvEng2KcbKxIzLnsqpeFA7Pz9HbzKGkkP7fHIXM5CQQCwV3Dl/VSridUlKCyVrZavY2dnyMIi8ozkBkhs3HJcNkwUUKk0FMuudLyXVZviJY0zR05yvCu+38rIYq5QCDYRuhRi23YkB9zRB+FwQiiSKvLwVD2ea9en/vJc6U8tdHijpBT56gu6usblPNUK+Gxlmq7pHgHduFwqDCr6ummn/KuFD80esvS5Q8Vl7GUmJD4vFydQCB4oJGb+3Jvj2Ih0gmPVAWYwy6p/66yRSgRZobBmKoBq7yehililOYVhm1w0JXxFk4eH0O9tgcH/s0BlCIjcFJ9DPLKU0HLdhuo1k2RStpPWCAiZyrwpn5bx5YgjwJyr917gUAguHv00hDLVqlxilAns44mQCr65iIeXYpjIe3Q87LnH1NrtIrdhngvQKCCrBaHked8Rbz33dZAFHOBQLBN4FRXZ9oMLdOFrFCTIEkFiUx4eF2v1cqcMFSBkwRL936jkmuFWD0eFWRr2qJstQGwrMjbhhu3ZVGSvUimwFzmYWflu6yXKodOUdho6BVScnSdBVql+XdxHPAAEe0z8y71QBzoAsEDDGIFI/i5cMzUhd0AWVV1FZSZa1xrs4xfvOycXPAMspFpqejhr00s4dB7xzE8tB8/+P4B3rbTibXwWcKyVsoPf6SV8loTzz1fxcguvV1iedBKsYratvliom8k3UCyjvGcpTNCQakXUhMIBFuAXupptk0xtlLVKujcYjKx0UQEzx3i2uWqJBtLeS9c+7M0NSk4JPuFmT0xW9uMp8RjLhAIHhY4j3YSmAJsq8C5c1qQPHwN3/3O40i6JDDWWVGfugEsaiHz0SeAwZrZrq9fRhkF/NixBt7608cIgl34H/7Hl9FsAXsfAYZHjHLtB5gTdwckrDJBR7lgTEJzWEG5vAuret/TU1rJrwCje+yGgRGVlefpJ6MB9QWmVmoN/SQ5eLCMUhTaqeXeM4FA8CAh7flbDNNxYeRLi8DyMrBb81B9AJZr1Ia8RW6d5m1LijmHrqdBXqlC00kcUa/dXahU96BUGsnWD6ISotIgpmeADz98F48/VtLLt7BXc1dCLYasVMiGRq2YEwc7AdfNxRlAWQhOrVkgcMYGq9lviIsXbhMIBPeG3tB1UsrfeWcW8/MJXnhpPw48bvgp5aKaDnHGYYr5y0YrerxGNTbCEhlDvcIcMAnk8Sb+kzxCyH9/7zwncUUCgWAbQRXkWBZAA1OJ/dLFFt5794wmYGr7E2lBcICV3NffAF599QxXTG92TCgTweQEbaw2vLZSwcJ8hMX5MmangX/80RF8fKSB5aVioaSCPM0W2Lz3pWm9UdaC7xCOnwB+8+ocDh1azyyvJiQ1Jf3cHJU10o6db+LVXx3H737zIZrrfo6TULFA8GDCCW8+qRSFNxL8zp2exc9/+iY+/GCeC1yaGhjBhvoZqdWOs5RtZdaLE4VpzWeXNA8Sr5ne5xW91DlEM03dtsQ1FS5SubYWorEecVRQuwlcuQR8ekQLrC23bpld6G4OvbRolPRAc3GI3N0PJsC5mRjnTq3g4vklEw3gnw6BQCC4Bzj6o1Sco0cv4/jx69yqlrzb5ZINVM98HamngAd6Ca2Cbr4mdqZWkvQ3pPoddg/GIRP0xsB7SJF7X/p9f3cQj7lAINhG8CyOvgM5pTD2GDemFrgwRzfWpBlUmJRnL6/g2o0lXLmiX8+RIr6Ib3x9BAM1W4wtNX0tV5aMB7zRJGF3WAuydaxp5fj48Qk8/eyzaHdqGUk7Dze/VC78yYY+OUKn3sFBCbOzHdyYnESrMaTn9ZRH4mnhUAiLCzHGLizqfS2yYJwfnjlY8SkJBA8W/BoT+Sf5O/b+aGpZmO/g/LkZjI6uoNPZY4XG0KPBPB3HkYwTLCntJwwiXLoAnFyZwJMHn8D+fcZ3zWk4yjN48qdW+Ey1wq6VdBpjcV4r5UeXcWFsDAc/9zXjDdfrdWIUCh7lx5QyY/nHxyGksfE+Xb/WxOGPLmqOXMdjj/0LVAe8AxYIBIK7gYumdFykOWdluYu5uS5W1oyCTemFScGoGVhDp1soLbFU4LPEhsC7FmjsiHGk51J7UBBJ87zGLYYo5gKBYJvBiXlOsVUmzCioIe6GTLqxFkSjwNBXu1PWSu4uDiefPDamFe8bePbZ76BSBspWJiUv+/vvXcdA9VEueATs0uNUucJ7s1FFEg9zFWPytlO+eOTyjTLvuCpYRllpt72NiOA77ZIeJ+Tx7Bro6xpKBtDt7Ea71c4K0flHnO+g/+YCgWBn4mZBjmRAjLua3zqDiON63rLMiWgb4tnRIyVGXLPi+mSMS+euI0hGgb+s8biBCnv2G3KIuhE2a+xNJ4/9mubFsbEGjn4yidW1r6FK+ZqqzIXoVIiCEJtXXo9MKD1xZwtYXYlRKYXYNUyGBoUzJxfQ7s7i7/4OuWIuEAgEd4O08AdONIuiYXS6TW5nS1xEPckptceJWJQv7iKGuPtESnJkxJGYpMzX60aZ99N1rOlTi31+U7bcMZON1xvtuAXR7BI/KRAItglcrKUX+uk8zlSgLaRKmyXOAwrCgKsSm4JIJQ7XJJKdme7gxo0YjXVg/KoWDlfMSHMLwKu/fQdvvn0S84uk2EdaYOxybqYK67yDxSUt2E6ZXr9ZFqjKF0eXZFUlb3eiid31+1V6DmFYzqp3Fqyq+aa8fhBU9WEW2xX15XFJORcIHlAkhXeKFfOAFWaqZaGye//WBGAEyYB5iSqup2lFL+VsDBNZnmZtIVNXaZ03NCHoXPW9S96mihZQa8yLpJB3qUJxUEFUyR1DZoyQvU5uhhR6P6H59t23z+HK5SYX2FSoI4mH0GmXC22JBAKBYKtgivNq3kxNSg6liBulOSgo0g7OY07RljduAB8cWseN66a4MG0bhiVP3uvZkKG8t6qQ9rhV4poo5gKBYHsgC9HcmJPpC5VUfTOmYh5UlS0wSjrne2sZs1LZj1L4CHvI//2/fwO/+/0qZvXrSk0v9VGt1A8hIMW+VOJCcDRuGNV57A8/SPGf//4I3v7TOHu+C7Ixc3TIxE1Fmq5NkHeoa77nXE4TSpqTdGordlpYxuZwqTjhMKnNovaL2Zwi0QoEOx15okpWg52LD2Vp4sqGTlJOI6XIOK8Mbs4CmSNd2bBN5pSQ2zuqIA85zxRzm4/ue3lSlZj+5iBFnLatscfprXeATz49x3U7grIJT3eBPJyraXcdBeaDC+ea+OEP38TpkzNc5FKxd6quebFeiA4SCASCu4KTl1TvZyGTG8lntJjOPRvV5KzmUBqisRbj1AngRz/8LcbO6W0oXDIFe92zEHZvp35NDebB1IbMe3Jc2KPL3y1EMRcIBPcfXt5kP3GUVXWVd8hlqc90s7DpQy4rh+Ilh5lcJ693MTsXcn4587QWEBNVtX1+QxZWyTPU6Sr2Ni0vK0xdV1hbrefz8hVnVeJxqdjbm29MYmZqFVUrsNLkqDqxKzTnSo24PCj/0Dg3UwW83eY87hsnBALBTkWukJtiQl5QZL6OMsY95SvMPif2koQqsmXmuUEetunGMAKl7zFXtqaFVdrT2HRV55zySHNlBbMLwPsfzeLMhQm04pDlXsrScb0j1jSnHjs1j5/8/FOOTCJe7HSrWF6itKJh9pjTEnP3jIqwmEAg2FKYGhgORUmKc8Vdq8aCbOneRhzxSJE+S4spe8tJqS5FpNhHXk0Pz11iNfNAlbPMRo58TKOMb3sLDd8tRDEXCATbBMHGJcvjtkq5io2CrpLcA6RMqGbCgmdi/1FYZmhDM12vX03Gmqx5PQr95IXGMsU+qGhIszmE5ZUyh8UT2FlO01BUBb7M61Hlz8sXl7QQmjKZBwpwxdsC7/nQz9PFHYSCmMPyfWE7y4UqrC2x7ALBzoevkANeCA6HU1LLx2aDeKTG1c2VVbKNUq08BTwvtOY653pVL7I/qlDozYV19vKIMxrG+m9c6F5BBS0bWqmenl3H4nIb3cTmkSMP8iGP+JkzU/j9746wYk7cyV53CqVHFVSkvVQGonIdri+wQCAQ3BM87zSHrcPV+1GZ4ZHdGTaUPSeeJBOnOPSd/zO8RAp6lmrDrnCVpwAhdwjFvG8yPA7i+jXgT28Al84vob1ednWBi578e4AUfxMIBNsILjEyLbAckWOMXDGn8MsUfnhmakk0ycI2VVBlzzR/br1BTkikip2uaqdJYDe7XV6u4PSpaVy+PIzPfwGolWwIJ4eXVljxpiJx7WYdnVbNc+6b2NMsfLSHoN3zRIWpFlq1iB2kXF2ewvLLFWBo2OZGFc6DqOUCwYOEgvynF2pvNn1DC2IUiZkoo5gHeSs0n16KBr80T5tJnWHQIcj24VgkS51xsJJkyn9ja7gEc1gQViyvDmiOrGrFvMQFMXkda0+kVJ+FuQTj42tcTJNCR802EXfLIMV+SX++1uigVCnW07jpicnmd+tzKRAIHjJ4vEC8s96wRdtYMVeZUs5clQR5rZ/U66hDjhZql2ZzcxTK3EmCOCzm2kE5mzq5Mss81NwWd+vcVvJX/2US507PofmvbW0hbB1tiWIuEAg+e9xMMuvHZj2mR9+DlG/kZ2X7nqXM9VOs3ZH6IZzmNRFurAemfHPa5Y2pNXxy9DC+8OII9h7Yi8f3smHVVuz0KntSiyFlixpZiy2FssdZbFXA3nnXvtcJtCokwbfMBZqo7/qFscs4+OQgvvWtvYiqvSfENSS62Ym8xaOg33kXoVcg+PPB08Z7M1vOn1vFO29dwvDwY9g7OspROZQy49ZJczbL8sgN+lcCdm0cN3yX5h52jhbi6CFnoMy9TfSXanZwriYp2SQipq6wXC6gmqWCKBpkmuViceSUCqvMpafPAW+/u4xTpyfxyrcOFGgoQZGCVD+OSiE8JRAI+oLSZI4dXcClyyv43MGDSOKy/rTMThOKdqQopCQpm5WZX8K8tSRMVFEYmM9CzVkxt1wz3XtarZInflrTpuXWwHYCWlsFxsdn0Vnv6n2GJrd8CyGh7AKB4LPF7cQx3kIII8GQLJpdV5gjNeGgplUGvNxM8jallli9vCKnUJMSbj3grk8lKb8kWNLS7oRYWokxM9dGq2O35aj6MOtzaZz5kclTh/MUOc3b2gMUteMI0I6Np79tNXSuvpyE3KptTj8EDh06j1OnJvlh4jnAChlRaRZn5QK1Yv2qa5ekzza3wB2tLBAItgrZvWrvv2YjwsKCwtKSsl5rSpcpmSrptoCRyqLgN3rFHVxBIptQk+2L/+qdueJrpr5GiRejmGse01p4GBkDJKvqgbLFjUz/IC5sGSITPo2BEcyJAZVrN1GhUKzDVxDqj85fBI5+ehUTky2UKo/y+A4kBLe6eb0QUui7sZuri27yQkkLS9pnSXzzxU3OutTsEAi2NW4hzLh2Z+QtP3HiCt556yyuXKHP65qj6lyY9/inwBuvT2J9PS/2Ru3RCC5SiZVspWyqYpU7Urz2B+D//D8+0eMtGRkvcDyde9tjTV5xAit3UjefCo9TmOAWQDzmAsF9wVYJCNvcrXA7h7nZOvpzanu2vAosLhsyLJcHTR43ShyWTooyV9HsKdLhlPDcww3j0SZi7ToFuyeXiJcytwhqx1UWGBnM3sU8pNTGvhc9SPZrW4xOhTUWWNs0R73PjhY+F5a0MN4i48GAyWlvVfX8q+ZB4I1T+FU5RCu14VgpGx7cw8LltivrWc+3te6te8atfsBtfv0JBNsN3i2VpBXNSQPcu5y/ov7imtfIeFgug9tD5iHsVnm3wmlq0yZL7GCPsqELXAhrSLT1LwIuXlzR40RsiDTGxZSNjy4tyIv/NIq5FmpdrU0aj3RoE0EUcs4l7LgRzSOocZs1quTe1sekoj2IylVcuw4cPtrB6N4Uz3++jEol5yqOSNLrr6ya95Ta4x32JidPFZhp47q9vFVg6L4jCwSC+4hNRQ3DFLmh0chv7VYZjUbNtDnT8hQV4m02gbELmms+Oo+BgYF8BL8gJpA5OwwTlHg8UuRXlgN02tVCRws/ysnxqdmaONdGMWVzj4FCgc+7gyjmAoFge8EJoprjzl9IcfLUPAaGRpnvSuX9LIiG4QivENvcoNxznHBsZK/h0oQiUUVNYzlNrRTq1Fr+DC60M+IwTbKiUg048mZzgRA3N960x1ut8pZEsLmWSVrDzAxw9Srw6GPUXg349NgUxq8s4KknD9r+mwF73/tRuAs+NQp3yp4r93mamRLydTYEyips/rAT2VQguC/IlGW+P1XGRSbapsR8RmGVk5MUkmk6PbCgqGJvEMUGRlqPChF1O1EWqkm56i7/3PEb19ZITJG5uFthr7wxMKbwVVaOQrKRSEYYJiHTGCVJ6KW/lbI1CpCLHKZTBYWAzkxT/Y1azkxBpBXsGivZU/q7N978FC+8uBvPPPvMBvpZWgJOnbqMVrOLF198Do8cALe1NLPwkUcD5J/3zYXa5DMhPoFgR8PJWDBtIcEh5hTVE2mlWnPiOvHJGuq1YbN+aqJ/nPODoy+TlFMYUy/wyDhvQqQICmKTbxDIchJ5HkmWh7PVcTiimAsEgm0JElAvXZrHoffP49nnRzE0QqHmdUxcJeJNMDAYMk8aP3KaK8hZYKOyeUEmDDMKQ63YV2w/3iDzmDs4xZyEVhXUMTOr32vhd3kBGfPmNZRMNcf5H+sAACAASURBVONMWc8CLW31Yi2UUvug8XHg448v41997ymtpCf45OgVXL68guef+5Kt4E7KdrhBXszp3h1NXpGZBOEwpBDXENaPtsVnXiAQ/DlgvC157QvKLydD4JXLwJ/eXMfc3Dp7p7k4HHOO2S7U/EJ5lpfGqHXjDaytJcxxSYC8ArsVRMkYScr6slbiT3xKCvQ69o3meZF5AU30uMxpsJDDQMkIcP6cGfOxx2DnGjJXUj7nmdPAkY/WsLJqeqKTwJso6oBhDJrkDad80NF9A1mhOd9uSBFRR46cxdTUHHbvOYi9+8ssnCrvOMxO+5/H7OMN4Ua32LDwQ9zZJgKB4P7BRPsYFdakDwa26BuFmVes4dAZQpOcczgtkgyeiXWiwCrvYK7jau6qKH3lnvLciZPmzXu3XDMXxVwgENx/9BGoTMhShHY75LBvWmamG/jpTxewurKMr379SRMSyaSY55i7yh2mkjoyT1KghlAKqyyQKvYCRSYk1A+L5JUjLQgrnDlDSrmWfrsrOPjUPpNXjh5S7iFwnndC+6L+lmXOeTp3bgpf+vJTmJtN9NLhwiFRqWRzR11SuhmHqhlzPif10+QVEqQ2UJ0UcvKQLS8nWnANUK2RgM5HtsFnnp1TgUCwA+Du3JAV3bOae37+8z9gZb3DBY0U1zGy5kZF4etlDr389BjwTz/9Heq7DxjlPbRhml7UNgmpVKBo/Arwkx+f1WNP4rlnvmzyvv3Ka8oMnhePC2B6AUfsaf/gvRWUojk2Mn7uIAm3VECpzN+R0v7aa++j3WlnxlCaRtxNOY2Hxg6jAf15zeTPJ7Yhpm2IQce4vBzj8uUZtFpBoZhSr37sDi9Fzu3Z4fZGCW2qXG+qwQsEgm2KzOZoI3qcYs2cQ0Ur7ffKb7Vr5UP6u9o0+entdomNoGb1IFe8U+Moyc2TJt7IGQh5zYxeg2zbfIJhJn/eC6T4m0AguP9wzOf/IcU8DvRitNYooJDNMt58/ShOn5zm/POKLbzJ3htm19B4iPTLrpb+SGgk5XhuFlicTznccn7W5K6nScmGwSvPE06IWDmm0PPJa8uYnmpYQTHyCDsPKOdtOVQqZUGTitEZl1GZV0u6A6C25eTlUmqX/nKQuTvPfzfkTq0/3n13GmfOtrC07PYQZIYDUso/fL+J//1/+0ccPzbHHjNX0sTNq/BIUD2LQCDYprDGQZvWQnxTLu3RfwcyYdNb1RQg0i9rVWB46HHUKiMZpzhegnnJBsXItnyYnWmhTW0es3DQ2HiOendh02yIx5TNwZyZbmJmqs08RB50Usq1aq7nafLco3CX5r8BN0X+jjiPjoV4Ngyo3aRJLqec8rk5w2mUMsQKejCk1xm0RtN8LszlXhR/m/LXu7ly7+itGJLvbbwBfjm5m1gvxbApEGw/ON9Lj1ExTkzbR4LxhgcZORD/Ecf86P8DfvaTo5xOOFAv2029iMXUWjfdsGkuW1FqJTlsXFtbFZaZH2Nb7yObyBbwhnjMBQLBNoHn5rEhSSSkRWGdFXDyjpdLI5p1V7VgOGjzHGEFV9cEPO/ZGwQlJtEL54GTJ4Ejhy+hXk1xon4AlVoDL7y4J8ulLM4h5O248qYWNkuqxoKpsvlMLsyc6wFb5Zry1yNN1GQ8KEUkhNb0Z1WeWxgOGgGZN6QiT0m2J1K8SWhtt03xkV/+6m28+OLz+MFffxH7doWwziZeSIBdmKc2a000m2VTwA75QkLqGhXLWzIf7N8PW4EeImQKBDsAqVdMSDFXtLOoH5+n/AgZWo+ic5yhz93sGTex+a5kjIRxVfPmQOb1IYOiq+iew5oeOf/dxqWnZMxUTMJOCOVc9sR4u2npdkt6CTNCsjWPvWFDjlKK2TsO/MP/ewjPPfsFfPOVPcyTtD151B33O05rto2hgjzvHC1QNjNcXAOm9Dhk9Ny710Qa3bqfsGPLBLlaLxAIdhLSPq8KaYnciSLxCvaGzFHXrwPTU23NF+WsDodtR2FhPebpRrYlTuq0O8xfyir7iMosYwVewOZWQBRzgWAr4emWt4cNgXpbN5ftgDtSCl3So/3DAmBNK61lrGshrFYnAbCuiXBIK6XGi8O74H2oPEfSxjuRR4eU5Okp4NSJJVybSFAONbF2Z/DEkyFe+uJGgbfwjgc0eUwudCl3PhtvS2KtpUagrLIHiPJDG2ulzDDgK+Lg6qB56BTSMh8LKd1UXOnaVcr/1OJ40zws3COD9kmhqok+tnY75arK/U4rFYw69skZjjT4q7/+PEZGYHq09z1AgUDwmUMVXxYirTOlO0uE8b71W6CZ926NFLkwye0etbToeo275mFZFWLjXrKKO/U088W+3Fuu0nz0IowW3+m22UOvMpo2oZwkqFKaTUdrznE3F4bN/hLvkWjCx2meFK5/5Mhl/e5RvPCFPWx4VRxCatKPKMzeHSF544ljqV7H5PUljOzZhZde1K9vAJ8cGdeK+RD+5m92o5JnBW2Y/l1xnvCkQLDtYP0vzGtZzfQ+chwbHeE41vAO1e9od6g9rrKNZ4vbcRqPl1qYj2X+xl3F0ZcUFbm+HnOFytBXzLcIopgLBJ8xNtdL1SavHjDl/HbhH7r19pCnZHkxxulTwPBuYG1VC25pPetBrrKQzHxbF+UUBBETKHmjV1fq6LRGtV48iua6Vm5b1pscmC3ytEwzqPM+dWPl1UNS3u9kpD0K6SShVKUlxJ2IlfLXfreKqRtNPPec8eKkacc7psAItJmrm8JBK+Yl56aP6rH2mwIl+rPldfBc9+62zwtl8u6dYu4vhKkbXY4MiLsR/sW3P49du+yuN3iSbkNavd3LUARYgeDO4N2Pm2WaKL8QG9/kRe9zPgYJnbFtAdnvtlXI62hEKIp9ce6eznbkhnb7zkfkPE43jdRUcHfti2Lnoco83vZf6hsgTIEmUuYb61U0G8NslKRweJOOZMcnD33bpBMND5ltL4zN4f33z+CJJ5/EU889gelp4MMPr/I4X3z5G3j6KaBa3eR83qVyXjCi3PnmAoFgi5HLO0YgSjO5sUee5mggF0WTy3QcPUT1gjIxzLKdssZB37rHyr/dG6VSasX83LlxXLp8UPPPEnOg6a7jTW4LiEIUc4HgfiA1FjzWA/M6FRbOt+CrXKrnL3D7mtN9xt0QVWryCkmAm56OcOH9UwhKB7GymrJ3OiqlrHQ7IS4LPXK9d2EEVlKMOQeSJb+qfj+gtwv0+5T77poKwcXib1nxo9zcav6kvse8wiGhC3PA0oIRMtutiMPmf/az32NgYK8J5AwLh2T35f2yKmADQolCNcnAQAp+HPG1sbQKfPLJPGZn5vDtv3ieQzbZO9XtbGgH54Izu1ohb7WoCnPE/YB7L5cU/aME+kZ69HngbbjmRFoVCO4IdMskLpIasEUqU3tf+vneHv9br08+RlAwSiau1Lm3JVxvchQ97H4lYQ75THM+Uv7+kBc+IuGzXCbvkJsnrFAcZppwJtTCectV9lpl81cZd5XLdQ4Hdbnx3TjhiCAai1JyLoxR+tEH+MEP/gKPHgAWFxWujq+iWu+g3TQTXlkp4dSpGfzyV3P4n/+nUewrWc7dlJf856gXdeA9i31biEAg+DPhJj6pQmcaz4iorLOkdzPlKdSGe3IDIslYCrWs7q5momw9Tj1UKhP9MslK/6mUqMZRgKNHz2FpeVlzVUsLZCobF271LZCJpPibQLDVsDdmkmRBhchVJ/M1eQkWF0zv106ruHlu2QMeOpu9MsJkswNMzQAnTlKRoAHML1S0gp5wWHuc2H7eNr+RiVmfa5V5a/Jwyjg25zqOzeC8imNkE4nJoZ8cApqa8ExFnvaSE9Ks1g8raLpCH0kN66tl/Kf/OIEf/+g8Ll5YRqVs27OpYVbaXd9MFn7hrgLjQaI5uYcMi4jOsktRAlGZjQ6Uh/nRR2fxq1+9heuTZj5cWI7aJtFMQ2NZpbPhjxdGWuAt1dmwEUVFDxL1+SzGaPV53/N7FJV1dXM3n2Bn4Q60j9TeI+71puP1XlMPPYong24hasG4uqTv27ZRgPOQ77zKWapcrk5+q2WCqb0PmZLMB95taXgo9dbnSB3eARXLiLNxs3ZAuWXSVHX35s3KuaLaGVrxDlTxJyaB13nug9B0rkiRKe9JQVBVWegOPw2tR4vXJToOQySWoynU/fz5Zc19H+LahIkaCtQezWf7UAp368UUA222Krh8tYl3D53D9IwpDHdrXrI79H4eSpUivnXb+8XmNoVc54L7iQfx2tsgW+T9brySlizvUJSQIy6jcOdrqMBL+/EcEeSooW4ScVxhmavEEY3VbNeBcq4TeA4ew8Ps20nJIVPTY+7Schb1SS9lBlLGFmnU4jEXCD4j+B4OHySsUC7yB+9fwPSNBr7/gy/hc0963tVMEHN3fJBtVxxS3VoG2TbY7Cmy8QiISBe00HroQ+DV35zD5PVhTbyjSLTCm3RSGxrezb08Rvs1Z8vzmMMqwc4k4rzjsX7RTQImdyooZHpXOqUjYAEzTnq86b6XmT+gIkrDWJzXRB2HWsAe4rB7U729qudbyfr1ur/mDARsvSXFn5CoPufF5TillBNFfYKDTFDMlHuYiIvFpin2VtZMvncPbCsi8pibNkUUZk9F5WjDWg3Gi17YZY+JtxCTdcufSrCTcYeCnVL5JaC8WyFJjFFp8y4xD5lxcQOK9xgZZH/0o1N48QsvceueqFzOhU5V9JgXVeTAermtkTATYvtYyZw33SromfbM7+LC6s5jbrbZ3N2svERKw6mpUaRTtw/jos9y3dOiML3Bmme/TwtzNfU34pRSkIawtlYxRseM0wdBBTRd+GiaDmqOG0KjWUGrY6iTuJKqtlPeeuAZKHJfefH4Wg3g1786zrU+vvSVz+GLXxpgg6ZTB26Oh/F6Ftw77vG68onhgb4EHdMo+NGGpjjv5qEtQUAGwzSnPWf2pLTwoMJFMEluovpDVHSSA2aYV/1oIvoTwhWHYztAQoo4tX3cpccmPrS90gvOC7e/u/9hRDEXCD4jmHCaHKkVCUhYIGXpwvkZbtvwyje/lK3jxLJcBMotf4HPQztO1u0/yc2ctS2qoDnVwJWJaaw1hrTMZ0rxJrbv+K1GNQpD17wzjm7jZ9a/SRBSMbkEYxe08FajNmWGeE0IZFkTcCnj1iQ1sY1d3m/shcyTqbWsib5qehehmvXvJeFaq8VmDrxvz22t9A6DJn8eUxshvW6sB02cYEoefJV4xgASVCPrGTMLCa1cyV0LopfPASdPXMCjjzyJ73+vZFu32eMMwD3T33l7Vg/VxMsvP4Enn/FPmlMG/IdIvzZCIfIr0om5Emy143G3vJGayIss7NctD6IHZyvglGhCYu7JIx+fRbX2kjG4aS2QOQA5t+WKeJid1xRlftm1LR6Z06xlMrVebXiKqK+cE6dkhkabXGmGDRFGprc4eaXbLcWhngZmY+WeQWTApGKYbtw0zj3ucEbMwEvfUcwtud1Ame2t0JtY73y+fWrnmo9HfJwVk4Ph4MyTz6c15IUK2pnK7sDkhBa4byzh8Ud34Zln8kuz+MjML366lk+fnkC3HeGRAyP44ssDmXE89S7sB14HEmxvPHT8ajrf+Ip5YmtUmPTPsCitWOMwLXGce9MNjCxo+DHE1NQqPjg0ys6KtYaVqWgsRYXhShyxSca9ONmtxy9bhwfJX1W9jpbtAv03bbDSXpCWtoggRDEXCP4MyAyc1utNnszV1RAry4HJT3HCyAavOLinNVXs5pYwgScD7yBJYbNnim/4dUYJ1o8jIklNiKqqSbCul4ohwDzBsTCOsnngRYdMnAt99nP6hKqUL6+k+PRYjPGrbXTJ227DxKmSeqttvNDNdaChz3t9wFhUvWaVUEydWinnQnRGaM33qx8kKjZKOQmL+r9p6qO+qH/3OORQ+W4Kq5wnrJzzA4bWD2hrs62Ri0Ou/OnOT5yayuykrNN1c+niMt59+ww+/zzwne8859mXjZGAvEEfHDqvz8069o4+qhVzmwZQEFV90ZXOUNdTu1XP4v2S/uaCnY1b/JaOaij0mqrSXrmyiieeGMSo5qRS5c80x52EXsJzJzA1yiPVylheNR0TYjKiKWQhlzknGsXcBdW4yB4yyLmImS4/O+hujTfeqtmSMhc6/sxastFXmmirlSH23F8ZB65NzmveqPZM3oXGhznPscHRKOb5fgJeh9btWrnYtZ10x5PC97qrrImGMx7AGrOdsJuieHGlbp/Z4dm+w6SYh8ZgeebMMj79+AReeeU5rZg/wusGcFFTCSvloXedk9DdXC9xO7h2y+fx/PhFORfcVzxkSnl+tznVW2XcQZxCLRODKHdYOMXctYftcM6eF32kuvw9hbKT92PqxgoW5ya1PDaPl760Dx2nmOt9tLsBLlwkLqTuOCnmtSxIi5lJVa+nZUaUWAbjYpZWzttKiGIuEGwVUhvW2VNAxqYAmjYxlMu2aJQ+qsAdhO2sWE2vVZ9AwtvRo9ewMNfEd777rFauUGwJ84AoRxuOnfO/9YkJq1pJJw9OmElFKXuXkrwzWmHJK+mx8FpYR4t1SVcTdwXrjQSrqyuYmJzDwWdcn3LaagDNRoQTx83vVq628PwLFRN67hUFUS5P3ettTkozKdwU4pR4wm+rXcV775laAgsL+pto0CjYLNzW9VLzjkUhcQ8U+5sGNpQqCxlVZZTLio00STKgBf26XnLPEoXqp0nMwnGZq9JHPNcsN98758YzpDxR14Rn+QKoK+JkIgX8ytB39BMLtjs2U8rJcGW1K4r0+fjja/jdb9/Fv/3bv8M3vmmKDFKYXxjebKyH/GKhGz40blijrEZotLRox217FOeJGzFU9XiNc6MiKfTLK8ZIGyd1a/RzCm3umWaF2Sm7MMKmIs+zU64tN/E9HkSoVEdYKX/nnUV88sllrdB+y45DETiRHj/IWgsZr5KbkxWcs5+WepSnmJkBZmfJqElGyJI3F8Xc6I4v83Y55Rxw0fBIs/0EhWOJHe8j9/hnvYdhWqvNzazh7NkJPHnwUe6aEVop13nhnZqdTZvPW9mMoZ8Njs/Ru55A8OfG7SjkD+RFmjGU5SsTrUOgO5XaNpbLQ5pf5grh6k727mqyTD2PuYvs4ajGsMSdbZrNgFMjY+5y4/iojDX9+au/TbC4uKD3s4hq9SCOnyxxPnqs+aGTBFYmMkWK+snt9/qDiGIuEGwBWGmy/Vlpoff1AU0eNePhqFbAXok//n4Gb705hh9879uaDKgH1nwmeNjOXQXPMRX9euftE5ieXsPLX3wWu0f0TfsAkbDv/3bkxgSZWEEsMUJhZuhgIUqrrkHukTYcqWwoU8Btd0iXTVyYkbWUlqisJlk4ORqyxHlCUYlIuYS5eRNi2mqSZDiMd96dQqe9js+/WMbnX3qcLbQoVByGmTEpxzGJwgEV6DTzCUos1JI3rFqnzfbgj6+PodvWSn9zDY8c2MtzrZDDHbtYeI309RFSjmQYGo87PAOAlRTpJRkIqtVdrCBRGzhS2qNoWB9LPfNMkdBPTyiargl/p+OO8sJd8P/miQGJfcIEQTEL09U2KBiDXKuRNE+xEOxgbPob5ko5gZRDKpR19coK1lYivmcSy3W+d1TgwRoF/ZPMxjfLWb5fKFXK8xanJk+SNgjIg9PEe+8dQr02gJdf+iK+/vUBVjq7STu7H0lR7yQdo+Da4pbELyqwVYjDCkfhJNauGJb053qQpSXqEd7A1ExsPfI0n5BTiJQmv4Sib7odhGlsPUuwc8u9UiQ4L6+08R/+Q5MLLM0vLmLPaN0aKyk0NOZrJbB2Vpde5KKF2JuvcsOE4VK9XWLWp9dxyiZZdLKaGxRxZsLz3bVHoflRMKR5OSrUQnCKedpHjOaUJWXbKHnr9yrxcnkL7gu8Cy91tRsDPJAXZJqxoZNOIrjccno3vag/IXlOyz3lctWuB06tcRHsURTm97538xqZigyGZc0cA5pjGvp9KTfGaTkqSQdx5uw00i4p8Q3NJdfw+ONP4bvfJcWcojit2qwswX4GEMVcILhHuMc8CaaklB85fIVDZb7xrZfx9HN54TFSpJZXKtx/tcPVX4e5CBkVrXFU5LrouNudBOFGo4zmeidrr1bYae/rHUzUTghqJibsmxbjtXHtyuxKLNYmuQBrdVdlhVAKf+SibqpihFNbSb0bd/VvZPK5zWkKmYTn51t49VWTa3htYlULdANa4dDjpDVN9GVOIaeQ9qxIkoUR3hL9G3Y57F6FTmCt6Pcl3o5+51a7grX1CrqtKsdaLq0kOH5CXw96gPGr66jp58J7h0bx9FM0qi0mkplh83ZGXEheUQpEjF/84qh+KH2VKwlTMZJuHGYe9dS/glJznCY/FNnYJFQjNdZoFua75qFFTr2lOaqIfBEjI0N46ql9nIdFx6HlclbEBsngVOVhd/LlJrglfFOZNUrxvVTR1+EIWvqeOPxBgqW1c/jL77yAzx2EjSzpHUfd5N3DCZ+3fAHPfW6WJPN+hxwwVMXKQheN9a7mlgFOIaDPSfENEi/3kpVvu6PAGOaaawFXLW80U1a42WgHet/l1B3it6bmp1ZrgHMuqSPGOnGeIsW9xvd6UNI3fdAthJoXI8Mijty5dq2p51XXinjEHndlg52CsMJ8Tkq18fSHxiOOvHaG60uce9JDvqZImef6GyizkYHSjmJbjCmk+iOF5Bu6CPU5oBogXRveCsOsNGbX43GVzd3V8giz44O3jh9XtPGXlCta8BkhtaHa9oIMbfkHlf2HB+oSTLP/XV55wLEwdHirWv6YGAd+8+vT+PrXXmSPd4kEERuFZFo/+mOpnnHdX2XvdapbRNGQNRPtpSjV0HjSoeVCSo9JtNDTaNa4faOJcow4AskMY7zmXuOeLYMo5gLBFoE9FlpYGLu0gLNnruPgM1oxf95UfmzoG3ttTa+ghjjn2AgeRvAyrR7Mfd5smFBFuuX37nYCEIUpt/sr5f7OtzE5+8+QXmSGDbuMXwPefUcrq+9Ocns09mTYQRQLqpRP2VNZGEYoJW/P+Pga/vSn3ZibCRCkjrT1QoJiOcweakYgDNBohDhxvMPt7dpkFUgH9Hcl9r4Htuic8ZKXsn05BThOjcjnDC/kyaYCIUTqROSdhDxFHQ7j5OMIBrG+pvDpsTYuj4dYXGxhfXEFj+8fxSP7qIbAIDh/3fXVBeD8184zvaaF7A8/GMMr3/gqG24oTDVrS5Q9sa2gz8cZw6/2nNizzUVS9PmanwdOnb6Bx584gMcOULi9PvfvncUjj4xi//59GKwDK9S+6FyKj48cx7e//WU8/wWgGiEzBmzjS09w1zBqiy2BwYuJwKBXFTZkTVybw8TkVbzw4hfw2BPqlv6D7BJ90KF633hhlQpZATbTNzcw3MdRU4kXYk3CqSlaRMol3//dErpamCSjX2yfG93uMKjO5fQNY2BrNoeMQbBjnikLCynOnBzH7MxBTN2gFg1VlMs2xFsrufzcSo0S3tKK9dhF4Gf/RMa5tua0Ec1pES6cB2anW3jssWoWGcHCLYK8GBznXaaag0M2FHB3CGu9o/kTz46NzeHUqX0YHQXzLHewgFXMEwq3LxXtzGTwDIyBmo3Uzb1sYJibM8XqUozwfuOk5/HIQrPhRTKWk7GBHF27hn0zk4F5Frv0o1w18H815f2f70WYT3Av6L12+khH1iHhIuj4owA9F/uDgTT1vNsw8pULX2/oZ82lC8Drf5zA735zBqMjL3JqYBRUcnlOeWHl9kOPdTOjZ8LrKVvYt8we89Dya5qQ7BWa4h8c2lPmKu5OcVdZ9V9k577wTCsSxl1DFHOBYAvgHtEkIKysljC3ELKSSDlv5y/EGL+yiFI0yn1gE7LEwSjmWoJhD8KVKyYclJSkyet6nG6C73/f5teR9R/N/jvc4fCfL6H9e3UcOPTeIo4cvqTP09P8TU62WaZjYQxOBYiMUePMmRlMTCT6d4ixOOeEQlqzzEpv6hRtWM+0/ryxmhiXDFOiYqXcuOlzo0Bqc6+zfcJ2vIwUW1TpN1xdI+NACeUwrxhq2gpRdbkqSHVJtba+MNnAwg1y+ejfttPUx9zUik7VKOZpyfZKt6SviuoOrTc7t85GAO5rzsJsnotppGaviJSKoXwfkMpVd/KC39DX26uvHsNf/dUBjO4x5/DixSUtBJfZm0ZYXQWOH7+BV399GPv3vYgnny6hXtPbPwDXoKAXxeBdU+U/L6DFFbWTiD2Wa2sRlhYjfU2qvAjPzUa2BsiH7bJxuc35e3NPm/swyIySzCiZwEd9vrvZ/cpIqvqmqzHPUOQVCYxJMoJmo4OPDxtP9JqWYp+mPO858zxaXglx/NMpzYsxmuttDO4exrrmw/kF4qqAeZP3ofmp061oxXwJ5y6YWhVRaVBzaYrf/17hyuXrGN39lH6OGU7lCsmWm82UbbiEVvBjesZR7maibIsizSErKa5NXsH+A/vwve/RNgNwVdqNwacM14Ei59kSV0e+fMUUp5ucDDWnN/DaH/Q5WKHWcylcEaYs2sCePcoXJ2F7YkI/gy9OIaoofPsv95voA+V5y5XNf4fqyV+/xXWqtkgKFzy82FSOs18oGykHcPQHXfOViml7qh5E21Ca35P+gS0tavnjKPDrX5zG+HiCtRUTRRCQ4c4KMy7ahaHyYnFGdsxrEiV2A1Ncs8TRQmToW1g0xj5Tb4I4JWTHTKR5kaN2rGKuetzjzN3iMRcI7hG3cxPdJtkVWjXAds4CWdhG+HvKB798aQ4nToxj72iKJx7fqwWQ0AixHMoXcoG3Qx/M4ODBfVhZaeHcuTNakVzBt//Fd+08ijWy7+nY7jOJF31HBr54M7NkBKn5OVJi9+tPhtDfU5EWtmXxrGQiFqZuNHGlpYXI0Udx9BOz+dQN+juYWWA3TCAMMo900nWCWxntdsAPXIjvGwAAIABJREFUBRKC291RttxSKw3zO5tq7eR5uq7Hf/MtoFan9msBStVSFmIV6ovA6Pkhh4rHqQmhZzmWjDdRopeqEdJJyaawykw4DzmPPBfWYS28Nd4vCZkqMGb1vF96foZNEakky9vkz1JzXfLDPjHGoI+PXMHXv2bOBUVwtNt1LirXsW1D6PgvX17H2npNf1diYbvf7yfYQSi4Jv2Pcs3IBBUGtr2VLXCov+/qC7pLocVBBam+FuNsXRTSqV3hS1XcTX+BMu2Z0Ha8oO7g2eHfF6ZNGbIe34qNhLli7t/f/slSVqFPbTqOMRTWMTMFHDtmenUjHdUC5Tpef31WK9o3MDTcxZ7RUZw9W2Ohs1zeoxXpeVsEssT376lTWthdIa5t4JVvwpXP0Iq95jQqLkfdIzTBtDttXD4/jcvnZjVpLOCrX/lC1pKIwj3TZJC5IE5MmHmaFcWk0WJO8+naeiGtrsLViVmcPTOPb76yR28/whE7JGRT3YK11WF9joayc0dLrJV1itY5rrn19bdWcPzEHFqNKVy8tB8DtSpm55f0ejUEUd1GQNFS46illPqda34cG0vw+huHMTBcwVe//tfM0X6ounmGk9e9Yrez+47NvCJ9OPWqyWst6gsFX5lAcAcouIZ7Lqx0w3d0f03r5/QHH57Gs8+9gKefUhgaKHrSdzQ8o65xmHADSJbJ6NlCjoGJ8S7OnLqB+sAjRu6hL+zBB46TssWks7ibmXgqU/phNXR2YJQwO6Pl70Pgv4uLlGOa5+kpLReG+sYnB5tJlSw0R0MmbW3xbyCKuUDQDzfRNnwCyctUGNANHEU1rdCUWOFpscNDCxskLMRlO2bJKkkRe8/JQ3nq1JQmj70olStaIBjRAlGHQ/fSjLStIlrkhI0662a43+TtzbWvck555evA736zin/62TQ+PkzK615Wpv3nlW+tdIToiLzZMsJUGI1AtUKsrJTxxh8bnOfYophyDOaVzR0ytwmy4miO3MmievlKC1M/a+HVX2uxs1TGsZN6nktaqF0FkzptR5Zs+oxaIKlwHd1OWT9MbEhmYIqppfoAUyp+RITf9ScQFBRxatdGOeVJFpppCta5AzYeHZpgaNah50eoZ6qXZtsoTq6nMXnCaP3YmtZje+zkLSOBdaBi2u+ZYin7+DhcKkWsH2RJUuPQWIoEeO21BD/+8Z8wsmuYDQKB58TvNdzn4qp/p4gQu63QxzqW5fbCKoH0IjDpGKnVtagQF7X3okgJswToqJALH3KNBRvlEdjXFHFB15gxINmomLTX2ZjCK6qQf+F2ej+wVR6Q1BgL6fg51aVh0m3IsBZktgcTm8p3dZgXLVLWj648/uMzGA5wlMs8RQPpE9lqlvW5rmSdJRrrq/jowwl87ZXn8djjxiBI+ZRReVDfzwEvx47N4sTJBgYGW1a5tznbrFxXoKKyCbcnATeq8myIDCjyiNp30nFUa0pzxiC3z6P2kl0ORTcF63hA4qUoYcGaKC8NIs4xJ8GXvO5RuA/XJoBf/LMxxr719lF869ufMy1BreycBgMspU7qfYxPdrG8Utf8M4BrU/qa6zY4/WhwsMZ1NjjkPTZRAJ1uNSta2I0Dfe4rKHcrmfGyw0wc8PVoPqvo9cw5dJFb4+PAP/w/f8CjB4bw3/2338bnnuh3cXjufaE3wZ2gV5YjFIw+yC4vDuWeWMPf/+h1/M2/3Yvd+/cZxTzjkN4EDWy4TLclPAOwr5w7Q0Vkv6PIwGo10ste/drc63SvUr9y5gojBGbRN0QaYVBnjqViv93OkDGKsoHT7IiUbhXWsTAf43e/1TKXfoi1uF1iKTuxSRLzQjuMWDlPkaUF2mdX75NrKyCKueABxSa3ip/EsmGdzdmrn5c3q6Rrt3SvSRC4enVBK3NjeObZZ7G+Rt5YrWBqgcSE0dkWW8oUoSCFqdWqaoFCsdJDlbrTdD33xNukokx29TWh2yXffh6qm2ILqSbTz5T/vPH2wBo3t8BYX61gdibF8jIV9dhdIL1+v1xqh02tx9hUFq9x4Z8kHtKCZCVvXab6HNUtDpMEum63hNXVtiblFn6hFfSuFmxXVkibrRV+j5g0lZjyy6ucv5QbUfI6yxv3Z1pvJNab1o0TUzU0e9gEuUrrP7RVXuyNc+H1hUN5o8oZKvSAxkgBrkBKFUvpuU2R6e++t46Z6Um8/NJzePZpJ8yX8fHHMQ48Gtp+7vrc62uW5kUGIsprX1wMMTQ40PdecH83eEY3/QUFny1udf96bt0e5w0V/Try0TVcG1/Uyt0XcfAZu4VV3rsIPeWcuhFEHEVy9BhQrwOf+5wJtzx8eAnHj5/Bd7/7F/jCF4BaaAxHxWvZ7bXXE+ESKe/DNXOv1NdzI9D9RF0fjh7tYmEhwLPPBVoxHTEh4dYr7nZKinmYFVXsU+aeObRijGix3TYtZ1wQaM4kA3CrucrF+ZyBz4R72967SWT6dbepsFqVK7LT72XSViqmi0OWPuPakQ1z24jTp1fx1luDnJNOCv3cXIK33zLH12pbRZ73R1blDq/HRZNgq7zzEtlTU8M779zQ81To6Lmsru7S52qvqQkCa9jplLCwosfXc1xr2Zx0VWNjEbVmC4I1fQyaI6M6K+V/eA14482T+hmynhWdM8+Fqj5HVcOpgTm3/lWXKqrGPMAGh5WW8Y5T2PCNST1rFXONmI3YeG3e66UjDPmQwzzQCx+xwa5EBtIBLDbqWGkPc99tt7qhm17zOPp6QG7zqfBnh/9McB5tum+pLBNFC5AMYpwIZCQsZUebwIsPJOeHtfGmSRkrywkOf2TqSzSoAO8K9SW3chp1crDcmHRDdNv23HmpizY8kdcxRks4t3k+YWdA3HAw9/bsEsVc8HDBSZd36M0rbGE3CbzP3SgmX08T6GKCT49fxfjVZ7VwUdH3ct20qYEhnrx3qxEQ4jT1esRWTGVvOGu+IYNMxcmZqM8sb3IAd4R+fu27RFa95CYTUbAejxSdbsK5iU6wKlJcxEqpy9j07RSukm9iwykL1ck3Qz/+9N8nJpSXczv165mra4a8w2o+tEKf41PZoRfO44bDT7kAID98YlM5PmtPpsy1YjPZs+qf9D50Bg6yBcQ1zM22MT8LbqVCrYLIkkz5UuRVW1upoVaPzINN7+fsmSlcvHgZQwNP4qmDJVbeG1pQ//DwWTxx8CU8+yy4SF2c5P3VKRyVQ/D9vC3vFPqnIT+t/rkQkXNbw/54pCh2tYI2dn4Wx49dwaOPPY8nny5n7SDZhgYySEXuCgcpbi19rZ34tIPV5Xm88sojfA1dvpjg0LsTePbpv+DChuv6lqmWTQ/a3FtM6GVSN+7OvWYyTkrI2Agc/hB47Y/j+p4cxcDALv3NPlNwiKk95m4RJjXFS6lJXZ0LeEZFkzSQ2ZfTIuMYprDc5xtc0sDeu6RkOz8UOLz9rTfB7SCptofS3MGe8nxAi7J+to1g4toqTp4cxOeeBHYNUWE5hanra2zAJG9ToEyf9CS1yQ2ah52hwYi4FEJG1U3LvM/5uQYW5ltaER5GpUYG6eFMN6Frbnkpxe9+C1wap3DWkCfqjLGmWl4FVEGDIntIqSbj0MlTN1CNyqYivfI7noSZog43hv1bKu/F5SsTeP/9Dp743OP4ylfMHCi0n/ocZ5djxufe9XlzXUggKGKzC0QVvye+pega8pYvrxkFlSJDuMiiFanIQMd+HrUJX/YYXbcd+t073PrQdFQ4emwF8ws1VIK8W43rSc6LLVeftbB1fJjWsbgQ4N23SW5pIyrrB1QyhOlZckKU8vL2vY8cXx7k70Lu/EDnngvAwXT9cUp71qdyiyGKueAhRNrzV2109/W52ehjVwmXblISBJqWGMlbaSpyk5dyWCtYA1hda3GOH3stVJ29BZmXPduXVcyRev1hSagw1cDJ2xAnTjXzJuLmn1nn7BebJhzdjZC7FWKG3b6nj6/7zudFbi/WTW0I5cZ+smZGptCPE/PcHrLCHvw6V8wLe+wlXuD2TkuWq0Be/OqGB2hhHBuD6ZTSWw+f8sMl5lxMSm1IsdpoYHW9zBWElQ1lzeRz+5MH9lgibtEX4fKlMa1IjfLn1fJutJN19vIcehcYv9zA088MZWHrS0sBe+7W102+PfdCjiuYvDKLK1eBRx4lgbSK61OrmJo2ipQ5vyXr8fIMIZuchvyK7DkD92ZIFmwl+tzaia2t2NTX3/IieVbLfN3MzptWeeRFDKkvtq3VYIokRuzRuHSxhSMfXdDKVogf/GCvVvB3Y2Vxl16AM6epVkEbL71UxoFHrDBZ2HNB80H27Xa/XjZSWvY4YTVUn8tr14A3X5/BO2/PoVLZi737gJkZxecsYhkv5tD/yCt/YQwXkT2/Ob9xGGUfYTt7DFAfdK/wkfs4tZE5yGpsmBSZVivGu++uc7oNRRplnvINNl8K+xzQnNLigmtrK4oV82ZzAHOziRGQ07JnQDDbRFHJFKpyE1RdfRwtXo8iCSqV3fov9RIe0nNIMD3dxPjVOueBcyRPo4Q//H5M89EjJk+Upu+leFGBuVY75eKbVDT1quavuQVg3+5cMac0CzYTpOaZQqk6xGs0r717+TRoDhzCxUtzWG9ewwsvPIIvfyky0WspFZeqmgr2vdju16Zg+2Ezi3af9eiWmtXX6blLbSyullEdcnJkUCigae5v1Vcs2WnIaCIwz6Jjn0zg4sUYzz39MpzHOrUrmuNMN2xvpMMBNNeqGDvX0R+0EEQdjF9Z03JWwG0cyaBXvH83Gtn4N9CKORn9KMedooJI5k+Skn1UpZ4gv7UQxVyws3Ar1um90TbdPs1X63nA+qu4EBaufpuahzq1PRscpMrV1O91DqVKDY89VsfZs8BTT5qQG8ozT9JOFpbnvORmP5G56flz6wFIcytowmRQMb2ju6YQT2rjogt6t7J1km9Z/eNeyGOLiMexaWHIfg8Tm4yqNnJeFt5twzJ9OwoVU8oRsbKQubT9h1jv4fTaHvrbD4pGGwdXpnqD9m806Q0/Sz87h7W8uurEKhjGxMQaxsZ2ocxpD0NcVCn3+tD1kWTRFGRIXl1Lcej9E/jyl7+Cl78YIioPceQB5YL++tUxnDx9HfsODPF8u1whmSI4aMmFcMV91034PX3c6UQ4duwMnn/uC3jpRdjw9lJB6eh3K6aFT/sYJ0SQ3ZYgIbDRMq3yzDU5oq+jAVSq4JDrUydTjF2YRqU8ioE6ecsrtiqwCXUmva5SGcT0VBen9PX27HN7MTJCys8oVrXSNPb+tFaGTmHf3u9h3768t/TGy2EHXSD9nhk99wcZZRcXgROnZnD5UlOfjw7++b+0MXljHN/5l4/w+eX8fJiCoI1mwMbcas0YeIHlnn1YfkwzPbzwOs0m1u88ep+7384amuM8sb3ngHoOV/NqYPq6Wf4pISpRXZSIPVxZ+g6Xkq5yVfdyyZ0MSoqtwEWJ8ZyJh1TCym+S1HH806v4/W/3ZH2by+X9aJLLkBup5yc2S+vSJ6/dUljU1+2HH5p6GI1GDWrvYFZjw6xqCq3S77E0B63sn8Cukb347ncPYNegaTNHz/pWK9Hn34TEUjvAVivlAqAUfUTPY66v4UUNbWbr3cnKkeCzRcGhkHrRQ6nxgNO1SJ/RfTNxtYs//uEwltZr+Nf/5mv6vqhmOiEhsPdE2kcGTL0rc6ewqjsuzhWnrh+rCisr4PpBrHDTTe1ZJYr3Wc2IXhyJRLWJ6mADJBuO22h3Utvq00ZoOTrsJ6e5wZMyOzgujhkd4Po1cA0hwz1UOSP5TE6uKOaC7Yu7ebr1U3z6fqf63lDtLhWsMU9zytGbmeloBWUML770Ag48apTxn//TH/DSS69gaamNqakZVGp1/f4Z/OOP3sN//3d/yQ90FrQ0s9DD3FTitdkwpISlYVZBMkXFhjRWM4GDPO/nz13HB+/vw+5dpOhXOJ8uC9cpwDJzFqLfi5uwRr/zu+Uk46TFzQd2fpwOH4KJ71RW8HPFMwvTZeHQ5OtHNhw0UNVMQGWlnD3utn2G58XagNu5xvoJq77LeAOxq8Jq6cYfrTB4FJVRrSr24JQr+/CRljAH67tRrdRQre9DGtSN5wduSW0LNhNi3tYPipZeumTQoXB48iJ1FReoW15T+j0p5QPZ+iRMUy6r08spXI6uozCsmNBaEhA6JVw8P4PTJxbwyN7dbGxKktQIAN5zLeo5DaaFXJy9c8aRnSIYPPDIJB/Y8B5jBFtZpSrfy/jlr47hv/rev8R6q8z9Xilih37jmakmzp25rvkowle+MqqvkbKzKXEnAWWjMYJwFwtFXIWb9CnbA5ZCphtrAe+uL3asuycnAJbV0h6+UuaeS5JhfY+2sawFzYXlWYSl0ERD0cJxMaZN2NJSiqNHqdAROB2q1TTPisDq4+zpcWHqab6PXFjPJU3lc6ctjLTxuRcaSbYX7nfyrAzdrtmJCvLjokifTtziZxyccTS1A8Qh57JTlAUptlQojgpKUh67yvLIKcQ+0rOIOA+8tV7F+fMJvvhyYNoxdqmaMjUst6GnSXFO7DWnqIQJ4D//Pe1nVu+nxqlj1E0iU4K45odVzBeBI4cvYt++Vbz0olHMTdtJ6p5BOf42T564Ugv2Yxeu4/33n8foaBX79+fTcCkHwm2C24a9WOLEdXbR155TzvVCEWvjVxawa3g3vvYN/WWqlcqOvkCTOqevJd0SX3xjF/R65ymdpI0XXihzvQenr/q3R6bA9xd3tw18w2bOWcR7g/p929zn+rNOTAkpeUa9v22rFbBRg4uMloZtY3I3aMXwaLpxu76TcScrKTFfHPsEOHGc5CnKOazm7UdUnM07/3vvDzFRzAXbE1sloN10nI1UFYQqq1FGVrqxsRn85Kdv4t/9u4MYGq7zjT9xjYpk1TRhDut1EiNQNPRNu1jhqtZkSDO54YknP6Q5cWqhlkJjSAGnVi+Ua0ehdI5EySs/dmEWr/2hhR98v6KFtBFUObbPqxze7zhuZapXHudstl4/RfNecJP5uFxqX1anXKmYK+t2WBjlOffOSQtYpajO55mqAa+QU0mZomVGgHQqY08+9GbHdS/XWq9CYU9utqubjW3TMBNqTaRfDgwY72SzOYy5uYhblFG/4gRGMacIf+cpd+kQxj5Q44UUoTa1LkopdrTG9om2fohQjYNYX6PWXoFydVCf23L+AOQiKC7/1B4GFbCLa9wznYxLcWy87ZRW4TxRN+aAc+dn8eijI3jiiQjV0F0+tlgh3LlQhdOwnQWEBx7OrcpeTyPt0FvitbmFBOfHlvDSl+i6qSDRNyApN01un0cRPXWO6DAFxXoiVOCuxbqpkQFznVJdgi7f5wOIwt15wR3kBrmbz3fLz8CtcUcuz6IRzgmQ7m7qWP5KMKDPRVPfQ4Pokjk2MjVEjKFNaaE74ufA4lKCk6fOag7bj/nFNrcso+JspMDTfYiAvEBFsa3X7qk29Zjf6bEVD5E6jnQ6Qe6VCmENhDYJy3cfs+ZdxcJCB4cOlXBtnLx/q9wmUmlh2xQ5peMKNLeYZy71Po/jYU69+c2rA1wFmcLmwcp81GsBzOdGsnJqwk3ThAxDWpKmqveUs5+dijJfs3T5E8em8S7Nb7v4ezIAmNSgkA0FJnXMHG+chDhzelyvcxxf+/o3sW9/vvte86PwmuB2QNdLZMvfcDvS2BQlo5Z8586u4K23juG5Z1/E1776iJEjqS2hvpdokxJ1KdDrnzyRYPLKEXzxpb14+umnUa0URRGz5FF7Sbp9lfN8vgnLDtkcFXmpB3IlXGUik1mIW1XeruzixXmcv7CHj5k65CQ2F9/twznDXMkjuM+8efSTf6ml4+qy4bxuYqXVwO50A5lujeIiirng4UUmRJjXLCwqKywq4+leXqlgfHxNC0wm14QEgKZWdFpa4WGPI3mHUpM7TpViu9YSmthKSY4QTDFHc8fPzbXx2mv6Zl9fxe7RYc5PD7Ww8slRY/2fnu5gZaWK69e7XFSHvVBhzdSZUPBC4u0fX9PO4xl7DrIH98rQaVpktbsZAsYLQ4o15Qfu2Wvz8al6Lhk3glwpd7vjPQZlDtU+f95UkF5a7uKZZyL+nqMTYvJ4lG5/Ird7GL083Pd14jutcrL3d1Qwa0d6vlX2Kk1dB7cj6nR24+JYA0FSQqM1jcHhep76yb9/aB5iNI67rpQx3DjPGl0z5HWr1HbrczWlr8sae9PnF4CZ2Ra/z9qppUYx9/NSaXAOXaeHm+29TKGm6+tlTE0Bs7OmRdxvf3sUX/vaMxjZ9QzqI55AcHP1QHC/kHoXpjI5uCzwKGrtGGGtkaJFUT5U6Zt6O7v1qKCXVh4TfdGQot5FwNuQsSjVF13i8nn1ylmRLb4+Q95lJ65oYamM6RngyRZQjZA5bwvXSa/Sdb9wF0Y8/zgWl829RlFXZNxwtS+SwDwMEuXVGyEOsM+fZlthZmYN3ZYmhEBzfqRw9BN9H9eNVxiRvskKRpFbwOOeDR3pbrWdfw6yx4pNvbKVkpPEFqDw0obybWporHa1EpHi0gUKN2+jNriL28aRwZEjdaiQZpCw4Y+iMIBdmJ3T33/CH2Bt1bRXY/h9SX34XMskGCGKTPTP+DXgwgVK0UixZ4+ps0G8GAQjmJ5SOH2STzE/g+LY9J9ywjwZBug+WFhKMTVDsgBw+rxJH9qzB5rzTAu8UmgWtXFKOy8ARPCZwhksXQoKt1rVPPH+e9fx/HOP4vpkwulAu0c6RpaELT5rryiKTiJj0vJqoq/JJp5YSTMDvevCGvT83TkIsmyV2HJVTFF6FCNoyTXhf11b5JeWhJ9BtOH16SYmJq7oe/wxtNplPUapGETah9M3NGnqs74zXKvEk70V0P8hcTeWz40QxVzw0COzvqXGwk4P4KUVk28ZhKP6IX+Aw3xNKA2FXNeYFExo4QBcQYrEWtoNUdrakZm+rLIwTlLMT58+o5WmGN/69hexvGwsp4ePTGJhfl2Tb02vu0+PN8DCDxWr6MShsRYGZvGhsqPoUfz8I7xrJboPyaSbfN4zow2KqyetkBEjsL19SXB6/Y3L+P5fP8XHG9A5pfBFfwz7+/AwWpKi83XuXAMXLq7qD9YxMPgkLl+hcwuOSDANvu2mvbaKm0z5ttAr4BYGT1igzHzEae47LvwGmXepxFWwJ8b1OfgjMHmNQrJ24dLFFVy7PK0vyHF893vGTZO15WDXd2wUG/fMTiqYmTP9gGdmTH7kxUsmhJjDuPT1S5VdPz0BHDt+mfOEYa8llndNaVfv0LRiriiXOLLhyrSvQfbeHTkCHHjMrHfi5Cx27x5F+9vIPKDxHZxKwZ8LRdcAt6JpGENibdD8/NSGiiIvDIeVjccBhhOpHgEJiJRu0naKeWCNZ1b5jpXpiJCoMM/ttfUiSAm7NtnAe+8v4olnRnDgcaBe6fXiJCya9co8dyPm9Lud79JRXNhWZfft5mPSV1evJjh67Lrmqcfx+KNWKadoICqiRikC1rDhqoXT72HSUMj1pfkvGLYu6SYOHwbfWCv6/g1KI0hsauPtgH8Dd1Pf6TOgx0DS5QdQiT3TE5qnzHOrZIm5jxrALqYQ61opXqdJU2RZKcLUDeDjj7UgfcNTzu31wiHoZMxo2AmYpO7bnqqp7RHqzUzUxrFjwKFDVzA9vYrnnx9ig0LEj4YRXDg3jV+2Ypw5GeL8OYpUKvN1HgQ5r3IFZq3EB9Gj/Pu89Q6Fyc7hlVdG+b6ZnGzp+bbw+IFhDA25sb1TgLu7fgX3D5/l70X3ORnrmm0buaHfz80Cv/71EfzV9/8Ga6uD+vNH9ByGTESN5VSCMX9FNv884vodKhxhcWBB35PUlYUuW2pXSQZ+8qKXbJ0ypfpz4naBP7f5xbzWCTkLOHLSpjaSEY8idBIrDyXUJtcKHuvNKlbm27Zxz02U8s2sZje5WZ1zIhNyekQ55bbLePberiJRzAUPH3qEK6Coa506tYZPjo5rxXgETz71qFbKh/mBS4RK1k3KlYwi580NTIs09hgF1oOJTFl3YTbk1VSubo8WbtZWG+hooWXqeooPP1AsrDTWq2ivdVggqw/s4jDtG9c1Uc1TWH3EVrvEEoQjW2SHEm7dEyUTyLyz0uv1dabDm7F9P36yApgr/kTepKsTHa2Yf4pnnnsK6yR8qkEtq9le3i7m1Tll3O71/ptNOtll/fsofHq0hcmJCj/kqL0FaYdpdJuy6O0+sTY5ntsayz1c7bFk4flByAWHTp5cw8WLddZUqBJ2u62vhbiD+uAIK+pcAKXpUiTKmcDtjBVoVfHhoWUtZA5rpXyVPsClS6M4d35O72IvG4WuXqFrG/p6u4wvvfwke6n4J+QHn5sYPGk+zK6zIDQGkyWt3b/5p9PYf+BFfP7zJFzs0esMIrJOvI7dvCBL99iM0PvdZudacPvwz6Ov2fbhOfqPFKILFyjnGXjm+TIGqc4YG7Mi097KXqOuBzXsNZLaCzdVeWRIqqK8BRXddAizDgmdOM7a7V26soobP30LX/ra32J4l/Gak3Kf550HWRi4LztldsAtFC63QmFK/HObFp8hk9dWcfijMcRJA/v+6+dslEueWuMvQG4Q4+grJi66oUzuyczUmjHG6ZssKitrSLu9A8iLsfVaE+8WAcbH9e/6uvE8NxrKEG3qJSUo7y8/G+06yaDmtSbOnm5h+kYFExMtdBs0p2pe2M3xvD+Q/wyAt549B0UbtGJFP+CQf3BU1afHJpFoLm2uVbAwb8ZX4R59HOM4+slhDNQf0aengvV1ejiPMC9yD/U2/R4VLsJXKo1yJNyRj2dQqS7hySdHceAA8PEnEzh+9BP87d/8N3jxhSEOiy95UvWOU8pvNWHh5XsCXVtkOL8yvoL9+4fw6GPG4HXjxprt6hOae1+FPbZ/Z94PciWR77sKf3r2DDTfHMP/z957RclxZmeCX0SOmlVFAAAgAElEQVT6zKos71EW3pEASRD0TTZNd0vaNmqtpNEZ7ezMjs7Zt33Yh33Z2ad93Ifdo5l90Eo6K9dnp7sl0TQJNr0DCUN4FHyhgDIob9LbiNh77x8RGZmVBRRIsBuU8OMkqiozMsxv7v9914aCQfzohztx7UqWCHoUnV2KoLu6ucoJXWzkFSU128U9bDVavjrNWfaj55dx+vQcevt2IhKOIxjIq/vlb1dqxrrnc3JpsPEMgQit14DCNrWXq9W01iPote95uUJt59idqtddM1+vFx8Q8wftX1fTqn96AZIksCG5uLJcxpXLs4QHSujrI2LOGR6pcU3EN9++TEJvBr/zA6fuNJwKWcK6nQRbhuEAWFSrLNmyZOq00TfAKLMr3SKujzFgsSSJl04AgONsSsRYz5/P4SoJ2FhsCk8+0SoAli3KvPEH/OvLGfmFrSobDXyrK1hs1ueYZlwmaPsNOYk1as9fK3/rCD/N8xJ3aj0gbq5HjwATkxCrbDAYEZfaqoOd27K70uJNieMSLYOAnoHF+YJdyiLgSjar9n7q7Q/3wpTmfYMmksYlpRye6xSA9n7F6TupDx5AkRO3lWB7bugS2qDpNANLRZw8MYV/+PsmfP8H9hyl5zYNTbTi4m4pFrQmzNwqSZIulUhGJ3KQInDJNcwb8PnnwLmzTO6TKORa6NItLg+vfRDN7jiNax8bypujIC+OB43S31F5X2K1THahj8icn1nmslh5AhgLePnlfjmPYdr7qFZ51e23O+/bD9p6bb2+9P6uOW7TStnF1s5337skdalffPkpPPa4vcwszbUYMhRkAMjTS8pE2uET6mW6YRNMxvlzlklG2afckh3Zo9vZtFl2WW3I5kyp6x2wCTnPLa4MyT8dEcnvB3x1HscDJuthqTt1UalkyrpwiNN63Lbe+ZxjHYOIo3D15r9wat1KLKiflbnttF4b7e+JGccuf6YpoO3qPBW4VP0eVCQcNkC3+06aqWrMb4iQQ8kKwwHxcr1748uSStAYZlSdUE4S6Sajc9oarQoqhNsMI5koIZ2yaK4E4JYtsY+xbjewtxssz0ZuGUqpG4uqUo+hQB9u3rqOjz+YRjTahx/9FFK5wh/sFe+qTCbKqS9FubCybGD0HHD6JNDQyI8YkRwyhhmROR0IdIDd7fk+2dtrdsbC8eMTeP65gCTgYoU997uTWNOZN44yfc3t30/ybiP74DfH3O6u3av72MB5qj+2PP9v7Aa8YXjsun7q1Bw++ug0Dhx8CN/v7pGS2rLfa7DD0HzVeyVncrBNslItgGubZ7l0V06MPPzR/CwwdjUtuOnSKPBXf/kmfvzjl/Hsd5oR7rCXhqli2x3Z4K/Rpd01Od8I/qtRQa4FdNXXZhwxP5cl3DtPzzagysOZ3m+ZFSUFy0w2jGkKjvp09UCGV8zd7h5v1+ptDt4OkntSMrwKZt+jtfGAmD9o91+7l2rmOgvFu1ZtbqTKotnEnF3ITbMB7E6khGVEjmUilFgxkM+pbzseKw7t4kQxbui1zvGZmmshhZ25WLwTJcMsHWvaltGiMrk79SkFApPkZGtEOpUVTWAg0CIa/F/+MoPNm2PYthVob1PXZXLms59heYEI0kwRwyNBqQUruNi+h3occk2HrOk4R62qVTQQjpytWy6s5hIGKgY8rVpMs/xky11Zkr3F8frr16gv+pArRsSDkbOVOuXq3FtxwJcr632Sbdeyarw7awVrPYL+VYToemjeex0aO8usZNH3upI6fVGbQJ+TDnn3K3UkW89iBBwzmJy0sLioIcperr4oCsSUj3yhxp4ztMLPCp026W/TPodDxAoFYGFezQ0m/eUSEXMt7vaZE3pR/Ry6lFDT7V2HAX6ZY/e1kMSau5ulxn7QjQIWZuganx++goWF63j8YD9a40Cwxg3Vuaeqrbl2nO5iXO4kKu4HDHl37R4jX8+pZLnalkke11y2mV5ByZht2lUXdd3vupdrmqrlLOHgTr4HdrymLweDQUVCxa0vJiSFXz6dcxeEKjGAluUp8xcnYlnGxQtAY8yWpwmQPAOeepKIVMROGMfWynK18lEIpllxzXTWlZvQZwNd4fPp60wY1ed30+vOsU5mbnlWU5XriscVePb7Wumnk7xIR1XJTI8slCzCfttrm/M6SFlCfa0Lt6MnvZMMss/sEELL895XarVT0uBs/XcR5+40R6liBlRGakcIfpXpvh5JZ+U47cNsleTyaekEKyMbaN610XsBjI1xjg1VGtCwWkWpqCp6cEfl6LNFnDyxgN6+DrzyPcjn5XIYs7M5HDsaEY+s2bkkmuLtEi4UCAzQZTslL4rrLqxV36bp+b1Kf7HmuT1HuL/eXmN5z+Tf3UyNbys5/4r3bdYBEncjLbzpeHi/LhRiSCaDkq+lbJcY5BxCLEtZBnBlAO9+bHlWMGMCn63U9OkxkpFBpWiUPbWdfjbIfp9cjSCfbRQFuvvo9J2pGU6Ym0Y0EsHw4NrUm6ZVb15W7kRbt273ep3rrIBa1I01U9veXqRyA+NvrkWu9hxPQjgCHrpdilb1QVS+6BNy7imRW9OcPaOeoWjdVitnPfhTnUP9od3N2tlge0DMH7R/cc3Rumv116jr/uuAqiuXTYzfnEdXZzce2WcDUl9cMgmLW6eugCYTyEJJQ75o2UnKajgFZ7K2LRQWx6FbQVezx1mNObMju8KXyxEh7aYsP2VJsWy0VvkfckyZEJ9kq0VAYoQ/PXyJzrWNhG8jAT+2WhVx8IkwIkFIveCLV4DPPr2IH/3kYdv9GGhuAbo6KgBBXUNliXdZnFemeojkmrzJDjGGSlQn1murQv6BasEuZc9KhmiB4RH62QIkoQ7X7JX70ltwY3KVBC3XTw5LTKaT3My9P68ioR7p3ojg9W4Gt8c8X7FpQmotO+ZSaXODdj9bLjlfo4ytuYfKI/kIVHItzzLyhQCizIO1KIHCAs6eKQl5TrP1yt+s5qo9Nt41YJqKNDmgkV1lOX6YLaHslEA4VmJey3QTbkk28TpowNiNMnFxv5Re4/nNse0c48VJEOX7RgzXx9OYnGwSS+hKIojZeQtZIl0NDSrbbCGrritZ54M1ZP1+AXn3RbvDDl8LEm7X6sxvjg/nWFq28jU3aQgG+jA1cR5fHkuRjGhUFhQr4OYUKNB847qtKxkbsOlByaItpdAKQcnnkFjhEAkLb70J3CDSs5LM01xucB1rDI4HtEk0y4tsJoiPPypi9HwQmdQ8yacMnn1mANu3+FCg+bKyqkhtb69K32FXc1OGVYvr2iqvIS4tGI5UuqW257yig60wy3SvR4+cw/DwVgwNh9EQq8BFR+I65zBsy9J6MNOZshxaxCCY+43dRdma/f67Yxgc2iy1y32BGIy8IuOWXqaXoUC2xEVayvvb9oJK5FWyOI49lX3BsZTfLpa8rvxy3jSrlbGaVREKX6Xdzdz7bTfad+fmc3jvfdqDSyyTOLSilfbHMC7R/H/1NdiJQzlXTFApnUg+c1x6gWTt/GIWE1MqzIqJOcu4ick8Dh2KSNK6uYUSWmlP3bSJxz2IYHBAFJVO+au6xMZRdlW/tf6Kd0l5rR//gybtbrtjvY7W1v/Yqj3I8/tGVxIfLQaTJUiYnigojZhYutlz0rSHl/GflFDjZSpx1FalMqDk7LDDXawoJifYa4VjykO4MQ6p3sL5Dxiz6giKnOWkjJxrwamEyN9lc9AVmv+XL99Ed1crBgZ7vM44VbLNufdqKm0rFm05otWb6Gsmde1Z3OQNFYyiVYizZuMlza6g4MWb6lWmvUDVfeE30skgrl5W/ZHNMJ6OrHMfqHRE7e8bnUtrsKVV/ec9bA+I+YN2/7avSJw4kyPHdHspJRMFw0n8otnWGgJPTU3A+fOLRHjP46G9UTz8UFxZL3yN4Ng3cdf0hdw4Sd64CwXl4ml6BAvfK1u4JychWauLJa6jrRIp8TnYMsQxvpx5O58noSx357wqTMVN8GXZGSrFVduPErEnzkA+v2BhNRGVWq/zC+MIhy3sfmiLZAEevwZ8cdTEZ1/M4PGnH8bNiSUSYkXs2dODjo5qwatJoiXNJYp37H8LrjLCiTmWWCco9yy2HrDigslXyJsQXePNhrWcPuSzDJJUEqM09f/ps9T/LeqcPn+HJOzgckuGJ4neuui49vfan3dq3xghVH7ArNzRHa0uxz7ZA2s5gH8dIu585OpFxIWDY6YCdq1g/pwt1n4szReFQbGV06c8ZFW/mR5yrlUUSMrpgS1dAbqPkNwLY09O5iUJvWhCO4SbFUEGgdKLV6cxOdsmSiZVhi3PVMs+BlKd4Njxcezc0Ye2NiYjfTT3Z8RVmsnKdQLAly/y0SkceKIFAwNgo7uaLwSao9EK+XI7ospStE5n/YvCqV5qWefBbgcwnDVSr7tqQCeHI5w5O46TJ+dx4JGDND4+IuY5IhsX0dH1OLZs5aPU4uW5srpcwmef3cSuPYPK5dwXVlJDV2W9Tp1SisaxKzmcPL6KIsnGUq4gSh6nvJ9hlV1uyTKgXGzE2bM5khk5Ik1ZtDT5EA0Vse/hCLq66VzXcyRH5/G97w+KPBEPEV3NF65ccP06AzATg8M6hkdu3z1O17Cn0dR0Dv/4j5/hBz9oQ3tHr5y3aCjX80r3WQogW9U1Hfi4mRnlptwYB+zKlUjQHD9/Jk97ShAjdD8cc33i+CSy2X5EYuxREKU1lbOTlhsqLp8DErlf+HcV0i+xpdevp4iUNxLpY0Fr1/mqJ/9qkXOdt5UC0Kz6rMqs81WR5Nddd7+JdSuDGUYqWaZ5VqBu1GEZRFL0MHK0J4/dACZ4D2Z34HxY7U/2vbHy2NKUUpjf1yXEPyieHivLPsnczm7H+XyTWM4XF4DWZh6/uOz7TJD6+5T8nZ1V8i9G8yUUXj9/Xa2+ubqwpLnm07W/P2i3bWs04Ki7ndj1c+rq9W8HQaw17wric7/njO/4eJn2wRTC0RYpD8gelJbtYam+qYkiqCxE3SQs5HPVMhZUfgpxYy+GcPJLA9l0guZjAbnsNM483YcMp6Fg7zX21JOypmE7HAlI5tR8bIpzXhGL9oBVrAwE8OxqjyRZ433bkbOOAsm5fx1rxZB5JxOxVvuH84Y6GysOONcDKyoiERUywmdk+Solb6XMmX9NGKLqXcPuLSXilhZMXKP9J5+L0H7FwCfiPkM9Ze3aMcOGl1PVOb3iVKtzzq/ZHhDzB+3+bxtZOJYiiKLlZlJul+Px2YT66jUCoKkSOjrjaG7mmqoG3j50GM89+xyBywAJOa4X65cEW+p0DeISx02zE3GI1YcQZ9mwnZu0Cnlkkr60lMO771i04RvIpEmUBhQxZ8vO3HwWX3x2DYFAD30eEa2+K/bW0e6ppEt+icFmKwprP/2hFhHa7Iq3mogjVAhIqbGzZ7nkRhYXLswSEO1EloDH4aOzCAZLaO3swUhGgW0Gjz7xkvS5XVpW+eYEpHJjoCix7EH1EjJukzi+T58Gz6YBsQ5NT5lIppaxZ287Otuqh80S90x2AaR7OlzAidPTtEH14eiJMex7ZBeGRrgf2wn0qBhmJ0O+S86dk93vTR6Yx5RdI6OSLJCtyBLayRuGpbtu3FVtHZKuoLWyXPPY8UaWZOO7GafxKsD0OR4daryc/E6mp/+qQg1k/vIXwtTXfulbVpLwuBTy7LKp4oMN2/pTKgVRMHQiDAVxSZY56zPEG0DOzYSJvnP69FXs3bMf+/bHaK01YHqmgCtX1T188inws797HSVjFf/pf/sPiNEmXCCgMHOLACsB1z17VRyo7nl2DbVgoEYA3MbK8e1szmpah3Hd6avrfWQqZRlbUzg5H49pImVgfiErGdmZZJg0V9P0BytS1KUD7tyZm03j2Jen8cSTfyrn0bUmOWcwwBYKP9799ZTUumdvoFzOTj7pC4s7tuN6bhhB+Q7Ll2CoSUhKqRiWhI0BIq65PF3j2E30D+7Ak08B587PEVi8gQMHB5G8CfT0KHnFrsls7f/i84sko/P4we/up++oOcZWzJAtq9zYdnsd8K95kpVLyxoWl/z0HB2yH+RKthdAFTFXwFz3aHTZy4DLAr722jE0NTXj0cc3Y8c2n5D3eVo3P/vZYdpXUnj5pZfxwgu0Hv3t8szKw8BH/WODdK6M4Lpa8ssvQJgVxZzY8eiRyzh1sg/pFVt+BP1ejL+2rSsX7ZXDwNYW0ErP5UfdzOl3274OH/xNcEkZQL8oN0yatJadJl1KadIczqV5QMsqJsJ7T7pNiqjvtUDUjSZQ+zwJLT2qFE2i9IyKUubGDZoDYUW63n57Bu3tPUJyODTk9ddPoJcm7979vRgcVpeQPdVJDlvTLAdQuEpJ5+WkQ3R+Pmhfq607B9UHXhWpdy/iVjYq4TTcHE8gZ34p+aHK7fFY814aC6vjJyfS+PjjUcKfg9i2ox9CPr0lBjXbWm6pJKvsrVkqO/NCXJnk93zOwpVL12i/zhMO04jgJnDqVB/a2vkcrDwvidwrlmLiQclGoqXLwHvv57CpN4LrYxrhu06S/1FcJnn663eO46WXD2DvXqUkd1zZneeW5J+GndfI7Z9KEsuNtYqigr/DXkGnTt8ieT4rHkwjmxtFvm/dBpCIpZkeFAVwxYuwkghPY4OBof5i7JNMmDjx2Xn6oJtkZjfJ87BrhFjXQehbABweEPMH7f5vta6vXm2VLUjYosKlpi5cuoHtOwfQ3qmLZYOlAZPYY8encOnCJJ77zgE8+1wjkUgfPvvsOrq6niNgFSGw2UGCKSolt44e41jBJWza1GMnkqgIbfmL49gsRRq5XrkhLj6cJdyH8+cnJclQoWCgpT0o26lPNnkGoSECBgb9TSDN8rnkHt6fqPwtOMFSdYErwjss77NmsWx2YHo8i7/8K46nm8XVa7ckHm54pB/zKwRYi71ojmqYWwZ++Rp9tzSDF7/bg75eBQhZ0CbZ/X2U49gDGOgPiEXo9V8tYWExgYf3j2DfowrYcl9KJnpOzkFClLWUXd0Rcedjt79fH7qEmxNX8b/+px9hxu4rdjdl0hW2NzK2ln95Iod/+Nk5BMIrKBHB5NqTkcYwxifz9GwNbl1tZ2xdaV5fRV3VX1VzxHnvNy2E5V7DSKwaePMNHz6NsbWO0VzM/dzyPkvt+Hu1wzbRZ034xKSFV1/VZJOfIeJrGOHKZm7HkTkW9TWx9p7LKf9ZVRedYy0//QT4+79NifUnQADU0VpLbLG/CUWp7UtAVQ/brszsLWK76YuVnic35wSISfxcvqBh9OIs/u4fxvFv/nBYSFMq04NsTpEVLrX23nszGD1/Hs+/sBXDW4eErLldoimrkWZrxXUX7FhrH+h+MhrVm2cbur86k6F2XngxeZ1uMO08Di4ptRsrXaZvcVmqBeze2wE/Ozz4YkQ6GsVSK3XHRQ4F3CzqlgOChFg2EHluEgDEoRCFvF/kLLuvm+UmZJJcWYLnZ5jkCZd2JEGhGRKHaNnEnJMDioIqozyK1PGaXbebrkvEPp0NCNHhFo0O0lwpiVv3z352DPv3PSKk8tixKbz/3hGkkyaByD146RUFIjmm+2f/cBxPP30AO/coi7auKzDMGedZWcuKIFZAZPONkidhhsDqrXkV4jM0YHv9oAJG+V6vXFL309OtznXxcgqhUB49/f1EzCOinDTE8tNEMv8GwuHr2LFrLz2byrfACl5DgLVoP2j4SOZL/XG+And+UNzlA7bnUTEZRNFnyVqDHlI35GQq38B8snmB/Qx+UQSwx07AyTFiZ8vf6Pl+I+12psiv05z14/O5inP3tAwW/B5/CG8fi9muAUVaGDcmmcxA3IbzRZJdml+VKuXTBjmrtlJoalYKSwucUHCFZHSPkDf2zjty7Dq2bPZhYEsvCAqI59Ds1AqG+lvQP6CU9d4kcU4zbcGva3ZmBjebvvPyZgN80O7YNoABnENcMorqqGjubVZkcllXjs/etatBPC0ZF0leDZ/CR4J5fMpDh+fN2Ng8yapOtLezsq9ZeQVqcTGEWKYaR6+Bx0njk0pqOHd2HFcuD8u5/CS4taLKTK5zDg/dULk8JOSyoBTbPDfFdd2U+VksN8j8PXKcZN0chw5dpznaSMQ+Q/g4gq07+zA9y6GRo9i2Yxe27IiB4TLLCvaeY2UoSwyWYzzX52bmsXOX/Sx6pSxqPf2gV5nh9K3jF8r9yori+UUdl6+kaL4XxZv0zUO/wv/wZ78ninpFyvXKnqRVPAsYh/j0oJssk5NsItRC/UDCHOFKCiRnufy2ZdxXbA+I+YN2/zV7NbsuuHYCMBE+ZgWAuonFdAWmzp8t4PU3j+CPo+1obmtQgMs2RGlaD5GEFSLpDfJ9fhVLzeLSXiiyladJCMnp02zlm0Qms4qRLcPKZbuKDKiLWzYxt9wizyx8G+h8OorsM0qExe9XILdsxw6BXY0k9jygHvF2QsPdLTTlxuSaEaNSA1wj0Md1qw9/PkugsAPJVIQ2jwEB2hMExv/h/yOBPJPCE08MiHvy2LUc9dEqHj3QgzZ2CyUgnEkpw8yhX59EKBjDiy/tx+YR4NKVAlJpHU0khPN0rbOj5/G7v7cHm/rUPdwkIv6LfzqGhlg7fvjD3SpTsLYZ2eyqkPbRC4uINxt45LEuiTN2YARrSrPZZiIMhExynQR0WpHME0jXiWiaAVFAuFmX6xHxjZCf+0EbShumQVPgFvXTDLEm8eJga7Mzr93j7nQe9YOJE7uqMQlhv4V8NqBSWdcc61gI65G3qqZHcfkyJDSCp/Pl0QxKhTgCNAe4PB+XVFuQRHFM4FmhYNdbkZ+c/M1SVlAN4q7LcV2StMtScz1fiGFu3i9ki4GF7ttMa6FD6qpzXPLRoxk6fyP2p7rdclzOdFfZizWxBlRhZjte5Fu1z95pLjpsyoV/cOUeryknwY1Y+0rqYynNaCgvlfn5Avr6Qog1VU5pGBXPl0SKFSHz+OSzT/A/9f0BejcpgGhai67ij2uOm45HkNyO7iZr41Acljf8AZNTdlu/emUZY1dasbzIWbUb7XntVzJVC7qJGB2ry/RUCm8fIgK7yJZtk4i93yaKdhy3n8OF4srCDtj1vuNiLZqbs+g7foQZaBY2IbHaLRaSpcUOSeLFccIMHEcvJLGpn+ZzkZWwc+jqasbTT4Zw/QYdc3mV5mocbS1cD7dbrjNK83ty5hx27OgTGcQJKNmLqrtFAaJ5Wmtvvz1P83Ucu3ftwiuvNBKo7reVhhHJy8ClLE+dZhfRMMn8NjpHq/R9qRyqJNJjDyfWyrq8yqlbxN5KEQltSi2r8Ca6A3pxGvAYXJPqVwaXOo2NX7xSuB95zUGUAr6vcK6a9m0Cu+uRsjpKcGEOpvpjheTW2XPA+HUOnyjKmIp3kCfbs1FQc08SVKFXcg1wvpSirVAxjBZ6r0HmFudN+OLITbz680PYtW0HfvjjR/HUM422225Foaq7YU4O+XYyflRnh3Ha/bDV3a+NlZWu54uDFW+jz+CPGFfdnCyLkG0hWRBXnuGiWOHkqV98Poap6VuEaZ6VhJXHjs/RPjaL/v4eHHyiUzxfeKxZdl+9XMZrr32GYPD3JbxP7sEiTGpF7ISMnNhVs5Niqio+fH9M7JmYf3nyNB7eN4zWdojru2WDYbYYa0xAJYEwl0qreD46ySXFYl6O4vjxaZKHQWRzAZqrPQiHIigbYZqTYTc007Ca6PeY3MMyyT0OyehoU6WB+XqMqy+OJvDpp5/hTyI/QXMrXV2vzEyZpVZl3wloysvIsuU7T3Em+hM31fk4YTGHeOQJbxSKLSiX20SRxXiBPZOKdmUadllx8DFXtDBtRW+p5EMo4vck/4X0BysqKokunb0M36is+ibX3wNi/qDdn01TgrTKkMjvOcLWYrceRX7YzYY1l6urIUxMEGA0GjAzS6TolAKwbNXl90oGuzJqIk3YVS0YblGZcOWlLNFLBD7nl3JyMbYqsaHB0OyYSVno7AIcsK3ZDmGw700LC2lxfL+dhWs6LoVcB9jHRNusfria565uZbpGWYUuM9ALNOHCqHrecc4wu2CR8C+LRV5edKPpdB4nTyRJ6JnI7FEAYmkpggvnE0K82b2aSfm501P4znObiMAbtNkExQLAxPrw51MEdLcQOScASuD3iy9mcPCpPUIwoyFVqmNmppE2n+uIhndjgPuXwIuub5HPzpzJobsnJnWuU4TrlwvKm4FkO85fJHBucL8305ORMC3YdbdsNnFPhN1vGzjagLDEmxvvfjzBahOg3uU9MtDg+a6+GK5/DmuD/UcEYYFIz+oy+7/niZSHRYNfLAeFlHM8LZMFzo6qawqUOvOdre1l2nnnaH1x4plUKiAbu2NNUgCkBYvzAXzysSL46UyDxB8zQUunC5ia4jnbiUw6LHOMLblshWVw29ujsnNXPbv7qN7/v+Jccc3B93iS3I2CyEtuLNjJeuDWD+dYVk7g2N01iC1bospie5HdzQvY91CzfOf0Ka6pfBW/99/sESsxu3FznCBhL8mOz7rBRYmDjeHCxYK4LYZjPB0jNF4hmZYOAVcE3X5J/LNDB3RVoxzq3liO3BhPkdzxIZPRpNSUkocVUs9/iBLVZ1utEzrJokUYpRjdE7shqqzCbh+IdbCsrmm/TEmOBon31d3M7yzDm8R6xDLq6NEiWjuD2LkLAj75eScmSwSc57BtayN27eR6uASejywiRkLr4ONc7qpN5ukyh95M59HVHZI4+WSSQ3BaxYK+RH139iT17ZdFXLo0RwC1lUA3kahAF8ksS/rgGhG2k8eBN36VxuQUW//b6LMmu+KAqunOJIuPvXhxge6/A7duQXm5cDPZUyCGMydVPo7ZaX4+NvXzxPewhztN8HU+Z9BfKPjw5XF7PvD5LacM29dsv23Z+k01d7NWpHu5YGF5Pq+U6/YacJNVWXCTT7H60BeIk+wsY+qWyvdT/bAAACAASURBVIHA5IOVS6Yek7XB+ybv02fPLCGzMkeEK4fHDypiLsvAHnIhaGVI+UsOF9H9auJzwivNjfa13Yjt9VPPAeJbMUS1c/dON32Xwp69ZDh+mq3T7R2QpKmlgq0o1pWFOye4qExyyi8u1DxOH354kdZrIx59dEjINyvDx66oSguc1X92ViU2ZSw2fqNM471IY9yGJ3RISOHRo1fQHB9CLhOkz1exSOCnUA7ZCSCVZ6XytNTlJeGRotAOuESyUI5hge5rms4XbmDjEnuq5ZVMdPzJRLFqSiJWW58Ejr/W7NwSXOlnaTknylCWSZwroSjhO5Yk8HQMPYzD+NfZW5zfA/jyy+t45eUR6Ts2Wkk+pmyE5GoRyZTydHJmYskZGnselj05nBxrt+wjbNw5s4DJiSUM9O/AEwf5W4RVtSb17Fx2uNwkhJ0VApzgk+/fqc5bNoPuM3LsvMnGAXgT1qmKF7ebQ982JdZvjphvRHP5oP2rbXXltKYWKsfrcPwLL3jObskbFwvXBSKSb70xjWikTxIBqezgA+ImduYs8P57Y0I+vvf97WKt5eRVrBXlUjwq+21UafssFddi2J5iYsGxlOAp25+LgNGU9o4tmKZnY6y4y4UqLrdiXamo2FV5H0sFaEtdyjrq2zWafBY9ZbUx2xaYQFAnIbdCG4qBfJbJcJfUWfdaYVkzm0zSA1pNmLihNL9TE2wJLeDjj3MIMACkU3/66RQefWQTgc5eOm+PAFYuZXT69DIRpzARKJUkJ5lqE4vt2bMm4jFdhIaubcP1sSXq4wJGhkNCLlKpdgEmN28GSahHcPY0nY/2m+VlznwPHDmSw/nzWerLNrHESh/66lhxPNrQb6uM0OwEbKIBsolF/QPv8sSOGWAjO4333DWeB1ZJQ7EQEM2THlCuxxyCMTFBgGDKEKseVxbwlhlWWmpVXuvSRUgCpFu38mJV1ewNWTmPtGGBiPm776gM21maC1zf+sgXSXHD4zrA8aaoxGhy2EhzK2SeloorBApaaD6p84gF/Wt219pmeoixq5K/u5Nv1Ap3u+95iACHEVy/voqOzmYMDipi/tavTuCR/RF0dQ5JXohjR29ganIZLfGnxdvlnUPLGL0wh8cf24Mzp0l6hcvYsSuIgUEOaykjlTZF2caxiqlkOz75pIhoY9AGlZEKMXfIMBxSXHmpbMAVoslWkUw6SqBJxUFruqpn5oAwOaisrEASUx5kYBzH6oJoLSX2XNM9Ka14HhpFOkWx5vqKmGv+iBBulv8sf8pGI0KhDiQSBkZHF9A31IeRLUxgWiVcKJMMEKDkzNlRiUc/djSFkyc4wZwhoC9XiLqATtPbpW8uXUqTLE0jFmsVRcKnH5GcO8UJC0MEbFuQSMbEZdWCApGi8KV9559/OU8EPoHUalSs7RZitnIi4CqVua/PnZvA9RshpNMRN/yEO0wjGX31kimES7wh9LhNvnB7T6r15l/NR6VSgOQ9DzYnjfCJ67zae/6VtnoMtvZzr7lNSp1GlKXOe5wjlyy4+fRYIZ7J53Fu1MTnX+h4+mk+Jk5zsknVqGbFv6+LZFo/7dmdKOabK96AnttJZLmywTIdU8aWzZ123DAH86jkX/Ws5VbNg/1GnNzraUbX22vu9Nmd3r/bZirMyErsi6NLuHljGXsf2ooDT0C8waZvZRGJRLBzl4aVJcZAF9BIrHvfviFRbp788pbgv/5NQ+juAckZC2+/dRovv7SfnqOXiGFayQOLcVEzllfYUzEuj8gKw+PHp7B5uBPdHSx7W1EyFImU6C9J7uN4JOnKau7ITi0sskXlzPDDH+yQPVW2e51zFWXsuecEerGMVLnbXXnKYUQqlaFd2jRIc49xbUyFexqFamIuk6VRiPDJLwkvvz9LGO8qBjeNiEI9lSHZ2RZFbw+fR3kbzc0TliyrMWW5x/s77wss67nSxVJW5cxgvK7koiLm4+NFfPDeZXS2l9HavEcpegtBeeZYlO+3Sc7DcvvypRJWlgtyDPfPKmHZWzNBIf3ikYRQVVpE5VVas6h/kxjSuveX+OaIee1Cs6p/taxKFsDaQ+5GmXa3HbLeNe63Zhvdvtb36/1er91mqNY950bOu5FWbzxsfowcW4Vv5rGayGHrlhaJ6/nos2nJat7R1imugP/lLz7Apt59eOWVvWI5MrVuETrHj3OyjesIBfrwxJOKYENvFpDHlqTxcSYWEYkpZ5KeyvpUzhhO2gEumxIRd0UmlWxJdJORMSk3CfylVQdwzCXHyCqLuaYy72oei5z9w3BQsPjGb4CUOx1hS1CH/POaSWcMrK4UCdRGxZXYdZ20z6GARFAS1Z06mSKybRD55oR0bfTsEXl+dg8tlNps4d9CAq9BXIlY8BaLPbh2rYjFVQ2BcAntXdtFk//JJzdQyrWgp6OFwGwDnXMEFy6mcPVqlvYcDQ3xAH75jzHRJN+cSOLamEV9zEqEhCSUy+UaxXUpGFbu+Gs29ruZtOu1jS6cr3r+DS5Ky5nEtc/1Ve/hduf5Ks2NWdaq3tRognGWd7Y0uCEjqFiLuPFmfGG0KNZ2zUe7MOIVa42Qkhbk8kEkFnOimPCH/FJy0B9kxZVBc6lAc83AlycWkM43EjEvYG5mDNEQkcnoY2ItYqsTn5PnHeMZVraJa7dL/tcZ6hpjuFmzaVp2XJ8PjrJMfcfZjzTPiesOtVX54XB7ObzG29RbCkYljbSfxadAI4NHfg4Od710GfinfzqFPXu34cc/6hPLza15H0aIzOXZgkZdPbtoYW5Rw40J4NQJjskbRXt7l+Rt+ODDW4g2lBGKDcmDvf7GeSGBjx/cIaRgaSWKN9+k47v2C8E1rVaPtdwnFghJ+GcoAipJjvj5udY9VCyKWEQMZb3RSeZYVrULiFP2h2+g7FRpKFcAolhr7ect2965joVep453lAMsp0tl5cpeLLWLxYrnInvzWGDLdUwUniW6WSa+bPUyjJhreWTLNo8juyIfPTJLIC+JSHgOl68sIdZoiTuyxLeb3TKPl5dZiRkSxSF7i/zt/3sSCwQCi/kIwoQY2fW0YCeKY4UJJ9lk6/cHH9yg+TokcfIl+pDLaCpFUrii7zGVlXyJ1kHJCFaUdIbK41DIqonn8ykmLyELX3HTd+ej+zcPWkh5abkFtn9DrfZmftvtTn3qFSTOfZtwk5C6n4vriH1KS+3p8pGh5vq5c/NobOhGdzdb+fqFsPMxbKUtGUSu9EFYvn6aL8rDI2DLKkceLS5xfpezWJjP4qc/+R08TFwwxstPr15rzu0oUaNtdEty73vNyeCRmRvpK8+hLo53vlqxS1S61DsfnD515Kgjr2tkrua5Vyf22pXX9nu8vtgrxUnIxt2U45CvG0QKmzjG28I771wiDGlhePM2nDzF4SdX0N3VhaGRHiwucx6Bi0TAO7BpYEgs6yUjLkku2RjDXokLJHM5TweHfRXLbIVuxoVLKknZ0nKMju+lwYuDo/kyec5r0UY/m8WdG742kW+i/ASv7ZhriCgTdsvm/IKL+FB/oAOfHV4Rsjo3R2/qnbYlHWLE0fyNynNNvDdVOTW9do8Swq06Wuc8FdJxfk94oE8ELpdLdfb1YrEFl69yMmTgw/dnaK7GhRxzjo9AKIrmNicZbIvI2i++4PwJJCiRxR//8WOYnTWRSBTQ2RGRBHLnzrOX0AR27BzAQbaM23C4WOwWT7mJm9PYt38PHU8yfd6gYyfFsMbKYw4N4nj2Y8evIBgKSsJSxokTk1lcumgi6I9Tf0XQQJ3P+JvD7ktito+oECrUKNG8a7cWW95JUXcXzasDuFftmyHmDtiB/cy6DUrsnBtWWQkr1lA57jyGLQjdSYQaWWkDLO8eU0+eOt9dr6+dwTM9XektGOWRy2uaV3Z5waqu3f56tzuPhrXn5b+dkKd691F7nnrvaZ7Xev1hofpZLE/fr3s9q0IA15zTO+Y1H95p7js8zUkQwcffJIH46lsnCJSl8Wd/9j2ESDadv1omEL+KzZs7xQ0wb47g5kwDfvVOjhazn8CcHYPtayBhPUigKIY3Xuc4l0l09folERwnoPrrv75ChLKMmVvLJDTnMbwtjhdeikkytJKhY+pWFu++myaAFyVhabibsO6LSAbin//XLIEuA739ATz5tO2iKJ6cHCRTFCHJ5VecGCLVp07dcn3twNfrbKcYMPzu5sRgNJ83pXyWDxFVJxuoqobjZqTUAgRqdaR5h+Gc6lYvAdAyCrQhNMf5yA47G22EwKiFdFYTN+ZSuQfj4/TM4zNobNHxVPMQGhtZIzqCDw5fxwcENLneeLHUSQI3BGdVLSepP+dWxWWK/Q00bUWUA6ZBRMD0iwWWE4XJLuZ9/ttN5K8i8e4Fwa/XNnov9YT+vbineyn9PfGSXrdIJkFSzcWqvF/VHFnnkC0JiC5ILBpr3hVRYg8Ompth/xrZJjFx/qj8lc3qOHMmKbWsuaQRUTr87xOn8NahXvzkJ13i0s6xfZzc5vnnK8kEoxElgwJ15K7hkU/cmASyWx5n7WaQ67e18PKZqTZ3Xh7sBcBgKxyuPCeDbd6fDKPyDNw/fA6e47zO2FLAwJSVWnzaIPMyO1kaN7Yc8O9cSolL1vR2Q0JRjn4xjlw2hOee6xWyOjnVJLaP3XuAzm5OITBEK6hdSt0YnDl/yYLl75J4R5ZRq+kGFI0Q/uIviyQfszj41DaspgjYv0Vgk0jjo489K8CGrTulUhtWaX2/9s/MDTNo6/DLNZW1xk97sa7CVjgnQKFJrCUqS3sLyb1lV/aIq62p3NXhUWJojnwTARkU5d5JkrHxRj7e5yJ3/n7R8X+UeWeIH78VUKEefNpMlnNn+AQY+vytNBeSSK6WCYTTfPLHbe8mtjTFJJ6X4+g5OZfj8s6xlZzbQKpxkBzj+02nG+m8GQzF4qLgYezBOTm4pi8D0ombBk6fKtK9lYiot0hlCAlF0op0nYDrXXDkyC3MzxXolhsQDGyle4nTMRzMWhJRzaSfwXvJULHdZSljwQGmqkRhxVxPx0m0lALpTv1rtw/vBCZqgWXNx5WmVxRG98qUulHSfa+R6r1staCxHrKu7S8HlNW8J7iJFVpEdnK5JpwfNfDn/9mHmdmE1LHvOkkygNYBh5IUzV6sZOK4QEToNMmAHTuUqzQn1OJSgbweU7kevPP+50TcaWIG+vH0U5VqKF78y9cN2Pcv08pO2GXUuU2nOTl3xAvKUUb6KtHsfLqyg3P0yrXWw9n8uWFVjnHuw8mNwXJPMpjXyGkhnGUVwsPHOIllec2USpXvF2wZytU7JC45r9yrfXaYDCs3P3h/ltZsHrt2D6GXOPLnh0s49NYn+MM/eJFkfzuR72b815+fwPZd2+S7q8lOWnZNKl+A2EgGSCa2IxBW21mB5Ec81iGKk8lpruZjEtFukUSSnEzz0hUN54lMvvZ6PxaXZrF5a6skW2O389NniNAmWsWglCa5a+gtKhGbqUKLuGIJ93eELcvLBj786CzNjYfw+OMs6zqJIE/Ts5SFtIdCzbh6HVJdh5OjNbdG5FxMzA1xX7fseVDpWUs9kJ0YjWQil8LVdZdEqM95dgTU2Bn8jESO/2aM9rUwysUBCd34+S+ydN4MHtrfgaEtNrqzWqX/WGa++atrNE4pPP+dx3Dxko7PPr2GxKpGY7ADFy6cpL2lTM85IJbwI0TkX3xBxYbze+KBYikumE6HceHiLO0fYZLtQfzF/5OnfkohQ/h0cLhD9jOfxNxHcO3qkqjUTbMNqUQE//gLpZiZljCdmMTr1xU5lTi4r4cpf8Ptm7OY14Im6qBy3nHrUfXrPIe6QkXc4FARLo420bBPpnu+c5tL3/YzETy2ptEROmbVZ5VWO4ZVmFurHH+7a1aUAdVerd5rO39/Ezk376SokGvfRrkAePCCh7yvSUmi3bkv1ms+zzlzJbVBrNDCXFqN0AINCAhb4EzjtHGVNC4VpVzNS9gkdb2XkisI+C0MDjWKxUlZHtpp8QdJeKzSOWeJZI7ItRj8zc/7hViurMakPIqFVsFJAq4M2mSzQYknWk0sSiyibBaCMWNiqR4fW6V5HCCBGZX3xe2G55RmuR3AwsKJGxUQy1pMp0JuvZ2uXhOX4oCQDYcEcE1pZcHX3IkrY6wrUuKsIVU2i4VxxJ0EnJwkS+y+pblMwKDZTm4Xw7nz01hdaYZR5uzK7SoGyiCqVNJkE2UNJW+MmUwzCWGdNsZoVbkQaYat4WUrGwtKFVjlThA3a7SjOKh6Ts/v6wDPb0yw3uvz1d7/vVQO3E37Cs/lHZfbKfRU4wHlAqgGThxXlopkijfMBpi2m/OaZs9Vnh9lM4ZSnrNVx2lzNqHTa34uSRt9WjwyopEAkX2asFYCR4/1or8/JiCGY//Y/ZtPxPsGb/YM7FpblaXEcYPnecseL4cOXcTePTuxYyfEPZQ3PV4jbAWZnmTXORNTUxP4wz8cEq8ZzkvBRJWJeju9FlcUUWWA2N2l8lC8/94UWtvidD9xef/Q2zMIhiLY90gzOuiY46eyOHv2HF5++SA6O+ka14BXX/0UP/7hs5I88fQ5A1MTKwTCetHXD8wttNP7CbqvfjzyGMs+kmMkFS8TOLs2Bhw+No59e5+WnBcM1NO5RiKlPiTSKwS2Q3jYVqgs0b2vppqxkmiW0BSV/LKD1nwB586uIBjN4OHIJiGoTM59gQYs0wMdP27SdXQCXisEoiICmKemsvQzKhZijv9nix4kXlFfM6Zu84UwN5fH4cOcOTgsipqqXa8W6bNFlz7nkBmW2wzOx67n8Td/G8b4NSbpIRTzfpppAWUVsRUKK0TWjx/XCOAGML9QkjnAihsueXno11mEg1EC5axl6YQlVQjCMt6cEI6VSOwxdexohn7XBXCqWRGUqhYcrqTRnNZ0BiwN0k+8N2RzMTq/j0h/m8x9UVTQvRsIC/Bm4O4L+AigW3QeTeZooeCXhJxVz1+v35wuudek95sAod8CYLuhVvscdyunHcwk1Ur8tG784s6skl7G8PEnKZw5H4E/WEZiJY90vhnpjIYPPkmgYDbhqSc5l8QtjIx04uln/RIHbWnbaQ1fx/GTRSFFbSRL2ALPJJaVhrGgWk2clNWve/CnrhLPFYs2WdYq5DoSrBBnx/OubBP0jB0qyElaJUTNV/V40kWZgvLy4XM12MpNUVbZCb/4eym7VjYb29jbiRWovKYLdmU6Xp8sV1mOOM9z8SJbYL/ESy89hr4+tSYvXRpHNBrDi9/txPwi56u5RZjEJDm6Sc7zEfWdSSfbs6dFktHemgljcjIvuRRm50Ek/BTJs4AoACX5vjaMdLYonkXs2biSaMfoxVtoaBqSxGpLhP+6+nqETCdILs8uGGhq6yCCTXJ3nBPjjtJ9+/Hqa0pRkM52Ik0LPZHMSlncrk1xWfvHTwL//Pok7V9pukYCLS1NNN4xyevBn33wEcvxVWzqV3mNMrkwllfmJInlvn0Qz5yywUkwmQU10rVMHKU91Tiaovss4Lnn2xWeo0Erc2UUHj8aEMNQyjdVmcNPY6PKMGp22JAzQZSXAv8RENyovIt4POIyLrDYU0BhuuIKxOOGlbqwFbIcisHPz9i5kO+ne82JyzorUtLpYVy7toTZuRV6pgC2bh0SrMjJXt97bxJjV/tx43qB1oaOpniz8piSPbqVnrdEeLpDJmd+ieUpu94HMDPvw6/eUrfPVnmD+8aKyX1xgmVWEPAzsUJdsrFvRGH4ddd7na9/U6LwmyHm9gMbReXSZtkCg13weHGwZsuwN1LWlglZ11UZCtbyJ/Mqpoyt7CG7DiBrd/inY9EQFxDL07cb7CWl/ak+lIEcAxUWMiw4+OW651iVlwg5+7iyrd1zkvbcqTsYOLLQcgShaWtpnXPy9SQeMwuX6Hnvoe5560ysqvesmu/b1+N+ZGsUu3DzAlI1aj0WkDpae5cTmcqljy1HTp1rfhY2enivvaaO4O3GxlG66KomLSehSKSV9ck0upGine7qZZVddnQ0RwC8SeYOZ78s0c2XaJJx0gt2+SlxnXFLuUiWeRET0y5lirRpGRJj7pTj4t9BYK1cCki8czKpEl/xNbIZXhZR0fJxArWOzkYVtyTWQH7QJprPQXH5LRV8smmxtbBciqgHtdOrlst+6Stxu2HtL6NKV+V9hz5xP+MM30GsLKsssXw+sxyEo0I34f6qrCO226mrSNU8L6i1mCdinvCXJGbTGbOVFROzE6sIRMMqS7NoiNgVz5JMnW+9pbIg5woqaK7kjLFn/Jx5Y9muUs4zVPHpWq3Ues9+Jy3R/Q4Of1tkfCOtlhB4ybhW6X6v8q1ukwNZeMcwMVnEzEzQVoiF1xzmVeg5F1C/+6FKdJmi1LLoBMkk51FYVUomWuSmlcfExCQR3AgBmUHJwD07k6O9pUBylYAKCVTW9Hd3NwnAk+zYJSXXEkTgPvpwnsBYJ5HmNmzeomLf2DOEExJOTRZw88YCEbxVDG5RwGN8vEBT3MB3vxslAA188hlnq11BX28LnnqK9jECWm+/v4zNm6Po7FPy+4sTRAZDOkJxkiG03j/8NEHEPIm+QYjm/yyB0DMXDDx2kK5NgHN+uRHXJwowPi2iqyuIiVthkiFZItwzRMbbpZQN74csB9nVcGLKj23bW7DKlm12hTcjQvjybFXwh8Uqw0pFBomG1YobEym8+0Gz9HE2rxIAFYoqjRTLI1bQiRLFYrJQoLWdlrHLpNnCnJLji5JRvxHvvKcAEFuXxVNCR8USu2Y+aMhlfASe6AsmdaYRUd+p2nCdicC/MGoPCYg7/Lk9JtM6xq7R/ZRDNLYEJKUuuiaTk8kHy5k8ycSbE3nMzCUJyEekvBW/f0ssVwuIhLpJLvvFsi75PAh0cqzie+8pWXyTQ6RWOVg0JG6fusTTa1IxQzkFsFVeZdXm8ROlgRmj/qvkB3G8zAp8L3T9d+ncHBo1OZGU0nCcgM0oR+x6mVq17Ku3Hu9nmfGgVTetMv6arXQ2NUVG8+KyF0BuPos5mp9gLzpOoslKTC7FRvO29FGS5E4c16+t4uKFMs2bAbS0qhwvpeIAzW0db/86gYWlJgwMKBLOrsKbehXWGB010Nvjk5wUTuZ9Xs8TE/wzJ5m8eV6Hwxr6+20376z6yclwhWQ3KjnIxIxz9LCFk2WDg0kZszLZHrvKLt2LEpu9dWtMYom51CY3jsPm85/4kq2pC9iypQPDQ6rywezsMpHOVrl/9oD5/PNpSd743RfaZQ1+fDiPDz6Ywd5HIIaWz4+VcOLEInbu7MKBJ0lejpLsPZxCY2McB5+ha9La+uCTVQSDAYQbWgTnXZ+MkFzKu46IZy7kEfQ34uoNpVxN5jgcqBmHjyrvpcvXSrT2C0hmVojwcly3D9t3NUiFmxMk16+MlTAwokq7Mg69OclgMorTZ7OiaOTklaVylLAz4aeSX5R6IktpmK9dTcrYJBLcV0kaz4j0OXtLXLyQw/SEhTNn2FrOieRIDmdi4jFx6RKk5rip0cbkZy+isMRULi0x6EzTtQz6vkUyTcPCPOHZgl9ldNdU+VInIbJTppHPzyS6LKnoPUl1BZ/5Bfez8oj7p1gO22TE75Yyk0Pp3PxcjPmmpnn/KdE+GJQ4/XyxExzPzsqGNBvPliO0x8TFG5WrU6ysRiWUqI2OzRbCOPzFHFaXi3RNH2I0lkkuoZrldCS6ZH6V0CJL7SmGuGIRHk+XceacIo8FyfERljLFLHt53Ms5ew/iW3fD8iprc03bCHG/j9o3mvyNJ+nEzRJu0aCGAlG8/s80WrQRDw5soUFMork1hLb2mFs7l5MANbUqt5Dx6ynJLt3Z3YbOLl02ZD6GiTkDNo6TlRIDNbG8VYrpOgNh2bF0XqDAigGp7exXFhbWBHGJA1EOSMZcUzRZPpJqvb263AMvSHYx4YUQqDGCOk3Arc3T2BWYs77Ozyn3Qr+/klCHgSL/zaQ8kSiT4OHs4Wx/ZeHKWrE6KEj2ea3qGWXdeWIBPHzcLsmgztnQoAmAZYEs2RdpNxG3F/6nrdd36g2jrNNmkyCgZqC1LYq2DgXC87R6LDuNomWrZflvJxmaVaNdcNI1aLpF9xNRrjWSvTSDi5fHafEF8eiBbURKOzEzlcahX7EGrozxGwnsf7TJHheOgwnBT4IqQIPA2TXLvDvaYdwc52OyGSnM4ItrZKtkbyKHuLwCLfYyoTCf1UjzScOHH9rjynupjzWInGW9RABPkXbOZp5K8Hi3gWtV8xOwQL5+TWmU8zmVFEkJQ0PmBsckSsb4FajN+W5AmAiTAAp5Q2poHjqkyk5wxkqOy3TjV1HBupaT1Ame+Vh7LV9ASBC7Z42NKzdcLinE7/McNy0nQVKQBLVFoMHAq6/6aF0UJAOypNG2QYnXbUKuX6twcI5z7mM9oen9+S0SoP9Sm7ORV63a9RQinFSxYEnWWznMM951dXNazRsyQXw20G2keddI65AoUJldmHmCtZJsLJLc4dwFyyR/LQIVCZIBZZGPZSkMayHetELkvY2AEwHfUp4+L4qcmp0N4vLYCk6c1bBpoAXNTRyykSeQsUjrN0fri0vVRPCLV9k1LkXz/RLaOxoRiO4QC9Fbb83jFjHGkRENi6vNYg0+e0bDcsqS8BoGsaNXAqret6aUzR99tEyytQEff6Zc6C9ezGJhpUNcWJl8zi3HxSX9wpU8kUouh8cuz/RzwsS1GzcQadTEUs8Wp1tzrNDtxCzteafO05ol8J0zwgj4Ob+ETwDpHAHLy2PqWFNrpT00T+T+Fi1P6iMtAj0YFmCpEdvnfevkSdgx2gSMyi3iLqg22QgKSVPJML9K/Hbqi6LtoxpQtaG9Y+gdU7f2NmvSm6oH35k7XkWhsBqOFQgSCDawuOST0ILUalzVKArYiFOvfJ/lm5Tkpv+MQgNKGU0sLJ8fUYcyMS4kusdgLAAAIABJREFUG1EIBhSQs7/PioZMVsfR40WltbW4L8JOInnZFxxZ6rgbla2oxKF+eQJCvLN5vnBEee9ZlecpEEC/Pl4gIB2SfSCdCtAc1GwFZUDFltfilNr2bVA2/ktvdwveHahlu0JqjmXS4AkUVeNuh2uImwvNN14/hVKUSHkBN8eXxftibtbC2FgSoXCQCJVGc2eA1qZJ8y6Hy1ezaGkxCD8n8fxzuwS3zc2aOH78GMmjYezY0S2YZWo6SUSvjCtXJwm/5KVyhkZrKxwJEnHuonPrhMeTgrc2b+aEkn5xn791K0ckexZbNg+LcWpxoUjkvYjW1igRWV0UdqPnxkj2LhAmbsT27TsIyxKRXZij4wwMDfUSGfcRdpqmc83h4MEOjNEafO21U5iYmMBPf/ojqZwwOUX45a1z6OjoIvjQLjLovffZYhzBlessB4l0f7yI69dJjtO1Pz8G/Pp9pagYGWnHeSKvRz4HEewc4WU//NSVJwlbnTiTJzmr4dY8e83oWE60iULi3Y+UwmJ2yUSOiPknhxNS9ztJfcOhLcus8dRm0dDoF1LOceMffqwUoOM3FEZkRWTZ6JGwvXRagXzlheCEJGrCQzg0ifF7Lk+bQdGHrKG8cgySa8eOqXAFzu2TSARw9KiKw15a5j2nlXCdiUO/1oXz5DmXkSsf+XpsiewgbJ3CuXNzhDObieCWxFDDQqps+kVhyWFSmSiXl2TuYtJ+pCORyhPptsSbx3IsKHxempOsdGCLM88bjmlXHwQqc5mbXxcPBLba83enp7K0ZxIP4+fLtUlejF+/Y1KfWhLaWTZbVGlPvQlzCyV8eTKPrdvCeGhfBz56v4hUJiEeAbmiGm9WLjM5F6WrR/46z26UAoQ1Tfu+leXS7RsvTrSwVnZ61/G3FEtqVi1juoft1kQJ7757HG+/eRQ9XXtw7eoCFuZXBHQVaLJ1dDWipS0m1k5fgMniJvRuGqRNboKAw3kCVEsYGOrDU88coEmWxgqxm0IhjxCRsXQqTQNp1oyHIoKWopio+HJUHURCy3DZAv/vp1W1ectm+EloLi0tiQW2p7cHVy5foYlYkFhiBoF83BY6LkqsPZ1OkxBbIICYlvtxzl3VuWzxoRXu8/vQ1BRHe1sbCahJuce2tlYScEwI54VUMtEy7Qw6DYQGGQim2XwMqz4xh4eE13uPibbtQ21yP1msURM7J+LxRgwODmF5eZmed5HGI6u+4vVAqGFJTtZDEX5LKSHGfZvaMby5j/ojTAL0gpxf1bHVbZJu2WNkVVnlnGgQEQcBHVu3jtBC10nYJ0jIrIp2bHjLHmzfcYAA7Qot7Iv0mUnnj1NfNmD/I8N4+hmN+hB48w1W4nByMfaZ1NHSruP/+D/bSOgDb7y6gBtXTUQbA8gXp/Hc83vxg++re/jz/2sZC3O6JPlpatHpGBOrqyki36YQDX8gSuMdIGFC4xvMEugPivUjR+CO47vFE8Riqz6JvphB968Ar7jWcAY53olpg2tpj9C5NLHesOKFh7jK2nS71ecwbtCzWSlboxCUhG+6FlSxnaYH59pfkdjReloi+6ceTCLemEVHWxjbRpoxNbFKm5CFTDJOS8YnWlNVd53GTeMHKoqGVJ1d1bJWGweqLf8CytnMZktZw87wxDW37XhK1yMD1ZZaL9Ctut/12gMQ+80373jU2wA9x0kSQc+Y1c6/KlLuVcTUKGWklBYB2YBPfWiS3DXMLM0ZTjTH8qUgFnSOT2ZS7tNVhlqDSLxpFBAIMZmj302nmoEPRtH22zRJnloZpYml+RuJNNBa8ouc1HnOamUi0UGSM2kEgqbIepbzNwlZ8R4Qj8cRDMYIGK+IEjES0wjAhkm2t4hMzGTyCIZ0Of3ycoLWfJlAZDvJuCDtI0Xk8xYaG9pRyOv0GcmWYkSIdZiYfT7P2cl16kP6rMgu50U88tgeUdLeHM/j5tg42ru76P5iWFnKILlAwDIQI9nUIAuqtdUvciyfMzAznbDdsTMIRctoae6m+zPEesPG20g0QEDdJ95pi4tZFGyFojs0jobPGdjaVk/BJoQEFa/1WmWbdzvxEG2V8a2scKGw7mDleEfxF7BDdAp17sGnhtPIJ5SWm/ZojfqFFYySzM6WtZru7MdqKkgC+TKq5rPrAQT7ur4CwlGTxj2iCHea5h6ba1j2SYhQpcM0qFTNPN80kXV2MiJvjOOd2gOZ9u1rPGY8j3j+OkvF2SolEayh9kSpJcV5EvwcuEHHsEcIyRm2kFqcjyUgSirxyNO5TCD/zNDp6TiD2J+5SBiaDQxFwhHL9F5eyGBLS5wwcQmrRDTZmssJ5yAGBa5lr4lhoVjKoK09LriLFZrZbIowWxCbNnWLMaNQzNGxFpHJEmHsVZKLBrp7Ca+2dyOxUiDimxXMXiSiVCgUCJ9GRS5pmiHYJkyMfubWPBH5BsLRw2gmrHtt7BphtgXs2rUDLa0xwlZzuHHjBt1vOzZv3kEEs0CkdEZw9eOP75N7unFjWvLn7NixC+FQmEj7OF23iO6uPgwPc6LZS5icmBTvKMbTjDOTiZzcG1cUYcLMIXb5PP1N/R0KBUm2hsS6zIq8QsEU129NMBTj0px4Ru3avQs9fTHCmssYuz6HWKydnilK/VZGKlEkGdsioQrexHPcivkSwo0Zkrs0fjSqc7MpOo49KU2RSX6/Rn1JWJIELcv6ImHAUjlHmHKZ5K/S5hTpvtnyDl8TWOnnzinDnlNiRGLBl7EVp8SXOJRRATRRCm/f5hdD4uJCGasrizS2HZJAThSJUu5Ur8gWEoo+2luaaa+IREOYusnur8xfQpVjxAXWkMSumpYUEs79keJ4BSMmyYJ5gps0h0HPqtOck2RzdiuX8mhqTeP577bjv/93wP/958Dxo7RnJdMyVxoaAmiI89wkwp4M0BiqMBBh6H5UY45aZa6jAK5dg96fQP096quQdAtV+Zu8SmkNS7CyZ/A//y/fxX/898COLV/h/Ou0b9Ri3t4RwDPPPIZIOI7ZWxl85/kniLykMD5+U0DU3oe2YWi4l8CUkltseea4h2RyF556ag+uXrkpA//iKwfR3sluOqu0mK8RaPJhz55d4tIiadxs8mfaYELtld6R1D2WW03cJWF5x04T0s1AjxcdW8Q5A/jMzONijWHhYdgZgFiQKWulQ1gtIXB3GnPNJshG+QAJjLBY0DlmmC2umUxRCDwvYr4uv8+uSSxI+L6da2+kSWZw+74s9w7VPwZ9Pp9PLAmscHD6RAFT3SbmTo9YLhl3SxGoQGmVwIHuN0zgriGuYi9nZw/Qs/F9+h2ThhqbujYzV3UiMqOlJSbaWu4LFszRBh1Xx8p4442P4NMG8NKLT+HDDy5h4mZeNpyzJy8im+rAT37SgX/3b4Gf/awJZ84s0uK2xLX88sU2ccsaGGjD8uICnXOVNsGc8GW2eku24GJJXGF9BPaffLIDjx8ECf4Q3nozQQSVNrUSCVuaKwHaeFqa4/QdEiyraQJoIRqngDyKT6z8Ptq8aIzYXOizhZteWVYryyVBlbxpiIxxstt5BY63a7zNDeUMeTIM+sSF1fIIDOcwx1K+LimXISmjoVHHQw9349F9wHtvz2JifIZAexOdJywZ5+W25DmKtFYy4k6FkN/WKpQlphicwMtyyLkNQHRWXhUxPNQkLqAzMwsoJjhbS6N4KLB7lMruADeZlFUrTB+0+6d5NT61CpOqOUbrnJWXtJh9NiGBVUPGa8fWm3SjSinDWnh2U8+ItUnqshKZjjSYaG3jmOWCJN2x8hlotMh7enpEPmYzOQKGIdpzmkmOLJF8K6Gzs4OA4S4CXJcxOTlJn7VhZORhAXQnvjxNMjhIoGwrOrtaSbZcx5Wrl/AHf/Bjuo8iTp78ArNz57Ft227EGzYROF0hUt2Ihx7aL/Han3zyKdKZRQz2b8eLLz6GTz89jS+/PEl/b8azzz4loPi//Oe/RITWye/84Dm6zzB+8fMPcenSOezdc4BkXi9u3VrGxXNn0Ne7Bdt37MTCfBpXL08TcDLR1duB8bHrBAx9RORZuafIf4nAGbuU+nsaSbYlUGDfez2ImXQRM1MmEclm2lvD4t7f1RPDk8/Ead8F/vqvAhg9nyISrthzLluiLbIs+wDnoHDCp9jKZBklOzsZHRtly7cn7XI9EIQ671t1jlnjKQFHM772eGfLsbcSh+Bq/grBdrx1WEnC4RTiMkz3bLGSJuCreO/YykA2XDoxtCoxG4QUiVXTF6owc02JcNMwkWeZv5qVuAL2OoCPy3bQ3yLLFBhl5ZCPa67bFlNHBpvOc9TbAmvbA1L+7WvOmDlJKxxFur3H+yQInLBjKWcr6zUh4D49TeQkj66OOEKBMpGoKZIvBVHYGWYAwTDtnwU26OSlKko4SOStaNIyMbBlcw/JsIdEIZjPcXhNO5qbW+j3Aqam5wkbx8ViPje7LIatdDqJjs5ePPLIw0Jop6YmaV+ewPDIJlE4DY8MC7R4++1PcO3qDezcOozdewZw4OBO7N4VFEx29MgCfWeJSF+WZOIsXnrpu0S0l0mmTogxpr9/ANPTt0h+LRAJN7F7dw/+5I8exscfncLyyjJ27mzHlq376fgpvPfuxwhqy3jp+cfxwjP78Ytf/BKffvhP+NM//bc4+Mh2HDlyAscPv4nvfe/7+O/+zbM4dXKSZOtRlLLL+B//41N47/043c8xOoeO3//pK+L1c+itQyQfQ3TdvYQjG/Huex9LjPWOnf1oa2/F6OhF4hKXsXlkO8nhAWRIVo6OjpIssAhvN2Fmeoye3ZDwxIAWI7hD+0lqSUo5svdDWTapkK3spJflUzwhGhCFxupyUhQFw8N9mJ2Zo+OKGBzqpb0nhNOnSpicWCBcWkCQCG0gqGFgsA8jm1WYwKVL8ygzXqZx1+wEmApDeudZSMkbvyqvqNsZfxmjsRw7f6GAUJDxu0XzhL0ZWJFN8kgLuKFpblZlVliSyF9ayNGzFJRLls/B6wqT+3i+lZMkR2nPa/Xj4YcHsGcv8Nln7B2apXmqNKLhSAzxJpVIlG1+7GEsIWR0U8V8VuVFCCmczIpL5hSFnEnfX6JzbsKTT4UlU/7bb6/ANfi4ZQ/WWWu1xgJvq4cfv6WY8hstl8bxx/39QTQ37RG33sYGVtg0ErDpVTEuMRVDrtmZcrmf/XYG961bNhHw2SQbXEu7igHv7W0mYfGYEPhozNaCOzPYmYCegdBqNkV3bE33K2Lck99tX2BZE5rawNvbmdBzjWZVTkbIvG2Id7TubmKvjXSJWJL9KmGGbVlgXFQqqxg8J9skt7ZWdbz63h2C2D3NwRYO93ONH5odx28rz4rFiEuM3TJB9hdqPUYs78tynkX1g4Qh0O11dcQqGkX3Zm7XGZVDeGGLBUPK9eiqfwJ+pcQIxLA4B3z+aZYWeJ6O52RASWSTAZilDjRwDcTCCh2XwZaRLdiyPYpPPkrgyaeb8MRBHflsFy3+UwSot9PcYTcwEmTnQCR7ic5HQsVvSbISjpOanmJhlxerDSejCgdDJGBj+OkfcEbeMG0SRdpk/Yq0utpFKEWE5a8RFLoirlIHSHcTrFeRlQ03zRZaleZNVmh6fq7Bd1rNlwoJmmMWBgcbcOAAcPyLIJ55ej/1E3BjnF3OsqJRZuTb3BLAwDCHkrTh/CiXrIuI+xMrTVYWiaxzCQ9229NZuLPXQA6b+uL4yU9Uoqhz5zvEq4FrVF++NEd4lhNLNNFxYVEEWWZlzYpBc+P6pwftN9XWIwxV89cg+exHMKTJHOOkOJz8qrosoCVAyGQFloAMnw1mGfzYqXhpU/b7Shjc1IBwIIxUaoXkYxa9mzrxO7/bIknViH9jfv4hAh9JcZU8eGCPgAEGRJ2drXjuuYCKn0up5G2c+Xh6ei8R772i9OQ633zps2c3iewaGoaUybk1s4NA0iAefRRiNX/uue9IuUROMMTuihxvx/vV9u0cchQl2fJD5AsmyQ1dktH19uzD889txeBATOI+CbPi+We30vmewHeeDYui6tK5JgK+j+IH398tWOjUqSY6PofnvrNb6nF/eSxO63BSYr7/5I/7cPosvzeO2URKLG1mMYWWfpJrTzaI8vbVf16UWO7HD/TLM42PcTmaGepPvyjQWAnb1kaAcUjFj7ISkoEkW1s4pr+rp0FCfFZXLaQSJZFhUlecxNb2vXFJ0sTJiTjHxLpWinrzxQGWvjrfq/d9r/KnSklj4wHL2bM5B4Htb8XKalYGiiu8KeQ61hQRhTfHJCYThliuLR1VG5iQc90xIuXR2RMWBT97E6SSpljJ2HuLrUSdXRHEYhGaPwZSCytifUSQ4HnEQoAGMMfBklZYwIJuKwuKRbsOnpSg8cz/2xHvB6T8/mu3U5jXHuONJbM1MjqnTKdJ29Cgi6cNT9Hl5Qyt7yQaGrPYv38Af/TfBqXCxNxMp4TKXb0yR/tmll5pcN6N3XtHsOehqEynG2M3sHVzJw48HhXXcMY9xUKXIj6S84ETdw3JfXCc+OpqLxKrKtSyg+RbTw/se9hB8msHiEsL1mSLK6+XoU3PYWX5OQmr7KJjOzpVojeWrYObOuhaHXIuDsnr6uJY4l5kM72yjjjp5srqoHgMspzp7FLf3b55vyR/5KzzLIsXF4ewb08fIuGAuh+CDZ1tPxRL+tNP90reonSiFcmlGPbuasc+IoPFTDtmJprQTbJq707OWzWEsH9VrND79qhwnGyyH719fXjq6RbhBXt2f49Is5LtfB9Xrz5K13gIIyMB6S9OOmcQ5m5pacXzz++Q2PzDh+dx5swNel6DtqMs2jpJbpJgb23V8MnHY9R3fvqd+jvqo34qIp0qoMQJBawFtHb78eQTHbI3vPFGlMYvQb+H8NPfp3tLBTA/E0QpY0opXZ1k1k7ak55/QVUHunrFlNIggcZW4RwlO5HbGoW4He4F79uawuEG8ZOSZic9tYLKK8in5kVZPJLy6hxsATUNxTUCUdoPaf71svHIQDbN4RZ+uT/LSOGhPa2i1OCv8Fzg6gCca+DmWB6WZFjny5dw8PEGGUsOiXzv3VmJx5e9Ry+71YKkfLuWEbd33vsti724aE52q/HhGu2cNNNijxI7mavbB9416O2PO61N7/r8FrZvlJhLORkapzYnA7vdUS3e45y4NM9E5MnA2Qzbak4ZpsFsa1LnLddu+F6CvAGhWmsE4klteI6XTL8e5Y1DIhwiXs8IdKdWz9jgi7gOLJXjbO+BuyH9znN4H929nlVZyO7nIfX3ehno62Ell+R7j7PvMexfew930+Tc9jn4EgObSKC3xmSBXiOB8ORTQQwPc0bJmAjFWKwgng1ckqehYVlew8M6Xvwu8Dd/N4WgrwmdtCG0NhNh1Fhrux9bCEBfHGVSfh0PP7QJ167MCpAK0jgH/SqkMRrKwYoYkvSMtZDd3Y1Sj5HrK14cLRNQDCrjtW0R0RzLtbbWOFLJpocNzck7dlBt81zQqve+d4JbksuZJvk861xpA20XhURDLI/HH1P5DbgG6ORNYiEE1hlgNMWj2L07gn37eUMu4dlnIpLEhd1fVzgAK9IpCeJ0nYS5WaANjcYhGsDm4UYBHKlkmfrOj88/hwDnfNaPQr6I6ck5SSrFSi+NS3forAi5Qy2CB+D1Pm280aewfWerJAJiT5+TJzgchaUa559QrErTCgRQA7TeCJzmM7Su/bZVkq2RJdmJebnE4yZeeWULto74MXatA5cvXUL/YBA//gmBuxYnMy7PrTjm5vbQXFM5HBIrXZI8addOldSSwSbLUCbjW7cqsMoJKjnemxV/TKZZLvLfrBwepvPs2kXELl5JMMrW42hYrQ3OC8Lfb25U4IkJPnvvMLBljyEGtKYRswmwkkv//j88RjInJvlLOEnOH/3RHloXQZJFileyvFpd3YNtBNT4uh10jsZoPxYWV/C9l+g+gpaUokuMaHT+OG5OLmJwKIcDjzSLUvTwJ5Oi6H35xe0q50Y5QSBrAv5AI1YWFtnRke5flZ2DmSc5uCrr2iwVJYvxwQNR6Z/TpzScPJmS0mlsQQ7Sxrd7V4hIgbKCTE/TeJVCSoNe8eNTbc2mYSdw8QDJes1b3MabK6XKuMxeTfIGI7WS2nxo0gRJUAcbxf5C9zcnPu6sTNi5k+bNNuD6GHD29CyNQ1xiFQsFDbqlXDM0Oldvb0jyvayQTHt4f1h+v3yJlTXX7WMCRB4asH9fu8yLjz/24UopJ5agnr4WjGxtRpzmzTuHbiG3uigl2XxBtnT6sG1nBzI5C/MLOWQ4Vp9l6XrtgUy7/5p3XtdaKOodx81NPsUZqTJiIpRyVURcNo+04qGHFZ584/VrtCIK2L4tju98J4gXXlAEm5XirCSfnu4SZeCpU7OYm1/Gk09H8cKLCl9MTQyhq0ORTcY13uYotF1vEFMlXWZrKssFTnoWDNgGmZL9nic/J2Pp1mb1Piv8gqFKZQvLxljSDZYi6oadLJjf9NnGGX6fX6xw5HPwsU1x9ZP/ZpnI1xgZCgj5koTOZfaWbEAqtUfIPcdlNzVvxqOPxLBje5soBhtJeA0OHpTwyy1bFMnfvn2f3MPmEfWM/Zvo+22qb1iWcxw+y2r25uT72baZFbUBkXUsQrbS97YMPyXKApbFHDE6PNhJe0kBS4tFzM6uorsvin2PaKKEWFpcpvvswZatYemrDz+cIvmQF0+ZSCyHbXSvL9I4cVLS0dEE9fEkydwe9PW0oImWf1Av0hgSWbWKXJwSbc20J9BeOd7MSZiXaWyiNGZLUupRsuCxD7uloV5bUz1Jr4yVaXMUn53vwORUav4sGtp86NsUlT1obs4gDFZAQ2MTttO+c/AJzofiw+XRDHJpS0LGTGMJu3Y0i1Wf91pWfvDc40z7MKdp3Oxya0T4h4b2yV7I+2s4SLg70C4ewD52gde6qY+itB+V6FxBmues1FA5DULBIVGSMO7WaM1YJEMD7PJfVhWHNJ9tlKxnbdqo3Kwl8t+i9o26sq/RbtTpUFYwSiiOrf1xhKFleWSjVcMx6OWrM1iaV5CuM3iOha7KGuwRxi7xdhJ5eJqbudy595rHdO7ZvRfPRR1rsze+1rlWbeyK+/y2VfpuyLnTnH6renCr8qHm+R1rf6362+3WWou4c17vz6+yEBxhY9lu2PRHEwHHZtbmWkqA//5PhwiAN8g9rCxvQo7QclenyjD66CMdtMhXMDhgYcc2FnYlmVOyAfhWSWAkZTNrst3uN/WF8MzTcfz93yxhcSGlcF9ZjW9fb0QSoS0vJ8V9PRpplOylUnoDWdFoaI7m0rHkaHYG/Spw6bB1rzbE8/NuNH/rzmU1iVwL/rp9zzspu8UZ8MeD6OkyacMjIkSbgF9fRU9Pr5DyWJQfaEmezqSTRuj4zo4IbVq8OS+LNZw37cZ4mvBmljaADPWRQcJVoz7WxEIX9Cdor2iU+4lEpjFCX+b4zO1be1GgnzfHaSPIzlK/caIkS2oHW1zLWEicr/4zfNsA7Ld1Q6glWRtqjP5S2LqjlYgtcOUaW3lX1Akk1MGQVyBQxL59DaLdv3EjgYX5jICyru5emkNprCwtyEa/d2cTfucHwP69ECvSse4YmlvLAhJ47hmOQgzKRY6XnWHnbeBoC/67MQLXg4SvziS0xa4Y6Ohze9vhehbxq4kVyFHJpiBNDGB2cQFWLmvRyvFB+rCntbLVsMqru0OFBPLnHNLOcmlgoEkBD3qPiVxvd9D1TmLZwdVJnMpjfJ7oI/QdWmMrq3HJHl8gcdNHQs4faJWSa5cuh6gPwvIZKwqefCKMxoYmPPuMSvwzcSNF8i1Ga3YQ165ZaGvX0c/X4OsZCyQLCSxFgmJtCoXLeHiPqp/MHkmnTmQQCTWQrGPLWw4d7cpbgGUfxxnCYoLJD2MHAbrzw1f5WzPgI3IqpU+JHRisIanNyA619+h2b2p2BWWVUEmv8H5W0McDBDZzUt+d6/EyFc9nEwTwWzE0okq4nD17k/qmiZ7blFJ6u3erQVhZtNAQa5RQopnplAA/i4Q8y/Ed20ICSs+P+okAAINDSgm/mjAJWDYgscq5XRJEytullBGT9nCwTZSKvQPNeOQAEwz6/hkLN/MrtK80oLkpRHMzj1e+xyWXNBw95sdYasV+/uDaZfNtk2n/mtt65Nz7OTV/gy4yrbU5jJWFJPKZNOGJVqnkwN6iF0d1IkesrP7/2XvvJzmu7Fzwy8zy1abae6AbbeA9SBA0IAna0Qxl3hiZJz3tD7sRq9h4bzdWsRH7r2xsxEpvd1+spCe9nVmN9CTNSDFGI40jORxyOPQESHigfXfZNHvOufdmZlVXNxpgNwlw8jCK6KpKeyvvuec75js9ePpJ0iFDCkCmehX5sOg2mg7Hjg3j/ffS8oyeOqyOfXi/AsHtOgDZMZ+2kA1byrnYzp7Lak4xY48aIMfZQOExzHHb3Cd3imB968S+NB2TDPg3B8jqx97SejruDBCh7fdMRG/Z9ts7ySSVk+F9cDT29OmuEPDTcoEDh9Q4sV3I187gOn6xHNSJS4F058hg9J51NZfx2Zomgh27o6QHjx2ZEPLnjz5aRpHspKlppf/W10cwMTEuAJQZyq9cXhPH3dDwEAYGLExOFXDylDreo48WUCp1kP6vqjXEZa1ZQdoOYDPXgFcmNdkri0baZpb9gHTZJN77cB2XPl6RdnoWyM7ltHk4aOX4aIU4/LeJMhufKNe487V4pDvT2TIdfwjPPqci3j/8oYNbt2ooFC1M0P08Q59f/IheH9TJBuTSWULYwaLS/6OKfb9aIXuP9D/bil0dqyh1lGhNLuLm/HWJePOzw+vTqZNdZFeO4PXX30fdXabfcV34kHp66piZHpLr++Wbq/jJT1bluedniNfHQl5F8b1GlexBslPzeRQ6s/IbszPBj5d+ouXvz6nsPDBvN6vbAWb9Pg5lPSGTAAAgAElEQVRownZLiPCMAWyKSCz2mR3Tlu2Q6yYBOKvl37g4dgSIW4tf40FPA1LD95uALKvlj/j2ljHIgg2nUueKOQHu+Rm804JirtfCth72LR0En2SixM4tisaCbt2gvmDP6eBQB/JaR9UDG+X1DmWMk7H+td/uIiP+VOSxTV+mzw9LytTw8BIp1Qo6O5kssAPd3es4crQDjz0G/N3flLG+dpv2qdHkz9L3dRw5MkDK1sYbr2fx1lsXVaaEr34jhwxbrjkH910WQBxNH+mnHMRvyWke29Z7bQXr2xGyaJn8hcngOBXckZPa0jbOCkEtw3XS+lxvmRKYIBHJzmINs9NdBJSHJPNg/5yjyY9uieITnrbgGgLrGgHvlJCSZDKc1j8o4xrQdvXapCy2s9MN9PX04+aNOj784KrUqu3fP42JsUFcufILWnjGYRNYy1hXUMzuxRdfUF0JlslOff3nBII6J7C6msX77y/j48tVMoQ9uMLQXGgep22PS8v7T8vo3a5zZTvzcDvn2Eo+jXtuvQ+5Nk4nrkqkotCpIhawloW8iDNRAr9Bz2cNHYUGvvpveoWx/Lvf6cYrL8/Tc9iHr/0OA6IOvPYzmwyDJbz43CjNQfW8sGE6ODQhJVFi9GkUbUqNxIEUKHBrjFPjLDWXyXZoo83nstYb56h+X499b/ibjFkkegnRtq2+32qF4CMhdgZ4Ka3fpeUlIn0uUNTT7+0oI8sIR7YmJ4EZrVYef4wP1CtGDB/n6QtdEsHme+YoxuDAo5L10tPDkRoG6t3o7Z2Q9P2bN47InOaoEN/nYN81rI1yLeQo6cUMbty6Qb/PFHJiUNfos48wOrIXR4734MOLZRlj1isCu/1VwuOWtDpiPdNgtvxAeT5T6Yy0Gmt4NcmA2DdZEmNtccHGxXfL2rCM36grURlpO8qZNkFNotgZsrqr1RrpJFuAbDZr4+y5bty8ycR4FQIaWSFsevknr2Js5CCeeXpA0lUra2V89atHZDy5hICfr9HhZQy8MCQRujdet/BT9yrpMAsL88tC1Dq7rx9nTnPEfI1UqofhwQ48TuBpZnqOxpTZn1eFfNbyp+VByKUv4QvP70WtXpAygw46xsFZ4OSxNOm4Ko4emcL0dDfeeveyZFcxm/7SkkMG/LI8FwBdSDwvbhsg746ylRPtk+jOe5Xd0j93c3335FiM7btZZOJO9+Y14BQDHD6SxaNkV8zQc/g3X8/gvbdukS4ICMioEpnf+eoB/OKNX+DhM50EYui5clQEu6YDMOK0o8/42Tx8sE+V/mrJpFvO6ccCPXZ0A60R1RCAh4EgxTfEFq0vysgmfaKUpylzZP4g2958AO0W29pE6kMz37q74S9XakKAzK0vjU40tibr/lQqspdbz2m3cVTcUaxoP+FDhorEM7iUSLDXHdZmsw6d2TeOfBbSDozB9NNP9pH9NCbt67hUj519vNZVyJ76g98bxPz8oKxVBc78zbyPwf7ryGeY/2iJdCcpB78kjs5iwcWxY1n89u8CP/pxEd/45i18TOCctDZcj7mcLNUKs55BrcrcLcxlJc3Z1fiGGKFOv12DxsgVRycTmZZKnaSrCBhnKqTfgLNn1PV88H5dSkE7CqzLSyoJSToj3ZASqHp1AV79Gp37jDx/Xd0Nuu8F0r0dZBffwukzaczOTOPAwSz+4dvztN74NAa26L1DB+bQ082cT3kC+2vo7blN9z+AY0dTOH5MOaHGxzrp3rI01iuS0ZTL17FnokzjP4j337tCz4GLgeFxDI1mZa174/Vl1R6Yfy/jLQ902yU9Bpv9xg8yeN95YL6VEbqZ4tvsffxQLfnjCsxGO+zUbxC1C2s5YhB5A0MdbrXZdxOQu5mzh7cPvY9Wmx3Mfttc+DaA5yZvwibHv9eFfIc9V8ZgZeF/0k5kBjPQNdEuXjOKJkOQroE9m+N71KrCfXyfOD+ImRlu5ZHGw2en8W++PC3eTk5vLXUXhemTAf3QyDopiQYpnCoZhllJQRob34d9+4Br18mE/MUijXuZlFQBbmMVQ8MZjAz3Yv62T6DyJo11Jyn4gmrloD28vm8cO7GXIYSJW/VG4mkXVss+iG3PoDxVJSOcnRIrdC2DGCPlxWR2b/z8igLnwjSqyYlQQam/i66vJrVETz05h9/9HQsT4yo1jbkN3vg5pwZflvQs9oE0/Ct0jKt46tnzpDS55Q8paZcJpzrJAL5Ml/AQnr0A/NZv7pWUu//vGxX87TcvYngkj/NPlkQp/79/+THy6aM4erAT+/ZMgdY0SfFi4VTdPWPAMxeK0hf4nXf68Bf/meuybmN+kWuPc2guxP8ED9J9FJGS7Bu33Rd3c5A2n7Wiw+0KP1vmetotYO3OFR9TK/ZSzcYlkCpEwrKArkrbsqMHeyVi+c5bb8IO5uk1jfMEgLoYozS45u4dPPHYUakLfOHZAj1nBfT3EoTJqGg410ZyvaLoSG0oBXZkbNr6c6DZURrXz1L+2c5ZitjG5nZadJtxEMf1nB1s9PnyIlrM2jEncsTVGFZpWfqaY0ZsPINKjq0dw55OSTTb8tz09PZ51TlGInAc1dBJMzh1Ajh2uEucARwtOzinjsPp+Fw//b/+Lw/Lv8zee/Uq8Od/8R7qlds0H/tx+mQWly41yEi6ja98ZRx//c2sRLf49AzcfXcJe0lxjI4W5BhvvPE+GZkVFErdmJ3tlajSG79YwPLKIh45WyLDjbcBLr5DyokBKZMlaSeF59IB0su48NwE+npUzSrfD6f7/v3f3SLDkbNpuFNGAX/433Tj+//M58+L3lpesnH149sEhH25PwY1M5OLuPCUKi1gnc7Rr8MHuiU7iltLjo+m6P4Okc6z8Y1v/Ewi5zOk3znFNGW9TeA7j+nJ07K/p50ms5OdqK83SI9dRDY1icmJVQL7zEhdoXXhI+RTPZidGsb/8N8P4utfp7HZ49Caw7/xOHoGdEaHxWmbvfjXb71N70bIch+Xzh3SzjJWAyqPix9x7OyIk/E+03+fmnyS+251mLeC8rgeCOLfcfi4jFJvGk8+ncHvEshiqo3vf+sSpvfWcOSAQ88oPZ8jDNrYYXNYyrw4eujpNHA5vNV82mIsgt1W7NZHpf1iEuo1K/pEQDn95zimZjnQlKxqM2cLUL6ZbG66Bi3/tg4wR0yb+XM2HHuTINs9gfIW2eDwaDmu4D/9G3Vk2RlHAHT/WJghEL+0PJdKcaS5X5UT3CKse/7RAp567Cz93il8/NEKXnv9FQwPzSOb7kBH8Qrp8JtkU87g9/8tR6dzWJzLkj01Ipwma+se2aMOfvYq8L3vfYCgUYCd7RUS3Sjbtk46dZ5s3X6MjBTFSV0lI/jLX07j7/9hCG/+8heolcv0KoATeA4fKOD0iVlxgCyvrtN1Fen1Hs6dK2Hf3mG8+cZFfPj+VVqTr2Nu/zAm96WxuLgHfXRP//4/zIqu4meTncjHT50S7i92xPK/vBazr2fP3im69ikpz+Ie9lN7s1LixePK/Ai/8VvnxbnMfeJLpSt4+kIJzzzdjx/9qAPXri1j/8E+jIxxCRHw2msfIJMfQlepl/Srg4WFCv1LJ3PtaIFtTV3+HMjupLJvNUD3MHjhlLY2TvOmQ+/yD7Ptw2/hxbHaXvid99+RW9vp8dnF46k5x4PFLs2a9vGmBKBb0GmPUAZvJh0p2CwphpdeOoo8WZasQFgZjI6pSB5HiNkr2mhkRDH9uz98WGqxxsZVXWqpVEFPbw3pDLcOuk1HWyIFsiKAwbarOHZsFPumLLz1S0f6RXJLJO6ZDKtIi1xWWHz5IQxc3btUmPHSUU5tWIu2ydgZoGUUTbi9J+PQ3WXjK1/mSP44XauFGa6dXWamzHlYeQed3XlS9hkUOkqYmTuMg4eBSxfLZIi/j+l9a9g/14nebh1FpLHh+tyXXnpE0rCY2MVOncbZc1N49pkOvPU211yuS/eEEiH52ZkSBgd8Ak42+sj4HOgjBfulPBkez5FB7EjXBObw+rUX9uPYIQWo2CDluq6sXugypE/9nLo9XrjYsGbwxSlPgccR/w5shD33IPeDURr7fYNWm+ReJLwnT4Vi40Zia6rXncTkgpvnzexnaKstND+vrbaUbr4g+piBFhMmWgqYpyW6sSZlJi+8QDNoPk0GRRqXL18kUOsin03hsJD4jKJWXxYvPr+yA+r0KjocSH0mGyAmXT1+ehmONiAardsFLe/bSOhg1WGlzYB79O+duRDCkp+4Q0B7da2mByMG/s1lxNa4yJZWsXyJblgppseU7zgy7+uNhFQ8G8MWlsok4PHkKM9Rnf7JRi4D4rUv7KW514W5GRX1GR07j/nFKhmNPB8/pt0PqoyExjL86jUC/Q/joTPANQL1H763guJgEZmsi0cehkT5V1cyeOPNWwLoObUxJ2ms6zoqk1XXz96gxjyC1C0y3iYkOn35En9TwyPnmFF/AFcvD+Cjj1z88pc/J+N3lPZbJDXqY3iwj66BeUeexZlTXXJOdrSODp/Fvj2KS4Dvmzv/dBZVNDLLDtth1vf0NNWYxOqEKmWaUE6Lxx8dpHvPSf1kdy5iU5+k7595apiMwYLUte4ZO6LIWFHEyvKMtEFinXboAJ3na3PiLOGUW1t1vJIXO5gGBmqYmCthdnqfpJHevKFqf21tU3L5FGceWLrtn7tTemu7x7kXffSggP671bnysKMZoMed62bR4snUpJD4R1wn3ZcisFIQh1k64BTtdfQfHsUTT4xjelKlXfczR1Ipctw341/WDUbpfpI1sPXG2y8MFkxfnLv/Mbfjx21emNptHffuflbSSqW/UVqvTviICm03bQJT/JgMkA546UsjugUo17l34cbNp8DNHXpY547vwXqlKDqXy7SeOt9L+kfZpj/4l5s0dCukX2ckpbxRG8crr1wWImp+WLksp+GSXewR2vZuYd/kCB49p879yqs1HDqYxuuvcfr6Cu28BCcoyLWPDDbIdkxL687bt99Cd+dpfOH5WbGVJ8hOfvL8JJYWJqWMiUumuPbfdIrq7Y2cyazDuMbfEFan9Vixvz83q8sdaEDy2i43/o9sQREEsq7j7zs7pxSY38P96nN0XTnhBlhdU73W+/vL6O0r4tRpVZvxl3+5JM5XpWxx9/McQHtj4f6S3a0xv0fZdKxaIgzb2men5bP6Ie/TB2g3RS0cKUSN28xiEt+meZ6xUhsfy4tisHU6KUfgZDv2aBoDjJQB1yTy9kw2yKRmHFUulTK4fo2jGjeQzy2hv8dTypjAY4kMtePHisKqubLM6bgXsbKqqIc52pKnE5UrZVRrdeRpkR6bGEKZDMIbt1xhJ1X1mYi8fOKedpU1yBa5Hfs+vlaQEnYsD115G4+cpveuJXVEo4M2fFLwx4+WCXTPYnKqT5RosVNFkEZGOcW1gHfe6sb+aQddTAKjD8uAh+tPX3h2WgxkjmAPD9tw3X5FqlJnI3xBUj8ZwH/tKw9jatKWWtmMpcZs/xwZsXuc0HZh43eod1rqtVi5topED7VziiNokoLMxojPi0uOhqdP0rXuWuK2x6dlNG41H83vy6FOZmKlB0iTSm9/HrcATybvUv3kua6AH+i8el5MSHY7jPYGMIbgj0A1t8Njq5EAuUOr78hICV3dzHzO6cgqihg5AVS4z0479IxYAuje+yCD29cqcHz1bGVtdsRUkEsvYmrvJEpH6dD+JH7wg1dpPtEB/UFhYy1Kn9iC1JhxNgE/jzwXpf7YMgRiHsd1mnR+u8jMJ03c2WmsEecNuZMR0OqotVo/l4uzYQxdS3JYLUHYoVkbO4aJuprj8J7stOTaUnNNbEg9+8y4GEZMfMa/N/e1XV0rSMbRQE8ZPZ0rZFx2wfI+QFfXDQK1CuQyif7+2SyevDCH1XJDarC57KCjsEyP+k3h9mCHAetM2y4LsY+aBmXSJXV09JWxZzIvOpQ1540rH0td49Teg9g3pSLob/8yRcfjbi5kwHbflvZtffSwnTwJHD3Shd4eRUTEz+bEWEmiNeZ+pZ5e+5Y6NU8JS7kKyejhSA/fN6dJPvn4nBjEpY5YyQEUSdXjj02Lw5HHR0oSbOWzYuIjjngzUSgT0XYegS5zUk4SgVa2WnMYhB05PIzzj0P4NRa4Z7zHs8SDk26gs4uJLx0yND1JkzXt15p/zDay1cO6leN/Jx7yzY5xPwH2OKCOg+i4YzH+WbvxYa8JEw4KWQ23ILfpmcuLquSMu4BJumytsALWUq4Y0/zc99Dz9OILBzBA9gI7kJjgjdf/jFbXfL5268En1WPRTW313nxqbfjr05F2i/VnYdy2eqV3XthGGhyO3vcRAB+dUGflpg39gxatgf3CgcIm4OnTGQHxS0tcx97AEH3Pzr9D+3ldzSCX4pKvq/T8LRJQDpAnnZ1J1bC8vITu4hrp7Q5Ze/KpVXTmOmj7dVqLl+jfEn1Gxp67Rs/pOgbpQopF/t2zGBlQ9fVpqfVWa3CgOb8yuo86O1lDbix9L/zYFzRJYKwaWWePNU+lGGVo2B2V13shZ+7WY5XmcqtIjSyuAOfOcunjKBqkc2enVZyLiUwb3EbaNw4VfDaPzy7LfQnMW6XduO92dDyR+0Uc/ftvbqVY4f/NR55SGFbUXqL5iNpw7FbgkKc4p4U+/lhGFlFOoSl1NXBwfwlnHxpDJ5M/+VzrUiNwvh9zBEgvf9yBzo4h3Lppk2LM4dateVKs9P52Xvp1cq/wpy6Qkfkus41yX0dPCI48k+rO/SNzBLZ7suKJ5JZM62uBTnm2Yh57lww9FxnbI+VcJYOZjNoZxkcuxoYyktKf+s1hnD3bJyn4bHhykF5TNImS3DsyRIA9Jcz5cczfwfXiU9GpuIWFrcdnYryOE8cKyOWKQqYyN12MvKV6HLn+q5BptoFY0W8l4ovQPxUbKgPMGDrSgcXFOrs3IpvJgMftGnufplHYqnvanFtqBlNcI2bJs8idVZrsgNZ/2x3XfOaT1Z71UertogXZx81rhF64P4rVoRhYLQUK/Hbp8rFrjAO5TJrrytK0QBfpmWxID9o0AfOjR0rS9uWnP2F2dY8eUz4Bk7OQMUq/Ds+BYkcXTh5Py3ae24nbVysEviHgnKNFhXQdXcWKLKIH9zOxWoEW4cOYGLUE0HTkFWgSB5nMB569gbRTsWzVystcdKtTPB7Qahq2O/3+W60Xwc6v7e3Wp7YmcOziw+9j16M6PijnnxCghdurkWiK82j/XvScBWo/yxxdMc8xkB2JlTzz95zhwGRU128AD50aQicpFuaTmN7L6ex7pHUR60YOiezby5k7BDbqaYlAc2s4K7hKv/ea6EpOf5fetQS4HQLnAZ0gk1oS8rtzBHjPnM3hzCnSeTcZrBJitcoqMkPHqg0xBwUZrX1TQjq5cJTLiCrYMxFgbKB5BNmY3I4Fw6PAjgkmBzSpww7pzZ4u7TsLHRnczsii+7Aws89pOlc4pC08bvmYH9FTwyPb8XPeWWwgNdYt60VXF+uEVTp/N40/wTh/HbP7hyTafv16Cu++tyC9l6VFavyhb4ddNntYt6MDd9Nuah2wz0pMsNYoGKk/iRGLeoaxVS1mplwlzMJJecgXUyjRmrm0uI5GvYzhwR7SjcyczlFIV3ph0+oKaRVK4J1rycWuoOPRko7z5wuSVSHlCp5a6wIfTZk+G2Ghmdefd9leVH/3pF0kf/fEAF2+RbaZTGo+61Px3/sqgsyBEhZ2Op59uE9qv7n0j7frkNKiQZRXbuLG9XWMjHRi7sAY6c00Xv7JMtlh83CrHSoLw70Fyx2hZfsmBnsCzEx2Emjnzklr8LxVjA4OYf9BtvGmhAiPg1U8Gq4B5BbzOHGGKXfwIFvasRUQFl1pSZmOCbLEQTnQoroCnn5+yLBuRK1mquQjr/VpDGaLDi2Rvjx9EmSD9uODizXkswXR3dk0d0ay0WCvbGB6qjmfO0D4QADzz6NHJJG7EVP00+oGR/i5ekSU4eYwA6YuFOJaKtXr0ddKxZbUQd7OpJIZQyql6yo5HY2Z3h99ZAbPP6+iKylnngzBNL32K8V5llkoB6T3+cs/4cj0LfzRH3G7qBy++TcDWFlZx7PPqKt94xdLuM2hpkC1glDRzxVYpAFn50Yl5fd734HUEq0tMWFSVkXJUw1kCbzbXple65Iy59b7cP4xBuAKlHObpkcemhQDmV8mtmZeo6R4xweybXGged80qoECeTP7MpiaPCLRH1NLZdkb9+FxlQRdeyPxzJ2ECVeeeIKM7/kZ3Lz9Hm7N10XXhoYSoqz+LeXTMAjv5sY8F129KSmhyOVs6QNd5Z4sKKDJ6bIZ0txwTjIMR3rw5JNM5mXjr/7KwfyVeeQKKeSyOYkcMvO9b6LbrRJEh5NTBmX09eZx+nQaR46lZf8/+3+uYXV1FQfm9uApOs8CgaY3fkZGKT2z3J8+k60hRUho4dYSLY4ZjA+nxanzYwYcVkM5gjgT3ueWYnWcPjEi3nAuH2Tm66nJE3INnDInQSaJjCtAbumJaFtqmWcHQKD86m2H967NuG1vHDcr7n2Tezm3FbPYm3aRH00ZH1bTTG0JYehto7kZwGr6UoF0CSfHz2Ap3WeOzFGLL704Lm+YETefOSm1gpzSzezkb/zsKn13Ef29B6Tuu9IAFudBz9Mijh8rSFcMjqAH3gIB9I/p84LUldv2Co4d2oc/+u8IlD+k7uAGOwMGaAerLvWbfH7Gufto3syOFcVA6yqOybNSKETX6Gul4Nh+6JqIPxOsk5yYMciftxLtGd1v9jZjK+uC/tLwhRijmo1MNlKj0WsGGNpEVMz9qSq6OtZovegQpnefCcKcRZrHXZieTRMQb+CRR0gHkn5+9Wcg43Odjs958J1oU1CxUdo5BzfDOfHPN9v3XqR1v9bzfKbCCoZ5S+hl69qbIC396dkh7nHo2y+AybTEUW2bGbKGrlKA4yc6cY5+n29/u4j33rmBvXsH8NtfA77/PS7PIWBQX5E2ocx87dF6nkYWzAvraKeaOIH0ZLR0toXvR06gppkZ/i5W5Gr7tLHqjstmi1r8e5b4Qtj63W5Iu/Ps4vmkVah+CMROav5a7DUrxm0GlbEzeLKZwp7La770BdK1t8bInljHoUPjePJp5VD90z+ZRHl9TUg86zXOQLxOuvEYrdO3cPJ4P55/YVyyIGemaa33M9ICco7eT06qmnTzC/DUYN3p0R8OO5pSCD1JnNkTGKNMWXxKV7Z5TtVbpThZD3PfckOMrGxwi8xbtm95TYscoHz/HL9ouAg5ZNJkA6fthtiFdY+j5cs091JIi1fWQYN7l0qbgVx0IQ/0vFHyYADz+0F26sf+HDw0Oy5bLeQbrdQ7HsAOtV8QpoSmTagkRlFqTNR4DTArkKOHOV1zQhZRjhqxUXf+8Wmks74wIHPaDfdGzul6yssfreL2/C1M7p2UqPUbb1Twyiuvk2E7imNHuQf6EFz3Bq7fXJdj9fZnMLF3DNX6EhlmPk6fIvB2EWQAcM14VZQ5k7YdPtQvdUOXPyzh5y//GAP9NfEkcloPn9cYqQVdP2+1tDHZroTtCLXe5fc5nfpqGFbN9/F6WHk5oRpu/mU2MwLNbwSOrEKirqfPAH/9Nxbm58tkzPSqCHCAsE/8hpaem4HYz8og5HOHVN3s/l5FLt8jfWqn6Hn4T/83cPvaurCeSjFw677A5sY0p66TsVgsFGmsMtLe6r/+7SrmnVv4rd/aK5G4n/4UePlfbtGxuZl2uq2jQrzb8lt6NLar9AwV8OWvAE88qdqS/eO3K5ibGyEArVKEuaesW7uBRjWPgfE0Tj88LMyq//FP6vR9GYHbKc8bPyf5jC3EN7xIZzM1HNzfiz/4vSkxBnjaSb/wPJoI2iKnRCzXNBwDqwmcbOZ32aAatpI76t24l2QLuVuD+U7bBnqjrWyKoPWbrSdXBBPFdIr20WO7YffYHOfIXkYTa3YXVWshR9lA8lt3dcyjv2dV6QcoUH+E9OUf/8+/RkAlLam73Ed8sH8Rv/6lKXz5t05jdYUAzXffJ4PqGorZIRUSoWMO9xEw7+Opk9nw6JtKH+4bL5/Fxsex4/eofhAr9rs421CCUYDFbxmv6Ers2Ftxh7TSUbceM/aa2ZdDV/cROc/CPPvqlpHNreDYiTx+/w9oHv3HfqkzTev2U275Cg28yW5gIzMTHXQ70k6P2Fz2wunYmlQzLps58Mwjs1nwVrcqkIwmE7D6rIF46/mlEQAvhh7GR7sJsPhYWlzD6uoaenu7CHQXcfEicP1KA7Wqep48Tcpn2QvC33KCgPn5p9hp4uL9d6/Rmj+E7q6iRBftYAmDfT4mJrrpWevGq6/eJkCekkhjVpMc2rG5ZcSA/w3+DDMv0eI020Gseq8/0Sc7bVynbuUNalWquwnS4z/MbgJyc4o4sVD7xcNMuVBbxzYLp6Sl2lf+h3/fQ7qkR1Lh01pFfO1rQ/QMD2H+NvCzV26iv68hjsxTp4boee+UjgDcj/03f5NLBfvCtqOm/7m5BnYkMTN+qA/1EAXmQlrXqc3WQkOioPv4Rh2mLG3McQZVOtTxRkzUnJ1a/HeFk6lIf1lcJqJ1jmPX6N4CHD3WLae4dNHF9avLqubcN0yK2PWfd7clAeaJ3N9yDzraimsNKwY8Ww5jlGDrkmCiz/I+UKyTTz+1V0rEc5otlb/nBZ3rZZ96qpMW+5NSq8mL72OPDdCifRhzBN57B5j90sLlK0yAdZP0h42x0b148UXg6rUSytUlAl0lcQA0qjdIG5F2tQsICOD0lvol2sgLfqOcxosvHBKwk47pH/ZsBh73JG/Q3/xFOhbm2ea4hp5QMxa+gkbayxsNkEHqraDJRJvimnyr82n7ztIMqHx/jRtwG52Eawdo0cmqRSN2G+HuTT9e7Ng7HQ26Z+GoZIXuJ4VsvlOMb14IuY88gs67sgtUOj+jmIq0rgkitlYAACAASURBVLPtjNQ4eu5tFDqqmJ5WkcS33oKQanFfZ4nKSzpscw+bsBbM4kjRGhmUg8jnLcm64Gc2l1/ChQsnpY2gyhBZQi5TpsOlsG+qBw89pBxC+dwqqmV2ag0JMHdri7DcdZRXA3R3WHj0kSzmps8LoZZjjHd9HSoT4g4/SAjWo1U/HlNpqw7uBA62vUBvA2V8pkDkHiyNWDSu6f1WpzD36Oi+yXpX7rV84cIMVtZ6JN1cCKktVbs9N5sWfShs0lPAF78wTc/JtDhzLn0IvP/WIm5ev0EGxwkB/3HZDO4qMNx8ae0v+A7SpBuarclmNbn5GFmxr5uP0awLzeUyWVyXJvpaXebzVKTdZjZfQXcpj1xhncBeTpweDtd/5KrC39Go1YWINGDKbucTmGe2i2KXLRH+WjVAvRr7rlVXxvmvtjOXvECiYCEvStwp8FlI6wMkzkzuvFLD+fNFDA/aePmnXXj99avYty8rzOl//3fAdxbrWFmo0TAXJYrneusYmUjj0cdG8MKL6jfMZObpd1ugNXeFXkXJSsqmObNoL56+oPyw776tasw5Wu5sK8VrM9kBJLEB9e/s4e5e4gtdq/eoFZzf6TjbO9tdbbUzp8UGI6Rte6Q2J9P4Nc5xER7Oaj4920qd3c37sn6ZmFDbse517EHsnXxMyNQGBvcKaRvzDvEGvNYHsX3bl1u1uT5zPZttFNcncSdykyc+/p22FGNqNL7sGHWkxsXTL61fbSZBzko2KttC//CtFK5f4faeRbKtU2EJpOu3nvfBkgSYJ3L/Slul2C602FzpYkH16lR/N2s3q1UbxfSlicy2zmP2TDLrOEvI6aUPy2B8Ns+fpYT5nb3uR446mJ0dJ/AEadsjRlrnKoGoJcJOaeSzFYwNpoVb5tqNKoEbVR9cyF/Hetcq6bMKvciIy/RjaHBAyGSm9uzFs093SE/KsIuc4BeVop+yUxpIB7qurhVUtwxh0zBu0KwINZweTYTjiQhchX1Y7kAg02490udnw4bHd2DQwdUrDZQJFXpslNrpjT9z/O9NUVr78+26hLaHWpQtQq0MVPjFKdtsIPvxBq/xlegOh+UaXYfJ2czvTmiXUzLZmZPL6jRdew3je3Lo6Unj1k2OBq1CIm9WVASrMhCq9G8Vnr9Ov0GHPCrMbg0CDlxawG1RpKkAuDZ4CdMz43jmuSKefArSIg/WdXR2lqRFFnMZ2NYy3MYtNKrXCaCN4NgJjrj3SDrzhgBj02N2J8ug+bsth+kBXHjvXe7S0v4k86JF1Xb3AAeKeXo+xiVbyARA+Dl0uhCy9TIjebf2QXF9pDsCnDwxgIX5tBC33eulbwzQbHMsNoDvdorD2vjRHQ4YFVA1ixDupVRavqhp1gFSXsU17L7OXvElm4S/4wjtuXNHMDbaj5/+pIaPP+ZaUI/maqo5WaKNmt7smtNZD2cfydJ8dvDLN7kEgVto5rBp/185nkn7aa0cjZ3D4nnv0m/eoK3SKJeZCC0TLgnBxh/pk8l2j2fzOuJidobGLEjj2rUK6rUFTIz3ShbHpYscDVxBT2kUe/eoErBCcQX5oi8M126D1k/Si6WSg5lpxbjPJFy2VSW96zIPtiKuIt04N9OJx5/I4PHHgPfeZUf5mnAThPe/G3Kvx93p3+Ou5E4L+HYvbIdv4G7GcjOH/5Y73Nnoigca2rkntlUyrc2JtOb5YUcg26B79pUkmNTdGx3H22S5bTLlNly9AtbRnG7RvlteY4vt2aTIwi22/FupG13uFn7m0jxuSECMu/owXwr8JbrGPM3BHJifhlsgq8gPa+AWzo4HRBJgnshnL62GR/hZqyWyGRJr1SqtIdT2BlSoFGNfbDiLpaKNvgGSCMSoCsSL5xDgcpDWREoC2rVhyoc0XFy1ah3F4hJm57idSg8BqRXauEtSf5lUzq0PC/HSY+eGydAZwdqqh0uXlgiMXSZAP4C9hxhQ9WLfXpVOGjFwa4+k5UgNEEzk2+SCG3C9mYezdYhatXS8P2G4+WbmKDYqv80UohWlUTG4m6D7evbZk1heuEyGTgPr1TLdUrcEYzYYevQ3jzfXITFJedhhxvzuBvzutCLebL3dYGNY4jlJERC3DbEQFJAO/Hs03ixLDD+OXooxLw4NT7XPgnbUOGUcPpzFkaPAyz8lYH51Ve+sco49ebCZFLFC+1XE+UOwKeybzVF+BuSmpz0Ddy9YwOS+Ihn4kNZ7zIOQSt3Cgf1TUrLBWSOBP0/Pbg6jwzlp+zK0Gflfk/XRHmZtvuMW2z1gC+6OStyxFrf0NrML7+X4MX3K2T65Nk0T+Nt4cJfndHw7bs/2yNlxVKvDwuS/4SeNM/+0Htja+NGm13pXYo50D7U/Wx1OX4t5wo06Fuccd2iwFDGpz5wjUD5UdmI9fLZfwODHH2Vx+eN51VeSU/xj1m/Tvcd13IZ795EhkHr8RFZaanK69huvMjDnNaJNz+hATkUAUzUodblu02tZFPmt+H1d9PensWc8LQ6ZV1+torxWE71rSaPDlnTsO43ZDqgAEQLQDEaeeCIlZV0/+OcULl68Rc/ljOJIcWjcbWazJj3XyKNer2B0BBgdGsHyko2PLi6jUnWRo3HjMjHmmeFMBzuo0qtO66+nInykO+dmu3D6FKRW95232fm6Qr9pVkCDtH656xtsdz9txuCBlM3uf5e9BVvZPTtycLScoGVCtp2bSiO0sn/EzdfWI204RKtYkTuNcSiXB7LK4HI0MY3i5tAmvrZWCcL/65eA87ihY0U4vdWr0HRAvYDEDR6r7Z9tP1Oqz28C5sKOTLYK603F4bgKp9BA2mFi2grNcwuljpwExa7fCDbn3bnPJQHmidzH0jp1t+tpNRHcOyv/uNkTHTnSOFbLJ7b51KQKa+XV8D0FjrlWzbJV+ye9heddJ9DiY+/kJCbGO/D9716SWjTLr6FRmxfG4Beep2O/OCyRFmY5/sbX17G0fEXec21RRjMdS6AxBKIWwpTl+N20ujK3UkxNntDWMWj+fsvRvEMEZ8Ml0qtB++Tp8o/PAYP/bQbvvj2Gq1evEzB36R671chasWNJ6zEf+6ZTWF4Bbt/y4K4GKoyRpvEn5Ry4NGDMJG46a+7k4txusW23gspqGITfB1wnZddp0agKA3nAdeBwNh4rfsxwQQ3kWJYVhDhJZWsochbH0O8T4OZ69hMngRvX1DPChGLcJ5m7gtv2OoHqdTIil+mZW6K/++mzAQXsbYSAwdYPOrP++2SUOmkySp0cqmR7L5Oh2tnl4MKFPThzBvjgA2Bt/RKeff4YLjzbg71T2x1Ic3PtH5L4T77Zg7Rts+6u7b9dNhh3SloNoDs5o+7WWdXO7+aromKrJRVi4xTz6dnhtAtHMkVswoKjex34dUcx9boqISaUbWDjnf1VtruO3L0YChP5SawIz8ZIKOSd61ZRr6lxYCIyx05JKio73pgojsNBAeu0VGSihSrf2P1x7Nz0+9J+YC6IYkhgp2iVNumpGKxhaKhDnCa1OvDRpToa1VQEMpucKFUMD3cIESVngr33ro3yalWcjrbJzrE+oVkZLUexa9x6Oyag7OhM4+AhoFoFXn+dx3tZOzF57VxBsVBBqaTGoF67gSNHx3HyuC3R9K//FwuXL9OighqN/xiNm0I8FipI2TUy/Gs6QW2V/naQz6ue5Zwm3NfLv9+6dCCwrDZ9Qttc8j2NySdYux4QrbZ7sqPgbCvjxtpkE6v5+y2OercE4/JoaAd70JQsGWhAHT/z9vRe+LgF0fumVflOqLrpc+uux1/0JtvQTpleDbFRJNZEeoy5PvhwfL+5fA2zswMSuLp0cQWd3XmxgZi76E/+lJ1rmtBkM7mjbYywRj7QuqR5g91pN5gA80TuH9nSXrJa/t1ik5C9ZrtTRhlM0RnicXPNpmnFlRO//HBrfqVsfU472tfXRxoby9C/Q0gzO6+r0n/T0r1lnTZaRVcnKZIDqoaIiS+4ZvPtX3bjlVc+FMzJh+btpUOEHburrRy32731ODC3mkmUmja50wG3WqtalF88kmS6iPH/8vk1Mq5qWF5Tjg5m1m/Cb3ZD2oP8j/8T8K8/Av7xWw6urpAxlQlw4lQ3jh2HpG3+5J8XaSeODMVIj3ZSe26pzMWaE0AtBHbyqsH1yKBL5YUsz214OnUyu/XhAgVy+EfxGCjHFwX+zFURbjG8afESEilXO5As1XpJyFws7mlfxL59RfSUBvHmG8tkUAbCVSDjy0z4po5LP8LcL9vz6gTI11B3u2RDzmDIZGxJA2Wmbk6bK3aUsf9QNw4cgTzHmwU/o+uOzeMtjM1txzE/C4tzu0bydq7tXgzuOzi97vpcm0Ze4ztuZBTefGtbRXrt2AED9fzEvJvtr6NVl+2a7ECkvI0zMr7y8EuCz8wm3KihXq/T/PQ0cA9k7rJTNp2ywsws5YezBKFnMilhIpZDa+MwbvfHwXkTWA8CYQzn+lI77CTEB/I3XjdzTgQrOHWqQ9jyb90G/q//s4JGLasAduuz4deF/JQB6eAg3++61h06Us4KL7DVohX//czvHv/M9JYzvmV9eSZTKmjtatUuOqcVWOBVUKmskK4aE+eC683TeuJKb2YmkeJI+fHj4/jKlztU6zprFbncEg4d7pd61dXlLvzFX7yJtbVbtP0Q6tVBOX8xx63zhnD08ISUpZXXbkrrpnqtT8o5OJ39j//4S/jG139Kv/MCXczWwPwTSbv5cCfd8auKyD+T+77TSe1wqx01R7RBZZtThDrBatkuHqvfeAXhlNI2YWsZaFu5Kztze/uaj5kxvrdkYaXPF6flepmvkSa3pVof8n2PjXXg6af7sTQP/PmfcyvQKg4cLuDsw8B//ssA66uucrLFA1jbWW+ZTDmvbCEeUj4/q6MVZjJ1uX1TRtoxe6SsQsK+HZQEmCdyf8mOaay7A+UbZ1YIH6NjNem0zaJG0bEsqUwDHnpoGCdPql7l3/vObTJ6riCfOYbjR3sxPnFEDAVe5DX5sTbSlugMlSZiEGzmeNxJg3Y3F7Q2gN9cOpOY/fpv9JHy7cP3f3AbV64r+l/LNsDdVW25Ug2UejpU//bUqjDvFruy2DsJSePmOuifcJsctogl2hRrPPxppDSFgfJ4xLwO31vB8TPHMDrKpH/Aj/91UV/bJgPuGzuVngG654DAvdi84Umi4+smI+pt+JVH56xKxDzl+DhwoAtf/Rp3GwD+7D8dx9rKFRVJstUCaCMWkTe3EjCDuxuVE8jLVQDEUb9Z/6CF7lJNga52NxGfJ3fjZb/fZSev+9Mcg0/tN7A26qQ7OQ0fpGdhswwhC2GyDH9k6s19n0tH6qSSFEtxQADXcCNJNkyg27NJzZQC0WHEyiw/4fbRx0HsvbkwS1zCXpjGqnY3jb3RMs7M2l6WshROBeeujpZdRhN5ZNO9eoo/gxRHSlqArREGTykHImfxODl4vqkviklcFZhLCaJLim/ux33e0W01X4t5vATAs06qgbMEAh017O9LYd/eMxLZv/gB87e46KV14/BhYHGJx2xdUtuz2X7hicmTLts7mcX+Q3M4c3pQMtR4LXHrKzh0cA+euZCV1lSet6x+L+2E4TKEwQFer2+i0aCR9yfbXPQuyoM0ZxLZFYl3rDCiEuZbJ9CDJVwqc/r0PkxO2WIHvv4Gf8p2Tia0gFLpCs3BnJBb2k6ZXg1ksr0SNHDsquhC3aah+eChkbPJydnubChNXOqD2O+z+4HvfLcL77xThcftaW3d27ftHPxkcz8B5okkInKHSdTOc79hcvMk3dhrhiPgPNHYUCoWVtHdtSTAcnqOPxxDb5+KWga6nzDbNWxsBL6v0+m0kRfXAQ+eng11VRwAGvuMlTCnIP30FeC1Xzj4+BoZWbo+2lijilxKAUhHjuOpELHv0LiqFnJZwbo6FNOcd/TpiwbSDMy5Bz2neh88SNeYZ2C+SpdY0JH95n3IGkT3UAYjo2wI9uLSpffR0aUiNIE8D66qeYQhU9ZGsWWY1/l/C/JHntCzQ4tVT18XLXAggA4MD2Vxcc1Do0bHr2t2/MAKvcOyu6TBx8NZ6nMB8ZbahwlYnn/+YTruiIz7RnM8ZknfbX5eIp9P+RV8DBo0x3KZeUxP5QkY9omuYqcZdF9r06Co0WDjco0MTQ+e66NWq9D3GQHJMdwf/qsD7+EH6jtP6UWdth7ajaKILGw4kHznR2uM/BsLVW9Y9yQfQhjIVXJYBTmygkdGh9DZYePSxzXcXuQ2bS1kBKFiYbbPKjKZHIFYW4hPN9iwm/nK44eLLbPcHpWzqzL0IfcSJ3yMni4bhw8NS2eU65d5uzW6zi5hvle14z69XKU/WU+7ZUxOlPDwmSkcP0pAPqtKLhzbJZCfxciIyhDq7K7Li0mnjK7N0989Pcwj09hIePlpgPNE7iytP8Hd2E/3+c9nbfgDUJwPrVs9WM8ix1Xm5lLCJ3T1OvCz1yEEmqKfzO/HARsYm8UT28jYMawDg3aKZDtDYIxTa51s9aJw7Jx+CHjrXeDiRR+VOkTneLs0nAkwTySRLWfqZmFqtP88iFtCGmfpaAGDl+npIpaWhjA05GFs1EE+q7YpM5GkFWUAinFFwFxavWlF03Lo7V3+/SaxazfOBv7IsRGmSLMXVCJHdjHseWxpQGjZCmyrcWJg3kC14gmZnqT6SxSYDFsnAyAqTwhazt10Ebt4q5KSyTfhVOTeenohxCQA1zMyRXW2ZQ82qMuYmMzg7DlOw3RQrjk4SEYmR9uXFvmxqMniZJsIGgKJeHMfUtPLvqfHx8DgAIaH+3Ht+vs0pmXUGwXFuE6ggIlSCP9LOrzplGRS2S2TExvQUQMnvDSB6YTIGZRLq8AR5kaYFVZYTosP9HMehNtrY8AyHUt3iGgrkUQeEDE6bnamiJ6+fXjyPCRDCkEtFgG3VI2ox6UhLmZmB5Gyu/D2O1WsrQdah6C5kYG2scO5Zun1QSahUoRN2VbGfI3b5uGxImCuXhqYt4Jy7SBlYG6H61INhWIOp0/bGBsH/vqbGSwsr5COaZ8tY6Wq6B9wMD1j4/pVMrivAPVKbBtLOyscdb9+rRG78VR0IOjmI2BdZCPjpAiYN+ilgHkuUxPSwY6c2tbzV8QRIPqODucwEWbMqA+8FfSWbIyTjh3qUe5IjppnM8yeX5XTM1A4fHSY1qks6Vd9yQFH54FTJ8ewZ0+vdMnYcNMPGCD6lZDP2c/Rejvt/eBb3HRrsOk+EL6Hgp6/q53qveP4Id+OyQyMnIrNrdUiB+M9RLHCcajASWXRVUqh1KNa3zqpOuxUgewgGx52Z8gSYJ7Ir7i0uuo32eSu57baiSPhjkafrGSOHxvE9L6n0dFhKaIfvXVKRwCkEzmDUK4TDBT4MjHLTZrYPNDCho0heIuiIBUC4DQ+GReNuisRI8ep0qsm7MYmCmRZKifSlxQDHcl1GCSm6LgZ+A0rjCgZFS3jF7OXdry9T5uFgBcSO2WH7ZHUouI2eX5jbhxYOQsTZOQePKDSKa9fGcCzF4BDh4Af/gstRY1GU99Tm9O7mGAuUNkWbFAeOtiDr3x1SPqZ/tmf9ZGhukpgvCDPGTs0uH6cx4vTbG19bnO8aIgMiV4kfP2+jvTlMpA6Vi9QoNwQXynvtTlQkNilifzKCjuw2KH2Gy89jKFRB1PTNJ+vc8ZJ8xy2tO7i6OzBuYJkWS0v53DpoypcN6XT3NUxw9T1INJnUctgqwlkm20sWBuXsHBONpextNlSi9K3lk6TVeduSEnL7ByEAf5b33ZJr9RoK25Vkmk+T1CTuu9Dhwv48peBv/0m3eMSA/MqfZdThJW2qufsH1Dj8eEH66Lv8rmiXGe97hO4DkiX2aqfus2hK1fILfm8pt6TSwXMONlSrsNrQYBaJTLaJcLm6zpSi/VnTWWu6UvOOMZZqSLh7Fh94YWD4jToKUWt8FjHfumlhyRyXii2HeBEEtld+SQZAe32v0/E04GGMIjja9KNwAQRgpgD0lOppzC3E4bV7/7Exhb1PDQaVZTXOxSfD4zdCRU82qVMwASYJ5JIKNtA4JtuslEJiI/fscJuEbyIc1/fQs4KiXwCjc1SMeNKGQsEymnic2qeHUTHayufA+ATKV6uaa4SuEyju+Qgk0thnQy3amWdbrMq/byjoVYpmymy4EzNn2Qg0bi5DcWMJozjzNbuk9FVryNwUnBSOVUXGehshl2R6DmQyA8Zl0Ky5usAMi8wgqQRpZvSe99vwKH7TwXd9FLbFrJVlLqYiEg9J+x4YFp/22QREDD3a6sol+lfLy2psjMzBTz3jDpuqXMNXN9qB0Mqqq57KSOIGfstz6268JRKSY0974HegRfMhqfa1qXi5M1B66PIq+ombNCJJPJ5FKt5mRgjYD46olCep/12KdsVt5dxipki7FzOE1I1Bn6et0b6gBnPOZU9rdoiIppnsX8k7ZrLwm0dOle16rE5GTQ1HdI7QXvQWiLmIbV8iwTG8FULjiqr4ZrPqiKe5Pd2hXQQoV+vqAlTHBWRd7gbRRmZDBN4dsmYcF07A2L467IN16kzidvExAC+8GuQcq///X8LsLZaI102IBf3858D773zMVKZAt2zj0zKRTbtCd+IFVTl0qQCjNPUdcBe3nsMxB0hUTVdKHjQ+B/1O3CkzW3KHpIU90YgHSpY2FEwPKzGSFiitVrjjCEuRzNtVY2jJRq36LlIJJFPRR70Z03btI7h7rVUSVC1WkFXthTaLqpJI3TAwZeAB4vjxA5yNxKPTsh77S1EFHiQzjqhikyAeSKJfAqyBTjfEhm3yy+3mue5DiUyY67a3hHmbJOmaDaROKUteXyKlb31VJ9TCXRqEht2nZ0lPP6EhWEy4F5+NYd8blhYv69cuymkQ6pHuI7gaDb55jRsS7G6y89ZRW9PBjOzBVTKXCNUw+oqkxhl1a+9S1HzKPpsxT9W10gnTZOlbQjd1HV4ZHz70kbPZEpI2z17TRYeqavnF61I0ms4UHZysZDC8ZMH8cRjaal99Bq3yGBdpc97wJ2XUtaCtDPiulBVh978vDatQzCOAl9HxVLhpavfKGgyNBXI12yz2oMdIpO2Z0gkkV8tScesrJpJv7bcsHSEJSCDslLOEBhfJb3VqQzRxgKqa8tgzgwn1U375FXGShw366llPufWa5w9E+hU9ghwW1HUvGkNiUjhorUqaF4FQ/0YRcxNpnsgQL0eXotlVeXewtZs3IYxFSCXc1CtVaXtGJd0sfMwLY6EKoHsBjLpLB2vhsrydQLsAxgYUMDcceZp/Go4fHhcsnNu3QI+eH8Zjz8+gV6yz+dvQ5D38WPjeP2NN8Ug57HL0KDH6+tVtwk7BN2BX6V/8wqoWwqYm84UdmD0rNnXD1nxTScLpSdVG0sZL/lXHT3uOGmSz4EDPZFEdl3i5okxnUxwi+ZZvbauWqnZME1wxCZkvcPkmhwoqItKMsRv2xSjCsUI51C9K10o3EZGouXR5cUndwLME0nkU5SmhEAlWy6ssW1bPeThSt2qcazQABB9EPMOcmQhk6lC2HkD/UUbstvPndAgcA11Luti3xSwZx9w+XqA8TELQ2SsLf1TPYwU29ptGhpcoQGWlvY9/KnFrOJYQw9ZceefBMoEzKv1BmofVuC5A3LK8JfZkciGFUaoIgnCz6M+x3VaSOpiRPtM/8k92q2GkA1xHZUsJ74xDt3QMBRj2/LkxTWp3Boon/dx6tQsHn5I9RZ360uSNsqHNfWUXIXO0XIJYjExTGBvuE2r6d4bYqhaxsA3ZadeoFLZocAAszNbxpBtt6KGfycWaSJa2oGWdo/Hdrd7gCS6/Ci1hIkXfa0fpPWXLgvJ5Wo4cnxYWMSXF6uoVdM0z1Jhlkt8eISFmdOx7Zqkccvk33DO6NTRNGUQ7W9eiRm0/BvGqPQtSMlVjJ9Cl+dw5D4gHdLVVcSBg2mMjgEvv5JHrbEo2zEYZuJJ2y9jeqobMzP0Xb0D3/7Wa/T9TTreoIpkc3cS0pPcM5zJL7l8Bv6ykLpN09rw7jtMM2Lh138LOHLikLQdfeWn7JysmwZu+rosmHInjnDvPzCEUneXgH/p/8wEncbbEF/ytaPXEK/aRg+Hm+nEfsuMDbb07SeSSCLbFzMdPZ3dw7bO2ESXZKjcuK4yYYSfw+WSkn7M7O8XBvWGqD9mlsxh25NRlBjpgXQdc/s70HAzuHq5Tv+ukq3VHTvK7pMKJ8A8kUTaSgsgb/f3ZtvHt7Xib/x2X8if8Za/nOI3Pt6DY8cnCVDazYQ/nxdp8WGYQLevjSTbKgvRRppe2cJ1UsQjGBjktOmVmGEURXDi6YdWkJK0RQaRXAMZcM/afBpT+7Lo6wduL3agVvNw4xrXsKea69CD5uvZ7Lq3fg4iRtQosqLPoQnqbNSRtpl5vkzg1kN3TxFDgx1YmC+jUi4LiA4japyWGQtC25Yrxrf0MacFKE0LychICeNk/F75mE+yKmmabPhKVCpQ0W8+pqSyi9OghT+9xQlsaWAubdRMNoJOCTX9heX6bJ1SFkbn2nmTH3A0lcjOy3aDDrsfnLg3CcHX1mHQdqBYlSzF67rZjegL34NjBSEw7+rycOGZAbz7LoHNl9dx+WPu4ZuSyHiz/vQkAsyAM0UK0PM80aEGlMp18Jz3EbWfZPHVvuEn+oLMdW2ImGulaECuemkyOHNJugG5OkYD3V0OHjoDnDzFtfU5XPxoTaJQlp+RbB4IMB+SXuLsgHj1lQZGh210d0olEh13UVpFcvMNpWd4cFaktRvXoXO9fqN2m4D2AI6dUqD5F683UK9WVDTN6KUgciZyi7PzTx5DNpNGV0mV40jUPzYM8V/Q1NOb/cVhGXfcx/D8ptHyRBJJ5J7Fk85kDXR0WnjmmZMStFm4DeEg4rnNc3hiTx/OnXNw8gTwox/zXqxgshsP1qqyTbKLE8BJuejsa/wL5wAAIABJREFU8nHhWWBpBfjB99JYXS7DDx2ZqpVltOPuSALME0lkg1gb3245B7djMcajhm2i8UYCxdp77tFZUjKzYoCEPaJTd7qO+1S2GJ5W6OZ6FVLCZXj+ung9WeEyeJU6bV+lMkWjF+h9Y5/Jgar0CfcJXidjl6ClvSb71uq9eOhhYL0CrC52Y+m2i1qFo88b053kJw/YEeAineUodgrr5YbUe4Y08W0cNopwSAHf6N4sXfupjXJbpWn292Vw+8YaMjkbJ0704gsvAn/3Xwv45ZtVZLIV5PN5WhxU/+OmIbTqNE7LtIhAXrwAsSEeBFlFIkXGuR8oA1+F3q3Q+RNGfmLGtYybXdXEepYcs9BRp+vivqDsCOmM/BE6XBfVxbf+xHdyUCWSCLb/PNz3z4216TVu6tdrxsGKwMhGSA6psS3pABePPwGMTXCmTxELC6uoVMoSHefU71Q2UOnf1VWaj3X09vci5dhYWyH94K83AWs11RWjcZh6Y3NEaV3AsWVH1xvEJ2z4D8/7un6RvkFaOzFV+kzoLOXsrsDoFleygLKZLAb6Ob2c9DLpdsv3wrrQwF9AobAXpZJN98bcGN24cKFfiC/ffJO/X5GIuXElpmwf6ZTSsOyY9L110u3LcBsD6MmqOncmgeNzmy4d6v5VAQ9fZ2830HMyHZJWrnCCkUlHsyI2edWek8cmFw5FYAY0rvFaH4HN1uj7/llOJJH7RCKfl/ypeNZcsoczeOnXuzG1j514ZNPVqjEyYJ6rXULOKLoUDeGN8OE2Oxfj9rz8TTZgOkB3KUC+EJBt5uPMWWBxEXj/3S4C5ivhpkaTap+kyG7EzxNgnkgi25HWRXU7ANlqfWOilFvvzJGPvj79xoSCt9rtAV/wrdgfqTQpU4cZdWtiLHL2gGPSCTQ4b9oHJo1TKWOuMfSxAt9tELAtkqG3B7VGGVkCmQzyOzqBoSEIk7Dv1ZHLFoQ0zbLTTQuBsvwqGBzL4/iJFCb2AH/x56tYWiDr0S7QuTrIMFQEcqYuSX4my5b+34E2Tg0QDnQong1B/m2/+NJ5PHfBxp/+H8DFS++ihwzXYyeVp/fE6TGcfyqP/YeBS1cWJGIUv99MJsDho5NyTWscHOd0eD/et9imMUtJ6x6VNu8I4DaSIuufXyFIt5k8qYJ0dh1OukPq+r/06+dw+coyOrprMaITXzGktjxvJnBoRRdgPBTNGz3gz2kiOySfF1C+7etraR0mOiPQqeAmCqxKRtjxJSziUitdQbkKnHtc7ba41Ikf/vAS2GybmhnDkeMMRNP4+3/4EHma7H/wh52SkfNP/xjg7XcuhfqMI88cRWcCNtvxJceo1GujqyuHciWLxYWGcvI56pYaDVfmOxu4Sufy9VcEVCNYJ71HL78kG/ts1JLO4/2VY4EJIx3thFR9hR07qyPea8JwbumIumNX6di3UK9fIVA+QdfCxHcODhAo7+0F6jVuV9bA1NQeIYurV6GY1Hm8dD2oOl5d9CrHxgJLZRRxOVBKd1czaeYuDQ53X6u6iDJ9LOX4DqTchzfmbhmKTT6VZie5j1zebUn1txHjpW//XLSu1ff7s5xIIveLxOZPmJgjthTNxawlARtu5MD2nGQjahvZctbpf12KmJaTizigwdk5HtlpnKLOHWaM8RLOT06XWUGpJ4+XfiOPfTNpfPsfl6VEsFpj/VbWvdP1pcXmdRgW2oW5nQDzRBK5F7mnyWiUwhYLusHvdsvnn+i8n71s9CkYtWbpf9UtT0/3YW5uDB98aGtlrMl5wsiNHVOOxupSX3IEhf8cGMxg4NCEeDqfeyFFSnwS125ckwiKqovWu0m6Z5YMOF8i9XI1dKKADmSlCLimamQg5qUV0BECyd//roW9e0ZRrXAKZR0ryxUhEIpj0MBv9p+GpCUIu3rLQlLo8NE3YCNbKNOCshgyNrv+Msb3dGDvPpVyWa1pYB5bT4pFBy+99CSOnwB+/ho7GGphC49oZKzouqTeMwivh5me3QZnEVTI6MxjcsrBv/39L+HIkQ5xWNhklx45ZtN1ZOjYC7Q47dORvobUtrf/Ke/XnONEEvksJYgQYCxLxXwFndYenz/Gr2XZdcGfHV2QlGsGmkH5BpDvQH//GI4eo7lMeuOHP16j+byMwaE5cVzm8hUyWhdF37ERy/qGnb0el78wK1ImgzNnOnGUgP2PftSPH/9oGemUS0A0paJNjLIDpT8488YmAF3MQ3W6CFxksnUF2uVC2akZhHWebsOL3QXXf6pad5XJ0xA2dFuXxVTKt3H61D489eSE1ItfvbpA26xKu8eUjuAXiza+9tXHcOoU8LNXgPL6EulnTYoq6p+PX4soniTTlI1wN4yW8zi4tI96KZ+I+BzClAWVTaB0pBf+Epwq/9zzD6GjMy1ZbC2/0Na+xkQFJpLIvUuLqlSTrUE6ytPEv6zXfNE9URloFD3n7ZnDp6NA8Nz1Ua6tk7nH0RsycJxM1A6N9YfFvco9mud5dPXQJpkV0g2mpryByFaNrk2uTyuAJstrhwIQCTBPJJFPW9p51I1sFUz/3C32kRYzwPwYAeBzZ+dI2S6I8cZM4iGxUGjEGs8la0ftxQg4rUmlds/MdeD840X80z+uSRoop66vV1u5yNle5v7fFXR0pDA8khejrVIto1AsolH3cevWokTr87lu6WFbKK7j4YdLWFwAfvCDgID5GriNkW0pNapIhJTxGsQMPMNyHr8PW1JC2QAmgBys0IvZl3kxWKNzdYshyCzEkGi5q9NE1SuTDqR3bqmkW/R4NYnhNHc4CmLnbki6lvm+o6uG3oE68oU1MvbzdO/AUxcm5R5TGbVnfy/9Fkf7hSmaW7Xx6pPmTAYoJ4AV8xwpJ4fV7E7e+BMnUfNEfgUl6votQd4w+yQqdVHZNaazgaP3ipyW4ky0VRo3l7FYgaqf5jk6MQU8/+wx/PBffi58EpzKnctUMdCbku+ZUyJPc3pi3EZXdx/efvcKvKCKsZFO7J8F3nu3TgB9EGfOpjBCeuDSRcMar9qhpVN1jIwWcOokcPGDQO7m1JlBHDgE0YMcbQr8DonUCzBnJ6FAXF9HoRuaLZ71ox96KlW2Tg2HD03hxHEFgrlOXpx/QbQeZFMO9pIO7+kxztlldHfb6O+HZASxHpWoObTGM1F0brvp18Txyv3Fe3t80vOerA+6o1wUlZPfxNZOXzvU26xfHzo7Ko5cZpG3o10SNZZIIp+ChC1wLQ5crNL0Xg+zc1SnGjts/Wpz5k4sYY/n76ED41grA+++fxMLSy4dJ40aAfTA1ek0AoEdoQp2TBAIfsze5P/ipY6tVuTu6IIEmCeSyGchn5d0znuWIPayQkNszzhwcH8JVy9XYTMJHDIEziNyIamRjEfMTYsaS6W5c2RobCKNhx4BfvyTSuh5tZxy2NdWzi7GWF2O0dFRxJNPQhT41at5zMxwWx4b//IDrndfp+26ZR8nNY/9B8Zw+xbw2mscnl+nVyEE5uI59V3EWxAZ962Y52GEzJNUfc8twLLLZDBb6BtII5uHgHTL7qVrVa2ROJovbMt6yITR2HbDiJJirOPUzVhipaWidGbBshBFkHhRm9vfQ+ebwPhETkXvs5A2aywNXxHUMfvxo49MoVHPCKkcR7lSdk3qN4UYzsqGtyfja8XfJZJIIpHYEbGkibToUhfJYEGcYKyZu0JSrR0meIS0GbPSbDSWUassIeOUsJ901YvPF/HOm47wEjHhY0fBxbEjEzhyALh9m+Z3ro7DB0s4cgxYWAiwuLyue3mzfrmNM2fGce4x2rem0sfFXKWTMrFkhoD51GQWv/ZF4J++3UH72Xj4LOnow8B3/omvq4y+vqywpsu16hZi6j+P7q0hmUDstPQIoTM456wi4e9wXALMaXopxnUrqOm2ZbqbhM6U8jTxG49LR9HD4cMTOHpEMzUHVUldjyebORyV59C5XxHejaFB4PixCRSLRRoLlUEQ7hB6R3SnCs0dwj9Phsa9r/QpPSKJJJJIJFpXGouCdWCx08bwSJeUN6Z16Q1z9xjbyLYc1bEH6lUis+38eWB+geczk2YOkI1n4d1361hdrosNwy11fenqo/uhCziPAfNAcuSj8j1jxMn/40GinZUEmCeSyP0kIdL5rC/k05IopV1umVMRmSAoWKYXg/Je7vauenrrV9Sapy5pSBy1NjXmKeFlI0Dt9xBQL4c2Ltcn2U0cb65qU0YWX5qs3jNn8phfZOBqCUHc1cucJl4VAM1Gsapfb4TncGxfmNENaE6lA2Ry3FqjimqtLF7WKMs+6m8b6ncyWesNZZAePrwPZx8uIJ/j1PU11OtVuG5eHA2O7TQxxfPfjhPI4sSGutSGSi1+OjakgXIFhI4AO+w/zgvXuXM5+ndaxsPRY6IMZ3V9aZ3qf+pkt25LR4vbPEfq18gA5z7EK7T/wCa/56/Mg5tIItsS5ncQ0sdYNIfJFiUVU1BixA8Rzp8A4Wc8z1lPZLMuzUHVM9y2GFyXJMW8j6PJQU2cdAzMO4s2Duw/htMnge9/n/ZLVzE324Vnnwb++hsO1td89uWhUWNwXEdnZ0GA9aqrQLBwTjge/e1LnXsu34lh5uUoQpjjJbOG1M3qGjsV0zj36HEcPMjvIcCXa8fhr4szNEP6NBNGtzwhcguY2LPeCc+rCnlTvZ5Dnknb7EBn42iQD8VSL/3DHaW7uLTo9KmDOPcI8NrP2A9aC4ksw/24FSWtAY69DrdRwr593EppSiLs+QJp/iByJkYdPhqqXlWINtPhTxDXZr5mtU80XCKJ7LLoSebqtzxvDxzqQ7HrrPAEqdbCDdnCcOCY7jxmfnIQgTMPuVZ8bCSN0w9Z+Phj4PbNFFYXF+gYjvBTSHkNx8wtUzppx4IoFjZpLLurYYgEmCeSyP0mv8Irvy8G4yK9boGtTouAObf7kixOX0VSoNl2mZEXkgKeiyImZFRadkPxK/mKFEhSoXyPjEFmLs/oOL0rhCAeoVE/IHOsoUBoJlMGR8Hn9pMyH8+RUl+XyJHUryOKzEjnYTm4K7XaY+N5HDySRbEji7/6qxsq5dtsKx7XtBh2iilYJXsyIRJvf+jwCM48pO/J5+h3WjzCvG+95kuaaxMLOm3I+zKwF6Z6x0IqZYXM9T4fiHucV5Vn2fMImPN96lWOjWdTCWAetbStvMVNqf66PJZhAzsNjh4dxe/93gUamy6VZm+2MSAi/F8iiSQSF8P3ICCTACJnyXR0K9KLQFKxW0yxGGjkOci8FtlcA4+fP05AN4NM1osiRWDgqiYq116nSf8xOHdso6vWSFfmSY+lyfwk/UITVlonSnTJo32qOgVc6aeVldu0fU4I45j8yCMku162RM/5KMP1CmLsum4ZA4OdeOIJGwcPAa+8wtdapuPSPqRTS10+pqdKmJlSujub8jEx1ktAeUDI7fi+2SkqDkZb6VTbZESFjokgvC6lg6tCfsnGMrdb8z1XImUhMAdfF6fXL6FYVGzM7NQw3CISfbOa9Z/UrHI2kM1GepU+K7b9DWW/IAizoBJll0giuyVqfnHcgO2PUg9w8nQeJ89Mir5bJrNvfX1RBVcAPfkVEVzobGOODt0NsqNYJ3AOLMxDWvEiWKXjpCTA4mv9K2Bckh0t0aPKzlTKKEy2DIkp9El3CZknwDyRRBL5zETHdqH7eomxODrShSOHxmGne8RgE0SpgbmpP2SFOzM7hpHR/WRQNUQhexJ4ciXyIvWIsf7f8tYwo0tqZRn1+rKQIRlw6Quwnaf9CzhxAnjqqWn88i2C2DUyRhsFOrdCthE4DwSc+0ENnV15HDhIYH4M+Nu/9eBYbnguTt303EYYoeGaUk7BUtHqmlxvJqMWAytMbDVZU06Y9mrOHV8N1DE9NBpVAugdOr1LjWpaa/dGvUbj6krkP9zPHEavMWZc1TLkR3epU2953+GhDC5cOIZ83pb3cVCeSCKJ3Fl4vnILzC++9AT6+tN47z2IfikUO6Ntwn9VtJh1HQPhbM7F6dMDUjP93ruLKpqeNpFlxWEhER+bnXuedgjycUg3gLOQuqWMxkSV1L++6DVpAulAiNfYCVevNwRkW5KRxA5OLl2p6ZeJ+jMRk6tKbmzDV7qO/fuHyQB2MTLehUfP9eGRs8A773DJTIDDDx/BF7/goFv4MbymjPKA26hZaNLZtjaKo+zzurRgSzsZOWdKLsSR7w3v5uHDU+gsFjE93d809qzfXU+Bfdu2wmwgpUMrpMMLKBSsGJkUS1xJtqatJuA8kUR2XgxCVrM+0H+lLQVY2bJS9lpdOH2UHaJrXRCPmEdEccAqfd2n5zzrtTWyj9Jkd6VQrddU1iVidlEQ2USW9vqpv61dSV1vlQSYJ5JIIp+pxM0bThOf2teJQmenRIQvXdbRbQMCAxMZbmDPnhJKvRbKa2nUKhqYB8rPqo6nkpCUoWeFipcNuGy2gZERhwyxAdqlqlOj1HH5GAMDzBAP3LxVJIPRJFS1AGZRn2npbc7XzSlWPb0q1ZzBsUm5t8lYLRZrwrKezejj6HooJjsKAjp/kNdGdIuxp4G5Oa9aLHQvcb5ej66+soz1tXl63y+ODGY/DmwF/Pk9t2fjbTMZNqqz+rit5wlvEaZaPQii+n8+FgP9fMEMlAIMQTxHN5FEEmkrYdojTR8G1o89VpL3Vy6z46wCm4C5AqBR1wPlXlNT1ZXWQGXSd91CROZc1GzntpnKQdi/V7U98xUw12c3fbw120VkaIrTT20lHB0EzPdODmCGlN8br5extLSo2o8xp4S0OQs0+IfUmwuLeVPavYvTZydw5YqHXLEsjsrxceC9d1jnljE6mseevcyuziesyUmF8M5X1yLdK8JrixwInCklLyHRDCS1XZwBlt5CZ/ewTE/3YHSkG7lcLNMoUPpK5aMHKkFV83KwTn7o4RmknAJGx7vb/HLxt/qXjHdWSXRfIonsuFhaA4aOO0QM6JYu0RPXnbELW+wZy4rt6wfSoUL4KoIKhoaymJ0bF9vou99dkLR3OZoEgHw1xc2B4Dc5EONXuFuTPwHmiSSSyGcgoamqRQNFW/UZ76dXhey2Kzf4Ozc0JE1cJkBd2NRHRoHlReDypTIp3II+sk5tDKyYQrXD94yzO4qcmj2EAwfH8J3vvqaMWQHKCoSzgSs1ldlAQvVxY1EJM6pzvjkjbRXt93UqucVkRFYQbs91oUcOjwqpXCbLDoQoXVPVNPIrr6/dVyRE4fcamAeIfRYYfjcyPi2USgUC/RltqHJaa8QIzyDg2LFx6T3cHbc5rfb/hoZ86ADQ5rzUeuoYlhA4mWsxe23R1zeRRH5VJa7i9PRg3TLQo1I00ymP9FFdcWdYJmPGiK9rps27NcVwLriwEmazmBM5mjNCtTILYjXUVujQDFrOYPQiX6eqLwf2TPTiN38DkiX0/nt5DPQW0VlE2H/ctLBkYG5psjYjmawrbdi6Sw5W1xXQ59puS1LJV+m1QucqqLR0v6qM4DATKk6CZ7hEImJQBdADKW0y5HWqG0XQlMrOeq5UspWebTHtFTmUpUqiVJWQlOU8cX5Wpbx23OG3bF224p8nkkgiOyAbJ5MOFeh8wrjFoR2O2jaJshKh9Iren7MUBW+LrqmS3VjEo49Dutu8/LInxLYpHZEPbS1A2z06EBKLom+Zwr4D+iAB5okkksiuS3tV275ZO//Fikna4WgtKIpY5zMqUOjBdZk4KK8i5bq/thw1MOlGTWxv4fe8Padj7ydQ/uKLwE9fSSuDVtKe1HHEgJPLc+H5nup/C9W2I4SrehVgZk/D+O5rQGvHgHk+5+OJ5x7DQ2ch5CNuvS49gQMfmtkz6oRpSUpqs4fW0u5bQ+Zm67RV3m1qL72/cBQDAx3IpVQaal+/L3XsbKAz2/qTT02LM6JYiA2EsfbbGZtm8QmpSOMrDfd6t3V9vSU/StBUZN5mwBNJJJFQ2+lprHSFpHNrAKmdbtGcUXogFZI0+kr3iFJQPBomsiMs6GEAx46iR/JZfBIGTbqSz8ctIU1kns+RStcxOKQA7vR0N06fgnRmSHEfctFtQPzw5rBq/6pyEEhbsiq974y1MOKU+IrixWCgnlojHbVCnw/oa/FC0jc7dn1WYG6B0fwq/c3h9rzm5KhHjkKo43JknLk6jA4LdPRMGJyt5ggc9LEHmrPetxZDGJBIIonskhgobppNqpwf42YTJ6YVC5pY0T5G2DFnOIYEwluaHNhS9h+3YGQdl82V0d2VloxG+V6X64RlNVaku+MxcqNDgubTGuPpE919AswTSSSRz0i2Vl6epHA2xPCCFRlSnqfI3GCnwjRP6PQjE3lRf8eBfxDaqNL7268RqF/EylqP1Hd7mpjNEvI4dWlVsitr9QoyhG5tybYM5JpUP2IVqVH2mR8RpXEmfMDHMHXuEFIh7r3LbMZstLpuTUef0azVA452W1ErI4fTLFOwNHw3dfCcWs/3mUtzazkynqc6ZEHha2N25Kmpp2Rbjv4wLxLXc/JZnPjq4m+Rgh4a3eZLp3k76VnuhNtaccO/HZZv/S6RRH5FxRiXuuoGyvT09QvhHFHTJxYJtnS0W7cCDyyVRRSE23thNN2XD52QCMl0aFDA2VP6SR9TtVX0QuwekFEaYB01Tvv0V7B/fw+eOK+AqxWsS9q5ydbxfebX8ELdJI5GbnnG4Jg/DxSpnBcax55kE7EOZEK2sbE8BgYCyepRelmzesbuWfgytKryvBXS2Tfpm3HapF+3YasR8E9JZF4MdtuQtKWiUpwWH6TdTg+1yWxoK5sB8gSoJ5LIRrmXNT+I/jG2RdySYz3HQYYcG0CWH049Jr01FXrK3kmFNpjJGGKbziWF5Hp1su0gr54+4A//3QE8+ijw7tvA2hrpmGB/qIMsrT833lYUWt/p6Z8A80QSSeTTl1ZNZm38WKUeqSa2xrAMNEi1giD8O9CIPfRkhvrS3kDWE3k8XWWE+ghTldTJ3TB6pHb1QgPYRKWUng/kO4/TMaWhW1Z5WB1lUHOtukn39twlWggWyGjs15H12PnkFa8ZL9Nrja67oNiI3TIZpOXIIPfZC8znrMAO8tKKKK29wPw910tyKzVz22KIOpusj9tZTVqCbU2fb7V/AsITSSQmWoFJJk0sk8fS3zXpJr2HBqnRZLZiEZoo6q2OEESZPIEtvXnDft3ht1DRcim1MftyBNyOgjw257PX9LYrwoBeyHcrFnUmgyO9ZKJI5p5C21cuoK6ddRwtd8NbD6Pf+tzFDuC3f+dZDA2lpXTpxg19T0HQFJ1icjlTNz84mMfs3ABGRvN6fPj/dXGSilPVitSSiZbHxygcamujKmveMfrJEkkkkU8g7Rz0W20bitWUmKJcjZE6NBFzo9eC+P5G1Wr7zzIez9CGZHHD7dOZsgQvJGKeVoGUyDFoNZFRRlcTXXRT1HyH7J4EmCeSSCL3hQQtRpPUbAdRDaEyOv2YAo9r8qDNZ0rCKHqL1mzHrmmSQC2zn2XiW4BJAVVCit2pkjLnVht1ZLJ52jOjozEE2BsVSankPsN7JvLSOigVBZlV7WRgSI08OHwumxeHGgqFZQLTgwLii8UKekqesC/z/oX8GkrdLoFxlc5pjhePMsVHYeNdI7JE72R4tot4t4ss3QmkJ5LIr7w0T5KI2EwqnmOhbyvSdSpmvlFiH0ZTOZZVIw5Ebh1kyeE4kuSEUXGOluvuEpZycBrDU1MpwQp1oKtfmvmdlJXqR2625VT7qP5SXZuOxgfRcaJrtUSX8vk4Yn76jCohSoXIXkLgUVYTndv1btGbddKHRUzP5knPHkJf3wAZ05BuGJ6/RMfMSFS+dbhDIN5GbLTBDEmGTyKJfHbSZr61WGwt01lpyaDF+bjZvG+y64Iog1K6WNhR+aJtWS36MFZqGOMqamtd3Y0jYgtJgHkiiSTyKcgdNFbQ/m0Qpoyr/YNNEWAbQB5/Bc3kZO0cnGo7XzOpm339GCD3Yvu5QnR0+MiQ1Lp398TSTH2uSw+EZW54MIXnnj2BvZPdBKrD4DhCxniwJ9gTbzCTEJ04PoaJiSK6uhRx2/65fuRze6Ueimvux8cyOHt2GgP9qeb2Z9bGe9lSzMBsN4XzTtskRmwiidxBoglnIkBxYN4c3wXCVhGxuW14JkISInPUIGKrCM9gG5zP6eaujqAzKPdi+iJo0XeIwLbou6i9GrdVs7ino3EqWBGVXGQM+7F2bBHPhtrGUvwYtqrlTFuIGjPy/yQbSDwL8n13ycfYRAGFYkMqZ8bGgcGhAXFSshQKLr3P0/45iXRtqtPapaFaicpKJJH7XVqheJNNhyAKRFh+EzA3+qZJOYUTvjlDSbVgbOa1MJ0g1DliOi7cKn4m7HhgIgHmiSSSyGcvVvvAq8lCai93rw2bfZztoux2k/JnNk8mUovnK6n/Nwg4+3juhf+/vTNrruO47vjpmbsBFzsBECQIrqBIiQotWVIkWkvZskqRnNiRXXEq+QD5fslz8pKyH+KqlB27ktgPdqXiJUpMSVyBu81Mp8/p7pmeuXNBrMIF9f+xBneb7aIKf57TZyN6+KBDO7uuRl2O6RlDsWkc975xyOfo7TcXySa+S0CJsjQVg9zOHU5lHJGkdxpH/JNP3pCxa9yUhA3pd9+9Rb3dmzbNKuYZvW26du1jWlq0USdykfZDG5n+lw4rFYATplCfvC1D7tz6MHl9Q0yrj+N/pHVB3vzUqpQF77YBdYxucblLJKPWeOxaI7Bbw59s6BZZQqPRY+Mwp3ZeuMsmIlWJiudd1O2yAwULCbb5WiM3bUeaisZK2jW1NFrImUbctPKlOy1qtj6SsZg+fX6mVVzr8pUufev9rxPPIF5YdN8nvBdVZGER+Xse+xUCAM4S+R85j4OMy43fAgHMGz2q4nkV67PnKUpF5k7+cmh+9uouPuH18QDHHAAwNdT5ic+Uvkm5S89+VzTCAAAeh0lEQVQ8rC7KHhWrsNp1+E39G4Hlp0YUxX2JbLOhmrjQDzvJM7OKNjeWaONilzqz7MJbp126FXPqlLlAyuml3NytHVGzYdNJ2Vi+drm4FzaJF835VxYiSrQdZ8RR9NlZu6//2nljksManTBWATh5QgMyf8vOCpNEzMzHcbwxGY2fgwr7kWhv1fO60Gw2jUM7I+nfjVZK733zNXrzntGRNjdDemL2aAe3VVFely3EXdYvXV6mbrcrTrA9dRGfD7+RHevYtGMf/ZlcO3mjdraxpdlGvirJOeeNODX3qu2oSqNzV68QbW1dth3e/ZcNbu/8BtHq2pq8X80est+/OECVViz2+KUBAKYfEY5w8U+JXh74Tzsvcxx709p1yQ4NR49olPjPQs2r1hTRsWkLHHMAwFRxUnZTOa1Sl94vcMaws+kajYgazUZpT3tkItGnyM0Ntg1DbI35hY0F+ujj1+m116wDnV9H+9m7maSEJtwVtP/IOO0NOz4ouBFJS80oH8PGSBOkwAD1t6Sy8msAwPTiHWv+U03SvnGOH9FgsEiZ7lI4pUFRvWMu51CTnfJw1i4/pkZI+oOBucYcLS626ZVXO3TrFtHn9/n6PSo1UHJXLu7UtlTnCPZ3v/eK6BmPUuMMIe68XhoWHBwrC5yl6Ls9H0e48kmNqZ+5bh33NHlKcTzIo/ssu03/+3I3lwXnE80M5NpuGZVvSJemRkAeATj7iBxoP1jROtf55Ald7DM2yqyWcdecX7P9tX5+kdbOn6NvfZvHqvEnGYXjbRExBwCcYQ5uEhW1j05tSypbJ6WHpzBFbTMRzl7nyNDm1gJFTTsrXVNaOcgZnjKWKM4NyG5X061tosubdqSZN6993VKkdo0Tnojh2Z1JaHZGUzNQYkl7d//JaPe1VXG5Mifz/wIA4Ljx3niQUr280qLr20u0uLAkGTSZTsZG8xRMdtTH9C/IpOHINZfkcMZNo5FJvwrO9Hn4gPcZyvi0yde0tessT7decs6wef501x4rRqouy5BdNDDfQ3GHdh6/1nafjyTTyH/3KCp+DzxK8u4rV+jipWXzOwkc8YyC7vLlWNW4HIa5BHDBATi77P33a7PPgzQYl3qTL9CxBildzlDPT1mdgFHtXGRr13kM79Jyy9iAF+iNN4h+82v+LAkiIeVSn+MEjjkAYKoIs4L8mqgay9cuS+tRconCTHgr5gklWYM2LxO1Zi/KTN/79/lTJ8I6ONKlr6soyqPcsXG8eWwZO+VNV+fov4uigXnsUSNOaH2V6Gt3r9LVq3P5iLPcmKay4Vr9tgCAs0Rd2QzRtesdas/cFL34r9+QOMnFEbpy+AEVwNV2qyg2mmNNvYwj5KWSyhHZ5nCT1vh0btC2orJjTFJ/mRbHhbcrTeb4cx6bZtOGlDjlSd7TLg4c7qVlorffuUnDoS3XyWuaaHxB0uvk+ELlAVYp97MrBBeAqaPQrsIqspMoVeVzN962zngK7KxcaQPHXYIjxpZrtUd0bo1ofcnos0ioFCY6fXLR8xPQCTjmAIAvn8Dw2msXW7Bo63rGdz96uHjcnbeO+Shp0PXrJJHvBztE//SP7FgnrlMnk5YNQ6XyFMwoyiTCnmX5R3ZfbWtKlRH3OB7J+a9fv2IMc5vy7vfn7xwFzUq8Y78v/YfBCcAUEqRTB39/Vy7Zjfn9b8k1Y6txOqup63U5mrk2FT/z2d6+oZFOSlqiZXRaMfKsGBFUxJ/8KLSMgpj9BJ3RaiQfzcz2KTPfpWMeSS26yLnZ9KC2JwbXkbNz7pFIOZcSFf3jqofkt5Gb48FMdSKvueM18PsCGgnAVFA1FQtt5AycYd7k0vfnyMt8VM1WOmvxPCz9kaf54uXIOOh9o5Idt9BpR0RGuT16MkIBxxwA8OUR5iBOcM79LrHUbttxFdL9N7Q0Tww2P9k47kjEmuNXuzu87ZLKhr7diJvhm5a+CtdOsoEpzZx0jU1IdsQQnzVJnkrDIk7h5FFAvuuwjQZlZovy2shndhI+6O+jPg8UAHCS1PzN+bU4boSWpNYQLPYrahnzCFDlZKHDWhiX1ZpJLR3U7bxyNx7NzeyVQm83ezwvtfGRdtIlm9YHuLW/jkuRL0XKdY/6wx365vsrxtFeoW7XG8ncROkp9fqPaWfH6mSrbXWvzulWQe04UU0Sf81/A9IsLxfdMCRW45xD/wA4M3jd4ceW+TFkQ4z6FMUD6X+hpQRIFxXg4VQzqoZ1qik4xSQev7fdzdpqfkxuxtJstDLyM9DNRWTQ7QmUE8IxBwB8uezhnGfB2/wjNpZbHBsJjCNXyz3ppIdPZR+/uWIeps7fGsi88UgXde/ecC2FdJxBK4avvxXfyFNxJGhIo9ETsz2S7xN7Tz9IWT+Q3ViEvgAAZ4iSbGiuL9diYBY7ZOUDVHGcj2eHHxZOdGBiahctV8VRkkKu7cQJogGl6cAuhKqibMg66TqPngeXzxch2RFuNVu51vnxa8PRA5qb7xI3TOfFR95/cbFBly6t0uraArVa5DrQl/8r0GRHx9lrhFcuX5+PCR31sXVGJ9rqmSuaAICzhHeVWT8Wl5p08eKCjJKN4szYU6okUnmWUOUcyuW2+0wgRUWNzpiDrqyrLwsCTe6voa2HbrZGQ9Fozzs9vP7AMQcATAV5jXVogYkBqIJ665PwQHWe/lRNmhcj1DvjWUTKR5O0MUh1LBH0mD83DrdKW6LjkTGoWVj9fN7QaZ/rEl280DTG64x0WQ9ryItrVpZ7AQBnn0DbNI1Jg2vClgZplBWt04UzPp7JHpf2KxpnVhxqo3AuSC6LgnPdEc3NjmR8GR8Tm4uznjXcc5VlgQFbnEsccaUku8dn+/i90jShhjFiZ9r2HtiQvnZ9gT788C1aX1+QKHqmxxXOvo7yX1R1zdH/+uqVse5daCgAzxP8F82NcVmv7ry4QetrG3RuhegXP+0ZGywV7So0IljYVEWwJVy8VEGGUW7bUbAwGeiotP/QQ8qyJ5Sk94nLc/yM86pGHRU45gCA6UI7w5MfM5+cZKUvy06mCybpwjEPJ1X65nOSvuQNXtmaZovkuTjmRrBV1jTOudnHGKZx5kzlinV58eIivfXWtjFe+9TxqZxjSr4PaUc6OgDPFbaEpTAgJy1CjumFePGxSy+3C3ve0IwqDrCPlrPurCwT3X15k65dW6eZjrVdOSIUGa9ZEnnEMM1Kjn3omPO5GrFyKfEkfTV8LJsXHcNpFBd45vi5C2Z/G1nnxkpRcGMq+FkVtkpS1TNQbpGglMdavRAA4IzCf8KsIy9s2+3xI6Jk8Ih0klQWI1MX2OHnRUV47oT7/YJUdrvpvNdGFOw7Yj/c2HlLS02aW+zSaJTRH/84KK+wHhNwzAEAXw6TxCuMIgVWmPjkqk+N5lCapWW6YQy60R6jfY5wX26T6JAzRkORt03bdLCyOjSf98WAbbKBGj02huqImvEydVrcdT2VEWoCn8iN1928osx2rrh2dexueE/PMiLhnANwJqmTMO2XBCeGhcfn7bq3pQ+Hyo8blg1NrfPE98h4w2zUchf4c0aGvv/9D2h+vkVLC0Sfkp0oofSOpLXHxI3iGrVD2jja3p3L6PLluTwCnqV2UaDZaJbuk6/M9fONZuFkx0GH9/1I2F77qIkvCBoJwHNCOfPHapAEU4y2DHafGj+8aTMYydloWeCAc2YPkWtRtGMe0/xkSvVCQ08ygXwPDQ7GeDuQx03G0S7dvXuerr+wRF98sUT/8Pf/ao4fmt1bcjpEzAEAZ4d9OtMibKp4XFubpddeu0HzizP0+QOi0ah/7LeWp316p9zVWJZXUVPnnNv/CNLksXnyWNKbVpbs+925EV3eInrv3Zfo0lZMzVbxnbz/HYW/hzxVPxR07bsl7W25wtgE4KtBHgkPVjAr7jIbqbxZLdm1aZa6LfrEeiZ9Ooh1ayRO8nBko9qXt1rUdtFtDtYno/s0HHwm3dAVO/hZIx/b6yWHX3LTyvffv03vvHtbUkkHu94AjsWgdePNcxpxcOs0OS39sGuuE+UQOgnAc4PYUMolqTunmwMjTaNvsSsClFIcKlLTxVk3Isb6ZrN1vqA0nROt5CaUUWM31wleMGy3Z1yjzMimuWuVR+lnZ0Z04/Y6/eUPSUY7/v53F6jb5WBRK79HPdYd4+DAMQcAnCwHcMrD52xo3rw5RxcvzdHTHaJ/+Yl1zMOIeX2d4v4vVqQz+dRPLZ03/UprQWZnDGsr0CvLLVo9t0Eb54m2tvi/g4vU7hBdMY75xfW7tGqMVXbMJZLkUvPz1M2aIbx7pa4i6gPA84YmH8dWxVvCpD/1vBZS9lXB++xUDyhJSKLXFy7O0cpK2zZ4S9gZ7xvDtCP6wyU0mXHOFTWNMWuP9y4+p7a/9eYLdPXyJerO2KwgYoOzIku8f9e83VwluWa7aYzUvusPQuVO7uH3CzM+JyYFAADAHkiARBU1gDKilmw9eB4l9+mX2i44ZslQsoBevE20vW2EK+obLcxodjai8xuzNCcN5GyJTWrHY7jzROKey8KliNcTY9c9oO7cCnVY+9pPjK4+NZ915V6Owyln4JgDAKaCMWPNvJhf5O6bRPe/sMJJlAR708T6nqqja8cE6TxqXdSOuzQn7eb3ilOejnV/lxQoH0Y3j6vrbbpz5y69+BLReeOcNxs2AsUpotwl1OMbORVvVB6rd33cafoAgKmDx4zpUMKCJkTVWnGm/L7Xs+K1znryeOsW0ct3btLykosOpSOzfUaJSmg03DAW6iNJVY9oKW+zxnAEammF6O4rbbp1u02PH7CROqAsa02UpCbLVaOSYhpxGn3RWT6oTKp9XWVSVQ8AAFiiko7Y5pSsYFZ3cr2QURfWMedpFxw4ee0O0a9+dYt+/Zv/NNr2iK5cWaZPPvkmbd8kmRYRxkysrahye5HPleme2WfHXHPFRewHpEu92cNlyMMDxxwAMDWEhplEmp1QRq5pUORrKUMnVgdHBnN1xXhVgSGbPy/m9RYzyb2DnlI4n1zO42uPJFfUnn5hkejVry/Q9Rs2lSqnEiLKU/PHUtiDN8a7v5VPhtASAM81qvIoz2uzanz9pDU6fWonG4hxlND2jQZdumBMVBc5mp0d0OpqLGMnedzP5oU5WlqIZSGxakLOzBJ1zcY9k375iHt8GKNTd/a87yi48SjilHljHKuktE/4LfZlrlZ2UgrOOQCgTL5YSTaKbuc/BOgii4ftx5kZohvXefGyS/c/4w+e0KXNZbp2Y546xinf3bU6E0VB80zzL3Z15pa++WzXTaVgbRqUFiKPCzjmAICTpS5sMmE3T+hzi/OsXMMP8yTyjnkpwhw5EVbFiqdz4u2mK102ExFde67Htoao8ZRa7b55HOZOfHFvPE/dOubclI4bfnBX9Wa51JO48RJ3+fQ9PVUlDf1gqU7wyAF4HqmPq2T5Olw1e8gvLvpMn7BhpXRIV9xJPaVms2jWxhk+V69xLeW22WfGPCf68M9eoRvb8zQ7M34f/rg0nzGeUmnkUM138MewNM7OPaXVNW0c/L7Lbqr/zodRNSghAMAjJqUutiiymqPysbqMjYzw62bckIxGzlIfjVjXBtSIMwn2cESdR7Blmc9wzPzRRFQ0zrQZSpX+Q1pVgkHhHR4eOOYAgJNnHzoV1iVqp6j8mhOFuCOmFcZgvm2mbJqSOMo2BCTCmrk6xyAqzVHwRuxug1OS0oEIdqfDK6V/oFHSo4ubLZqZu0SblxakKUh4Txy9UsqaoXyNdNSjwcDcm7YzNVnKI3OnRe1TlBuumUuXVz5ZtfIfx8Tf0UG0/Vk5ooc9LwDgBNBF6jpZjaAoo7gZi/aEjnn46BtVshWpnSHpo0aS+eP86Ciy77EzvrW1lncxPr9xTXpfcId0exfFo19D9I3kuGGcKPFk3zxntkv05lvztH3z72huvkHLy/X7HVh6oFUAgJAw2dCJ1vyiop3dvpQSNvJFwTTfKUszsSH5s0ZTGyddU1M287pFUn/uM3My1laiPCRfdsyVNLgUPRVTjidQNMYWUY8KHHMAwFSRp56XQ83OQY6CvXTe3GM47FGazeSrnf6gYvU0sxF0svN2R6NHFEcdWloi+s533qCbL8zQ1hWiVue2pHS2g9E+VpYjKpov8TupvXCQ5FQEx8srqNxQrhI4D77Ds9/aNzBiATgThJMYxBjUHM1hDesbw1BLDXoYrfZOeRFNz/L6SX6Mgnpzvz/DUaJWkLbuHfJwvzFtUtaxzzJukNS0YytrCI9jI3XBaCk75fxmXDdjbb9AxwAAdVSDD4obsBG98+5devw4k9JC6b7OGhRnrowwNRqWit0nh6jUbZkrjyysOB8xL7Uuck9sthJnbMZ5Z3juBc+NNlT1vo4IHHMAwFShg59VbOSan7EsDqnZnqO181z/PSPNPbTuiTLb9PXAaWZx1n3SaobmFog2LjSN8RjJLN+PPrpJ5zeIllds9NuLchbchXYpS8p1atLibOtK77kJ1qiiIloOAPjK47XAawcbeuc3OnT3a5u0tqZot8cLiL18f18rKT/F8EzFqGSHWDKBFKewFwZiXcS9+rz6Xl52w8ZuhzWyQ6trLWmKVEUHx+bfgYrZwqgJBwCcKE58OOJ968W2LCB254h6fR6DNjKvH9vMITU0tt+oJvOnYpFpr13hgmgRMS8umodfiPIhbccLHHMAwNQxybCzUXO7B3fI5Hm6N24YMd6ZoadPSDpmFnXcNqdJxmVkiRi6mpZpc4vozXvbEsnmju+bl2xUqXQNKke0fMTcNhRxLnmwTGqb1BXx9LIxXDGHw8JOAMBXHnaut7fnjDM8R6Mh0c9+xrXevcpeVtdk+kPbToLIp0uIgdjM9wwd8/2gdFm1FoyuvnXvlnlsSSS8fBfFY1Unx3pclp4AAMARqJbscbQ71rSwqPJGlL0hZz6OaO38jNiHXzxMzDHJeFoQqVJDYEHOnZXeKH/mjnNPlZ2SXjrrcQDHHAAwZQSzcJWvnyTXdCNxDdyM0Ga7dG6Z6P3X7KCMf/4JO8i7xuGOJZIU0a47D7fbZK99Vnzp65u8rdiY+8Cmtg+0q6uM6ku9lVS6D9y9JG60WmVfHRUjkNQzRBqGKgDAwbqzdcFq3P2HRP/2UyMR2eO8ptxqXkqNKKW11ZgubLRpfk4b513RcMip5ztm2xWNYw4uL2EMnGjR6OpHH9+0TdwqAaE6fZz4PhYfAQDHRaAn3i7MXG5jprnAJ5bI+dJSRB988AZduUr06f+mMi7tIBcpSobIXsVnIulYnPHQoS+yOI8POOYAgFOlbBIW73LsuekShZqxG82T9mygOjNOMqetZzxFUtn+wVJvuWO2jkSgOu2+dE6PaEjnloiWF7SsbUqFeGadfk7TDEVVUVE37u+LjeZGnFCWPpHXkUqs4+9S26sd3EsBor0EG845AKCCrRv/jHo7n1IyHBitaUuJjcqGRgeH9I17M3Tv3i2anfUaltC5FR4H1Msd8wNHqVVhhsrLyG57HkJl7R673ESnHCF0AMAhqTrniq06WxfONuLiPNGfvNyhu2Z7+JDoRz9+Sr3dnRo9UmOvbC8PXXwqkZZwxESDil5D3vbTcMwBAM8jYes0/zxzE8YjY6CS2R4bw3QgznDDNfBoqKHZo52vnirdl86Z88Y+/asfvEs3XzBnSZbo9vbrtL7eEgef/L5ENYKqK/diDN4O0ZUra/Thh/fowgbRp//zlJLB7vjoDO+gw+YEABwQbzfyTN3ta0v03T9/h65cakuZjeaVx2RknPMeLczNUGvGKaQ5aOtyg37419+mG9fO0fx85WTMYfRI+Q4b5djRs+4fUXIAwIkTrO3ZBUIlU3i8/RW55r0y4ULZ8bflbMh6PSuc8+AdHRfXFCddFc2I5cr7GFtxQOCYAwBOlbCVhiUSsWPR05pHkLUl8r21qejem1dpZYGoqUbG4U4oypSImNRectqnzmRsGc/pfe89om6XRESzZJZavgRTu+h7WCBZuZvw2ay59vb1Fq0tbYuR/Mt/f2rs1qcSiY9Uw91x3RkAAGAyVa1gOWKdunG9YZzsb9DlqyTapzLbgl1nIzEweYFRu1GNKytEb7+9JTXnXHs+xr4C1HslqKujO/oAAHASKJ/p6Lciym0j6tpG1SekMeZp6X6yhW4Ur8cau9m2wD6go1RiO7zXnvnwwDEHAEwhLIgpVwwRV5AvdBv08ovztDT3pzIjN9YDyoZ985G1GFmG2TGPtTnGOPPsQG+s1ZzWB8QnpmmWHXNOK2WD9/w6SbS899g46jO71Iz6xihOkJUJADg0dbFo1q51ozfr5xsS8RGygdTqpMnIRmt8743IdiXm+b25toWadFBtyo8NTjDRKa+MtAz3QdQcAHDS5AEWP0fHv20dcxmFJrZelHdlLzRrXKSsM94I+geN65tyeZx28k8ihZRIZQcAPF9MdG69lTkk1WjQOeMYn9uIaPchf/aURqMnlKVD89yGiWwaZU8UU8rRs2CertfgTFcMz8rnyluVuujCqYOUd8UjOQa0spbRTHdYHA/nHABQZQ8ndZJkKNdwTaZJpNbm5NE/pB+Y1y1z3CUxOGtLJquF3weh7oR7OtiTTNfa3fZ6AwAADo/yxYxl4tg6z1oPpcmvmJriTHOX9tG4Qy3Odt/OPzefkzL2ZMTTMZpkJ+bumnPsBuZijxQ33YRjDgB4rphY5x0O5uGumlauEmOwNpo9arVSasRhfY8RX2PApsYjlw7rquac9YXlwT0UVm0ezVLFx50Zor/43uv07Q9ep7Z5fgIjLAEAzxO1JTN74DsARzaCw455u9Wj+fkeLa9kLgK097FHcson3etBzgnfGwBwEtS2vIjq3hS0HlCS7khzYE44UsZO1LpvXvep0yBpHCz78RniIbU6falRz/RDc9onFMU7lCYLNEzY9nxotsfmfHb/dmdoPt/de/3yEMAxBwBMLy6CrSlxTeGa1JllB3lEvcGI4sYo33VpqUl3714jncXUnauexzvmqub9sYsGPwO0jWbxXN/5RZc9BQAAz+KgTq3XFtew6OWXt2hxYZHWznep1S6frpRpfpg08rr9oW0AgLOAy2zMC2ucBko4JyWxETsd80QNqdlsUSMeUMO8F0UDetI3tmTHuvWsqzdfaNHf/O3HdPMmT7tYpfXzA7pyeVmS5C9sEr3x5gu0ubUm+3I/j+//4ANaW12j5ZVyFdFR1yWV1jAvAQDTSObaEWd2sqSkqDdF/X78o/+jnZ0dunrtGt26bWXws8/N9hnP823StSstI8J0NIXcSxnrLGNEiQAAx0FFU0bGgBwNiYxdSc02lbTmyH3Z9msBQt8AAKdNjV7VmWBctdgbEP3i5/fp9394RHfubNNLt4l+/h8Z/fZ3/00Li/P06quruWPO5xiZ/XeeWqf7c2NPDo3m8qSLtXVzrl0y50nNZzGtb9hpPQ8f2M7v7Y5t2hnX3MdhgGMOAJgOqkrku69JxFy7lHKXzp6Q1AxxumcUU75KyhGjKEg9P5LTvF9lrEv9hBELADgsB0h9n5zzc4Br7QdoGgBgGqmW4pBtBcd14aORsRUT2ySTG/mOpGcHiZ5FbmNcaw/bd93bku41h4cawekzKk83T9wxDYWIOQDgeWLPCPXkdupJkKGuqCKMx9E1/aAKCQMWAHBc+AlAE3QFjjkAAFBJy6T7kCosRl9LHvbILDoZZfloNG64GcflffJTa9u7yEuhDGjLgmE/yjrnRwWOOQBgOpikRDUN1GsWSPNdj2PFshYYsACAL5uarJ9nSREccwDAV46KMRhKZ3mgWojNyiQd2Sp1VS91k+QvdNyPqxcwmr8BAKaDSY2LKlHvqmNe3dWf6pmgNhwAMC3UFYtDowAA4NAol4xuB6pFtl8RlQM4tn9cRj55XRUxcHqWu60qj8cBHHMAwPRwRHXb9+H7GQ80aX8AADhuwoXJqt7ssyQH/jsAAFisHob90u275axK5RzxEF9dfjrzcOGYAwCmiCNXTB7uEnC8AQCnzV7jzo6jXwYAAHxlCPMrlR+oViOjYex8UkGkS3kvtX07GeCYAwCmiGdbnlNtm071zQEAngeOVWb2M/scugYAOJPYJHbvbO8tZXt9+uWJIJq/AQAAAABMC6gtBwCAg1ObWXS20o0QMQcAAAAAmBbOjg0JAADTQ612ni1BPZ3KdgAAAAAAAAAAAAhwzAEAAAAAAAAAgFMEjjkAAAAAAAAAAHCKwDEHAAAAAAAAAABOETjmAAAAAAAAAADAKQLHHAAAAAAAAAAAOEXgmAMAAAAAAAAAAKcIHHMAAAAAAAAAAOAUgWMOAAAAAAAAAACcInDMAQAAAAAAAACAUwSOOQAAAAAAAAAAcIrAMQcAAAAAAAAAAE4ROOYAAAAAAAAAAMApAsccAAAAAAAAAAA4ReCYAwAAAAAAAAAAp8j/A9avDJwNOjweAAAAAElFTkSuQmCC;" vertex="1" parent="1">
                    <mxGeometry x="90" y="230" width="618" height="117.04" as="geometry"/>
                </mxCell>
                <mxCell id="3" value="" style="rounded=0;whiteSpace=wrap;html=1;fillColor=none;strokeColor=#b85450;strokeWidth=2;" vertex="1" parent="1">
                    <mxGeometry x="160" y="240" width="120" height="100" as="geometry"/>
                </mxCell>
                <mxCell id="4" value="25ms" style="text;html=1;align=center;verticalAlign=middle;resizable=0;points=[];autosize=1;strokeColor=none;fillColor=none;" vertex="1" parent="1">
                    <mxGeometry x="196" y="343.04" width="50" height="30" as="geometry"/>
                </mxCell>
                <mxCell id="5" value="" style="shape=curlyBracket;whiteSpace=wrap;html=1;rounded=1;flipH=1;labelPosition=right;verticalLabelPosition=middle;align=left;verticalAlign=middle;strokeWidth=1;fillColor=none;direction=north;" vertex="1" parent="1">
                    <mxGeometry x="160" y="340" width="120" height="10" as="geometry"/>
                </mxCell>
                <mxCell id="6" value="" style="shape=flexArrow;endArrow=classic;html=1;" edge="1" parent="1">
                    <mxGeometry width="50" height="50" relative="1" as="geometry">
                        <mxPoint x="220" y="370" as="sourcePoint"/>
                        <mxPoint x="220" y="480" as="targetPoint"/>
                    </mxGeometry>
                </mxCell>
                <mxCell id="8" value="400 sample points (16kHz sample rate)" style="text;html=1;align=center;verticalAlign=middle;resizable=0;points=[];autosize=1;strokeColor=none;fillColor=none;" vertex="1" parent="1">
                    <mxGeometry x="246" y="347.04" width="230" height="30" as="geometry"/>
                </mxCell>
                <mxCell id="9" value="d=39, 39-dim MFCC" style="text;html=1;align=center;verticalAlign=middle;resizable=0;points=[];autosize=1;strokeColor=none;fillColor=none;" vertex="1" parent="1">
                    <mxGeometry x="252" y="430" width="130" height="30" as="geometry"/>
                </mxCell>
                <mxCell id="10" value="d=80, 80-dim filter bank output" style="text;html=1;align=center;verticalAlign=middle;resizable=0;points=[];autosize=1;strokeColor=none;fillColor=none;" vertex="1" parent="1">
                    <mxGeometry x="251" y="450" width="190" height="30" as="geometry"/>
                </mxCell>
                <mxCell id="11" value="" style="rounded=0;whiteSpace=wrap;html=1;strokeWidth=1;fillColor=#dae8fc;strokeColor=#6c8ebf;flipH=1;" vertex="1" parent="1">
                    <mxGeometry x="210" y="490" width="20" height="60" as="geometry"/>
                </mxCell>
                <mxCell id="12" value="" style="rounded=0;whiteSpace=wrap;html=1;strokeWidth=1;fillColor=#d5e8d4;strokeColor=#82b366;flipH=1;" vertex="1" parent="1">
                    <mxGeometry x="249" y="490" width="20" height="60" as="geometry"/>
                </mxCell>
                <mxCell id="13" value="" style="rounded=0;whiteSpace=wrap;html=1;strokeWidth=1;fillColor=#fff2cc;strokeColor=#d6b656;flipH=1;" vertex="1" parent="1">
                    <mxGeometry x="287" y="490" width="20" height="60" as="geometry"/>
                </mxCell>
                <mxCell id="14" value="" style="rounded=0;whiteSpace=wrap;html=1;strokeWidth=1;fillColor=#ffe6cc;strokeColor=#d79b00;flipH=1;" vertex="1" parent="1">
                    <mxGeometry x="326" y="490" width="20" height="60" as="geometry"/>
                </mxCell>
                <mxCell id="15" value="" style="rounded=0;whiteSpace=wrap;html=1;strokeWidth=1;fillColor=#f8cecc;strokeColor=#b85450;flipH=1;" vertex="1" parent="1">
                    <mxGeometry x="364" y="490" width="20" height="60" as="geometry"/>
                </mxCell>
                <mxCell id="16" value="" style="rounded=0;whiteSpace=wrap;html=1;strokeWidth=1;fillColor=#e1d5e7;strokeColor=#9673a6;flipH=1;" vertex="1" parent="1">
                    <mxGeometry x="403" y="490" width="20" height="60" as="geometry"/>
                </mxCell>
                <mxCell id="17" value="" style="rounded=0;whiteSpace=wrap;html=1;strokeWidth=1;fillColor=#f5f5f5;strokeColor=#666666;fontColor=#333333;flipH=1;" vertex="1" parent="1">
                    <mxGeometry x="441" y="490" width="20" height="60" as="geometry"/>
                </mxCell>
                <mxCell id="18" value="" style="rounded=0;whiteSpace=wrap;html=1;strokeWidth=1;flipH=1;" vertex="1" parent="1">
                    <mxGeometry x="480" y="490" width="20" height="60" as="geometry"/>
                </mxCell>
                <mxCell id="20" value="per frame" style="text;html=1;align=center;verticalAlign=middle;resizable=0;points=[];autosize=1;strokeColor=none;fillColor=none;" vertex="1" parent="1">
                    <mxGeometry x="150" y="405" width="70" height="30" as="geometry"/>
                </mxCell>
                <mxCell id="21" value="(length T, dimension d)" style="text;html=1;align=center;verticalAlign=middle;resizable=0;points=[];autosize=1;strokeColor=none;fillColor=none;" vertex="1" parent="1">
                    <mxGeometry x="274" y="550" width="140" height="30" as="geometry"/>
                </mxCell>
                <mxCell id="22" value="" style="rounded=0;whiteSpace=wrap;html=1;fillColor=none;strokeColor=#b85450;strokeWidth=2;" vertex="1" parent="1">
                    <mxGeometry x="200" y="240" width="120" height="100" as="geometry"/>
                </mxCell>
                <mxCell id="23" value="" style="shape=curlyBracket;whiteSpace=wrap;html=1;rounded=1;flipH=1;labelPosition=right;verticalLabelPosition=middle;align=left;verticalAlign=middle;strokeWidth=1;fillColor=none;direction=north;flipV=1;" vertex="1" parent="1">
                    <mxGeometry x="160" y="230" width="40" height="10" as="geometry"/>
                </mxCell>
                <mxCell id="24" value="10ms" style="text;html=1;align=center;verticalAlign=middle;resizable=0;points=[];autosize=1;strokeColor=none;fillColor=none;" vertex="1" parent="1">
                    <mxGeometry x="155" y="210.00000000000003" width="50" height="30" as="geometry"/>
                </mxCell>
                <mxCell id="25" value="1s → 100 frames" style="text;html=1;align=center;verticalAlign=middle;resizable=0;points=[];autosize=1;strokeColor=none;fillColor=none;" vertex="1" parent="1">
                    <mxGeometry x="196" y="190" width="110" height="30" as="geometry"/>
                </mxCell>
            </root>
        </mxGraphModel>
    </diagram>
</mxfile>